<svg xmlns="http://www.w3.org/2000/svg" xmlns:xlink="http://www.w3.org/1999/xlink" width="1080" zoomAndPan="magnify" viewBox="0 0 810 809.999993" height="1080" preserveAspectRatio="xMidYMid meet" version="1.2"><defs><linearGradient x1="0" gradientTransform="matrix(0.75,0,0,0.75,0.0000035,0.00002)" y1="0" x2="1079.999955" gradientUnits="userSpaceOnUse" y2="1079.999955" id="72192ae0d7"><stop style="stop-color:#12395c;stop-opacity:1;" offset="0"/><stop style="stop-color:#12395c;stop-opacity:1;" offset="0.0078125"/><stop style="stop-color:#12385b;stop-opacity:1;" offset="0.015625"/><stop style="stop-color:#12385a;stop-opacity:1;" offset="0.0234375"/><stop style="stop-color:#12385a;stop-opacity:1;" offset="0.03125"/><stop style="stop-color:#113759;stop-opacity:1;" offset="0.0390625"/><stop style="stop-color:#113758;stop-opacity:1;" offset="0.046875"/><stop style="stop-color:#113657;stop-opacity:1;" offset="0.0546875"/><stop style="stop-color:#113657;stop-opacity:1;" offset="0.0625"/><stop style="stop-color:#113556;stop-opacity:1;" offset="0.0703125"/><stop style="stop-color:#113555;stop-opacity:1;" offset="0.078125"/><stop style="stop-color:#113455;stop-opacity:1;" offset="0.0859375"/><stop style="stop-color:#103454;stop-opacity:1;" offset="0.09375"/><stop style="stop-color:#103453;stop-opacity:1;" offset="0.101562"/><stop style="stop-color:#103352;stop-opacity:1;" offset="0.109375"/><stop style="stop-color:#103352;stop-opacity:1;" offset="0.117188"/><stop style="stop-color:#103251;stop-opacity:1;" offset="0.125"/><stop style="stop-color:#103250;stop-opacity:1;" offset="0.132812"/><stop style="stop-color:#10314f;stop-opacity:1;" offset="0.140625"/><stop style="stop-color:#0f314f;stop-opacity:1;" offset="0.148437"/><stop style="stop-color:#0f304e;stop-opacity:1;" offset="0.15625"/><stop style="stop-color:#0f304d;stop-opacity:1;" offset="0.164062"/><stop style="stop-color:#0f304d;stop-opacity:1;" offset="0.171875"/><stop style="stop-color:#0f2f4c;stop-opacity:1;" offset="0.179687"/><stop style="stop-color:#0f2f4b;stop-opacity:1;" offset="0.1875"/><stop style="stop-color:#0f2e4a;stop-opacity:1;" offset="0.195312"/><stop style="stop-color:#0e2e4a;stop-opacity:1;" offset="0.203125"/><stop style="stop-color:#0e2d49;stop-opacity:1;" offset="0.210938"/><stop style="stop-color:#0e2d48;stop-opacity:1;" offset="0.21875"/><stop style="stop-color:#0e2c48;stop-opacity:1;" offset="0.226562"/><stop style="stop-color:#0e2c47;stop-opacity:1;" offset="0.234375"/><stop style="stop-color:#0e2c46;stop-opacity:1;" offset="0.242188"/><stop style="stop-color:#0e2b45;stop-opacity:1;" offset="0.25"/><stop style="stop-color:#0e2b45;stop-opacity:1;" offset="0.257812"/><stop style="stop-color:#0d2a44;stop-opacity:1;" offset="0.265625"/><stop style="stop-color:#0d2a43;stop-opacity:1;" offset="0.273437"/><stop style="stop-color:#0d2943;stop-opacity:1;" offset="0.28125"/><stop style="stop-color:#0d2942;stop-opacity:1;" offset="0.289062"/><stop style="stop-color:#0d2841;stop-opacity:1;" offset="0.296875"/><stop style="stop-color:#0d2840;stop-opacity:1;" offset="0.304687"/><stop style="stop-color:#0d2740;stop-opacity:1;" offset="0.3125"/><stop style="stop-color:#0c273f;stop-opacity:1;" offset="0.320312"/><stop style="stop-color:#0c273e;stop-opacity:1;" offset="0.328125"/><stop style="stop-color:#0c263d;stop-opacity:1;" offset="0.335937"/><stop style="stop-color:#0c263d;stop-opacity:1;" offset="0.34375"/><stop style="stop-color:#0c253c;stop-opacity:1;" offset="0.351562"/><stop style="stop-color:#0c253b;stop-opacity:1;" offset="0.359375"/><stop style="stop-color:#0c243b;stop-opacity:1;" offset="0.367187"/><stop style="stop-color:#0b243a;stop-opacity:1;" offset="0.375"/><stop style="stop-color:#0b2339;stop-opacity:1;" offset="0.382812"/><stop style="stop-color:#0b2338;stop-opacity:1;" offset="0.390625"/><stop style="stop-color:#0b2338;stop-opacity:1;" offset="0.398438"/><stop style="stop-color:#0b2237;stop-opacity:1;" offset="0.40625"/><stop style="stop-color:#0b2236;stop-opacity:1;" offset="0.414062"/><stop style="stop-color:#0b2136;stop-opacity:1;" offset="0.421875"/><stop style="stop-color:#0a2135;stop-opacity:1;" offset="0.429688"/><stop style="stop-color:#0a2034;stop-opacity:1;" offset="0.4375"/><stop style="stop-color:#0a2033;stop-opacity:1;" offset="0.445312"/><stop style="stop-color:#0a1f33;stop-opacity:1;" offset="0.453125"/><stop style="stop-color:#0a1f32;stop-opacity:1;" offset="0.460938"/><stop style="stop-color:#0a1f31;stop-opacity:1;" offset="0.46875"/><stop style="stop-color:#0a1e31;stop-opacity:1;" offset="0.476562"/><stop style="stop-color:#091e30;stop-opacity:1;" offset="0.484375"/><stop style="stop-color:#091d2f;stop-opacity:1;" offset="0.492188"/><stop style="stop-color:#091d2e;stop-opacity:1;" offset="0.5"/><stop style="stop-color:#091c2e;stop-opacity:1;" offset="0.507812"/><stop style="stop-color:#091c2d;stop-opacity:1;" offset="0.515625"/><stop style="stop-color:#091b2c;stop-opacity:1;" offset="0.523437"/><stop style="stop-color:#091b2c;stop-opacity:1;" offset="0.53125"/><stop style="stop-color:#081b2b;stop-opacity:1;" offset="0.539062"/><stop style="stop-color:#081a2a;stop-opacity:1;" offset="0.546875"/><stop style="stop-color:#081a29;stop-opacity:1;" offset="0.554687"/><stop style="stop-color:#081929;stop-opacity:1;" offset="0.5625"/><stop style="stop-color:#081928;stop-opacity:1;" offset="0.570312"/><stop style="stop-color:#081827;stop-opacity:1;" offset="0.578125"/><stop style="stop-color:#081826;stop-opacity:1;" offset="0.585937"/><stop style="stop-color:#071726;stop-opacity:1;" offset="0.59375"/><stop style="stop-color:#071725;stop-opacity:1;" offset="0.601562"/><stop style="stop-color:#071724;stop-opacity:1;" offset="0.609375"/><stop style="stop-color:#071624;stop-opacity:1;" offset="0.617187"/><stop style="stop-color:#071623;stop-opacity:1;" offset="0.625"/><stop style="stop-color:#071522;stop-opacity:1;" offset="0.632812"/><stop style="stop-color:#071521;stop-opacity:1;" offset="0.640625"/><stop style="stop-color:#061421;stop-opacity:1;" offset="0.648437"/><stop style="stop-color:#061420;stop-opacity:1;" offset="0.65625"/><stop style="stop-color:#06131f;stop-opacity:1;" offset="0.664062"/><stop style="stop-color:#06131f;stop-opacity:1;" offset="0.671875"/><stop style="stop-color:#06131e;stop-opacity:1;" offset="0.679687"/><stop style="stop-color:#06121d;stop-opacity:1;" offset="0.6875"/><stop style="stop-color:#06121c;stop-opacity:1;" offset="0.695312"/><stop style="stop-color:#05111c;stop-opacity:1;" offset="0.703125"/><stop style="stop-color:#05111b;stop-opacity:1;" offset="0.710937"/><stop style="stop-color:#05101a;stop-opacity:1;" offset="0.71875"/><stop style="stop-color:#05101a;stop-opacity:1;" offset="0.726562"/><stop style="stop-color:#050f19;stop-opacity:1;" offset="0.734375"/><stop style="stop-color:#050f18;stop-opacity:1;" offset="0.742187"/><stop style="stop-color:#050f17;stop-opacity:1;" offset="0.75"/><stop style="stop-color:#040e17;stop-opacity:1;" offset="0.757812"/><stop style="stop-color:#040e16;stop-opacity:1;" offset="0.765625"/><stop style="stop-color:#040d15;stop-opacity:1;" offset="0.773438"/><stop style="stop-color:#040d14;stop-opacity:1;" offset="0.78125"/><stop style="stop-color:#040c14;stop-opacity:1;" offset="0.789062"/><stop style="stop-color:#040c13;stop-opacity:1;" offset="0.796875"/><stop style="stop-color:#040b12;stop-opacity:1;" offset="0.804688"/><stop style="stop-color:#030b12;stop-opacity:1;" offset="0.8125"/><stop style="stop-color:#030a11;stop-opacity:1;" offset="0.820312"/><stop style="stop-color:#030a10;stop-opacity:1;" offset="0.828125"/><stop style="stop-color:#030a0f;stop-opacity:1;" offset="0.835938"/><stop style="stop-color:#03090f;stop-opacity:1;" offset="0.84375"/><stop style="stop-color:#03090e;stop-opacity:1;" offset="0.851562"/><stop style="stop-color:#03080d;stop-opacity:1;" offset="0.859375"/><stop style="stop-color:#02080d;stop-opacity:1;" offset="0.867188"/><stop style="stop-color:#02070c;stop-opacity:1;" offset="0.875"/><stop style="stop-color:#02070b;stop-opacity:1;" offset="0.882812"/><stop style="stop-color:#02060a;stop-opacity:1;" offset="0.890625"/><stop style="stop-color:#02060a;stop-opacity:1;" offset="0.898438"/><stop style="stop-color:#020609;stop-opacity:1;" offset="0.90625"/><stop style="stop-color:#020508;stop-opacity:1;" offset="0.914062"/><stop style="stop-color:#010508;stop-opacity:1;" offset="0.921875"/><stop style="stop-color:#010407;stop-opacity:1;" offset="0.929688"/><stop style="stop-color:#010406;stop-opacity:1;" offset="0.9375"/><stop style="stop-color:#010305;stop-opacity:1;" offset="0.945312"/><stop style="stop-color:#010305;stop-opacity:1;" offset="0.953125"/><stop style="stop-color:#010204;stop-opacity:1;" offset="0.960938"/><stop style="stop-color:#010203;stop-opacity:1;" offset="0.96875"/><stop style="stop-color:#000203;stop-opacity:1;" offset="0.976562"/><stop style="stop-color:#000102;stop-opacity:1;" offset="0.984375"/><stop style="stop-color:#000101;stop-opacity:1;" offset="0.992188"/><stop style="stop-color:#000000;stop-opacity:1;" offset="1"/></linearGradient><clipPath id="add3acf519"><path d="M 116 81 L 694.425781 81 L 694.425781 729 L 116 729 Z M 116 81 "/></clipPath></defs><g id="0fff6c471e"><rect x="0" width="810" y="0" height="809.999993" style="fill:#ffffff;fill-opacity:1;stroke:none;"/><rect x="0" width="810" y="0" height="809.999993" style="fill:url(#linear0);stroke:none;"/><g clip-rule="nonzero" clip-path="url(#add3acf519)"><path style=" stroke:none;fill-rule:nonzero;fill:#ffffff;fill-opacity:1;" d="M 692.550781 248.308594 C 692.058594 245.339844 690.820312 242.496094 689.832031 239.527344 C 689.335938 238.167969 688.347656 236.933594 688.101562 235.324219 C 687.855469 234.210938 687.359375 232.726562 686.121094 232.355469 C 683.15625 232.480469 680.679688 233.964844 677.835938 234.953125 C 674.25 236.5625 670.542969 237.921875 666.832031 239.527344 C 666.335938 239.15625 665.964844 238.910156 665.71875 238.417969 C 662.257812 232.605469 661.144531 225.804688 658.917969 219.621094 C 661.886719 219.125 664.976562 218.261719 667.820312 217.269531 C 668.6875 217.023438 669.921875 216.15625 669.550781 215.042969 C 669.429688 214.550781 669.179688 214.304688 668.808594 214.179688 C 668.5625 211.335938 667.078125 208.738281 666.585938 205.894531 C 665.71875 203.542969 665.347656 201.070312 664.730469 198.597656 C 664.113281 194.890625 662.628906 191.550781 661.636719 187.839844 C 654.835938 167.066406 647.417969 146.414062 639.75 125.886719 C 637.773438 119.953125 635.671875 113.523438 634.0625 107.339844 C 632.085938 101.15625 629.734375 95.34375 627.878906 89.039062 C 627.386719 87.800781 626.890625 85.945312 626.519531 84.585938 C 626.394531 83.597656 625.777344 82.113281 624.789062 81.496094 C 623.921875 81 622.808594 81.371094 622.066406 81.867188 C 619.964844 83.347656 617.738281 84.832031 615.761719 86.6875 C 613.164062 89.039062 610.320312 90.769531 607.230469 92.746094 C 597.707031 99.175781 587.445312 104.125 577.179688 109.316406 C 570.253906 112.902344 563.578125 117.230469 556.652344 120.941406 C 507.191406 149.878906 462.796875 186.234375 413.582031 215.539062 C 403.8125 221.96875 393.917969 228.027344 383.902344 233.964844 C 378.089844 237.304688 372.648438 241.261719 366.34375 243.855469 C 365.726562 243.980469 365.105469 244.105469 364.488281 243.980469 C 361.769531 243.609375 359.046875 243.484375 356.328125 243.117188 C 351.382812 242.746094 346.433594 242.992188 341.363281 242.496094 C 336.046875 242.003906 330.976562 240.890625 326.03125 239.15625 C 324.792969 238.539062 324.054688 237.550781 323.0625 236.5625 C 321.085938 234.582031 318.117188 234.460938 315.519531 234.335938 C 311.441406 234.210938 308.71875 233.964844 306.121094 230.503906 C 302.164062 226.667969 298.578125 222.339844 294.746094 218.382812 C 285.964844 209.605469 276.074219 219.742188 268.160156 206.511719 C 265.316406 201.195312 270.015625 195.753906 262.84375 192.292969 C 261.730469 191.671875 260.617188 191.425781 259.378906 191.054688 C 258.761719 190.5625 258.390625 189.820312 258.019531 189.199219 C 254.558594 184.871094 249.609375 181.78125 244.417969 180.296875 C 242.6875 179.679688 240.832031 180.050781 239.101562 179.554688 C 236.996094 178.8125 235.265625 177.453125 233.039062 177.082031 C 225.375 175.101562 218.695312 181.164062 213.132812 185.613281 C 210.90625 186.605469 208.554688 187.222656 206.453125 188.457031 C 205.21875 189.078125 203.734375 189.570312 202.867188 190.683594 C 202.25 192.042969 201.261719 193.28125 200.640625 194.765625 C 200.148438 198.597656 201.261719 202.183594 200.765625 206.140625 C 200.519531 212.199219 199.160156 218.507812 198.910156 224.566406 C 199.035156 227.410156 199.902344 230.007812 199.902344 232.976562 C 199.652344 235.078125 198.910156 237.054688 198.167969 238.910156 C 197.550781 241.011719 197.304688 243.238281 197.054688 245.464844 C 196.4375 250.535156 197.675781 255.480469 196.683594 260.550781 C 196.191406 264.011719 195.820312 267.722656 194.210938 270.9375 C 192.355469 273.90625 191.246094 277.121094 190.378906 280.582031 C 190.253906 281.574219 190.007812 282.6875 190.378906 283.796875 C 190.625 284.664062 190.625 285.652344 191.121094 286.519531 C 191.246094 288.125 190.996094 289.609375 191.121094 291.339844 C 190.132812 297.523438 193.097656 303.089844 195.078125 308.652344 C 196.5625 311.992188 195.574219 315.824219 195.449219 319.410156 C 195.324219 320.773438 195.449219 322.132812 195.078125 323.492188 C 193.46875 326.089844 193.71875 329.800781 196.066406 331.777344 C 197.550781 333.136719 199.28125 333.878906 201.011719 335.117188 C 204.105469 341.175781 200.023438 348.222656 199.777344 354.65625 C 199.652344 358.613281 198.910156 362.570312 199.160156 366.527344 C 199.652344 370.359375 200.640625 373.945312 200.519531 377.902344 C 200.519531 383.34375 199.035156 388.535156 197.179688 393.484375 C 196.191406 396.078125 195.574219 399.417969 192.976562 400.902344 C 188.03125 402.386719 180.484375 401.027344 178.261719 406.960938 C 177.023438 410.425781 179.746094 413.640625 181.226562 416.605469 C 183.949219 421.675781 183.949219 427.734375 183.207031 433.300781 C 182.589844 437.011719 180.734375 440.347656 180.117188 444.058594 C 179.375 447.644531 179.992188 451.726562 177.890625 454.816406 C 176.160156 456.300781 173.808594 456.671875 172.078125 458.28125 C 170.46875 459.640625 169.234375 461.371094 168.613281 463.347656 C 166.882812 469.78125 165.398438 476.210938 163.546875 482.515625 C 162.433594 486.472656 161.8125 490.429688 159.710938 494.140625 C 157.855469 498.222656 155.507812 501.808594 153.15625 505.640625 C 150.191406 510.585938 149.449219 516.273438 147.59375 521.59375 C 145.367188 525.921875 143.761719 530.742188 144.007812 535.6875 C 144.253906 538.90625 145.492188 541.871094 145.242188 545.210938 C 144.871094 552.257812 140.296875 558.566406 141.535156 565.863281 C 144.007812 582.804688 133.125 583.175781 132.507812 598.753906 C 132.261719 603.578125 130.898438 608.152344 130.28125 612.851562 C 129.785156 617.179688 130.035156 621.507812 129.910156 625.835938 C 130.035156 632.390625 128.550781 638.695312 127.066406 645.125 C 126.570312 648.339844 126.324219 651.554688 124.839844 654.523438 C 123.851562 656.996094 121.378906 658.605469 119.894531 660.707031 C 118.164062 663.304688 116.679688 666.273438 116.679688 669.363281 C 116.679688 670.722656 117.542969 671.835938 118.65625 672.703125 C 119.277344 673.074219 119.648438 673.691406 119.648438 674.433594 C 119.523438 677.277344 117.542969 679.625 117.421875 682.472656 C 117.050781 686.179688 117.542969 689.765625 116.554688 693.476562 C 116.308594 694.714844 115.566406 696.816406 116.679688 697.679688 C 116.554688 698.421875 116.925781 699.164062 117.667969 699.410156 C 118.65625 699.660156 119.398438 699.78125 120.386719 699.90625 C 123.726562 700.402344 127.066406 700.894531 130.40625 701.390625 C 138.195312 702.503906 145.863281 704.851562 153.652344 706.335938 C 168.367188 708.933594 183.082031 711.902344 197.675781 714.992188 C 210.164062 717.464844 222.28125 721.546875 234.773438 723.894531 C 238.480469 724.515625 242.316406 724.761719 246.148438 725.378906 C 251.09375 726.121094 256.042969 727.730469 261.109375 728.101562 C 268.40625 728.84375 273.847656 722.785156 279.535156 719.320312 C 283.863281 716.476562 288.070312 713.386719 292.394531 710.664062 C 300.433594 705.222656 308.472656 699.78125 316.507812 694.21875 C 319.476562 691.992188 323.0625 690.757812 325.535156 687.910156 C 327.144531 686.921875 328.011719 685.4375 328.628906 683.707031 C 333.699219 671.960938 338.769531 660.460938 344.085938 648.835938 C 345.320312 646.117188 346.433594 643.519531 347.546875 640.796875 C 348.167969 639.4375 348.535156 637.953125 349.898438 637.335938 C 357.8125 633.503906 366.34375 631.277344 374.628906 628.554688 C 387.367188 624.105469 400.101562 620.148438 412.960938 616.066406 C 425.328125 612.109375 437.445312 607.65625 449.441406 602.960938 C 452.039062 601.105469 453.398438 597.890625 455.128906 595.292969 C 460.199219 588.367188 464.898438 581.320312 469.597656 574.148438 C 472.9375 569.199219 476.644531 564.625 479.863281 559.679688 C 482.335938 555.84375 485.054688 552.011719 488.269531 548.671875 C 494.699219 543.355469 501.5 538.410156 508.671875 534.082031 C 511.890625 532.226562 515.105469 530.25 518.195312 528.023438 C 519.433594 527.035156 521.285156 525.796875 522.152344 524.1875 C 522.277344 523.695312 522.523438 523.445312 522.648438 522.953125 C 522.648438 522.828125 522.648438 522.707031 522.648438 522.582031 C 522.894531 521.964844 522.769531 521.34375 522.277344 520.851562 C 522.027344 520.601562 521.65625 520.355469 521.410156 519.984375 C 521.164062 519.613281 520.792969 519.367188 520.542969 518.996094 C 520.175781 518.5 519.679688 518.128906 519.308594 517.636719 C 518.8125 517.140625 518.320312 516.523438 517.824219 516.027344 C 517.328125 515.53125 516.710938 514.914062 516.21875 514.421875 L 516.09375 514.296875 C 515.96875 514.171875 515.847656 513.925781 515.597656 513.800781 C 515.226562 513.429688 514.855469 512.9375 514.363281 512.566406 C 514.238281 512.441406 514.238281 512.441406 514.113281 512.316406 C 514.113281 512.316406 513.992188 512.195312 513.992188 512.195312 C 513.371094 511.574219 512.753906 510.835938 512.136719 510.214844 C 512.011719 510.09375 512.011719 509.96875 511.890625 509.96875 C 511.765625 509.84375 511.765625 509.84375 511.640625 509.722656 C 509.664062 507.617188 507.808594 505.394531 505.828125 503.289062 C 505.707031 503.167969 505.707031 503.167969 505.582031 503.042969 C 505.582031 503.042969 505.457031 502.921875 505.457031 502.921875 C 503.355469 500.570312 501.253906 498.222656 499.152344 495.746094 C 497.050781 493.398438 495.070312 490.925781 492.84375 488.574219 C 492.84375 488.574219 492.722656 488.453125 492.597656 488.328125 C 492.226562 487.957031 491.855469 487.460938 491.363281 487.09375 C 489.257812 484.867188 487.40625 482.515625 485.300781 480.167969 C 484.3125 478.929688 483.199219 477.816406 482.210938 476.582031 C 481.222656 475.34375 480.109375 474.230469 478.996094 472.996094 C 476.894531 470.644531 474.914062 468.171875 472.8125 465.699219 C 471.824219 464.585938 470.835938 463.347656 469.722656 462.238281 C 468.609375 461 467.496094 459.886719 466.507812 458.652344 C 465.394531 457.414062 464.402344 456.175781 463.292969 454.816406 C 462.179688 453.582031 461.1875 452.21875 460.199219 450.984375 C 459.210938 449.746094 458.097656 448.511719 457.109375 447.273438 C 456.117188 446.039062 455.128906 444.800781 454.140625 443.5625 C 453.152344 442.328125 452.160156 441.089844 451.171875 439.855469 C 450.183594 438.617188 449.316406 437.382812 448.328125 436.144531 C 447.339844 434.910156 446.226562 433.671875 445.113281 432.433594 C 444.125 431.199219 443.011719 429.960938 442.144531 428.601562 C 441.28125 427.242188 440.167969 426.003906 439.179688 424.769531 C 438.1875 423.53125 437.324219 422.296875 436.332031 421.183594 C 435.34375 419.945312 434.230469 418.710938 433.117188 417.472656 C 432.128906 416.234375 431.015625 415 430.027344 413.640625 C 428.046875 411.289062 426.070312 409.0625 423.96875 406.839844 C 423.597656 406.46875 423.226562 406.097656 422.855469 405.601562 L 422.609375 405.355469 C 420.753906 403.375 419.023438 401.273438 417.289062 399.292969 C 415.683594 397.441406 414.074219 395.585938 412.46875 393.730469 C 411.480469 392.617188 410.488281 391.503906 409.625 390.390625 C 408.511719 389.15625 407.398438 388.042969 406.410156 386.804688 C 405.417969 385.570312 404.429688 384.457031 403.316406 383.34375 C 402.328125 382.230469 401.214844 381.117188 400.226562 380.003906 C 399.359375 379.015625 398.371094 378.148438 397.382812 377.160156 C 396.886719 376.664062 396.390625 376.046875 395.773438 375.429688 C 395.15625 374.8125 394.660156 374.316406 394.042969 373.699219 C 393.796875 373.328125 393.425781 372.957031 393.175781 372.707031 C 394.414062 372.335938 395.652344 372.089844 396.886719 371.71875 C 405.542969 369.371094 414.324219 367.265625 422.980469 364.671875 C 432.375 361.703125 441.527344 358.117188 450.925781 355.394531 C 456.613281 353.417969 462.550781 352.429688 468.359375 350.945312 C 474.542969 349.089844 480.851562 347.976562 487.15625 346.121094 C 498.90625 342.90625 510.40625 339.195312 522.027344 335.859375 C 541.566406 330.046875 561.476562 325.347656 581.261719 320.773438 C 591.773438 318.421875 602.652344 316.566406 613.289062 314.34375 C 621.449219 312.859375 629.859375 311.003906 637.894531 309.148438 C 641.605469 308.40625 645.5625 307.910156 648.777344 305.808594 C 652.859375 303.335938 655.828125 299.503906 659.289062 296.289062 C 666.460938 289.734375 673.136719 282.6875 679.816406 275.636719 C 683.773438 271.679688 687.730469 267.597656 690.820312 262.902344 C 692.058594 260.921875 694.035156 258.820312 694.035156 256.222656 C 694.285156 253.132812 693.046875 250.78125 692.550781 248.308594 Z M 688.964844 259.683594 C 686.863281 263.269531 684.019531 266.117188 681.300781 269.207031 C 673.757812 276.996094 666.214844 284.910156 658.421875 292.453125 C 650.878906 299.378906 648.777344 304.078125 637.648438 305.4375 C 622.191406 309.023438 606.734375 311.867188 591.152344 314.835938 C 576.4375 317.804688 561.847656 321.515625 547.253906 325.101562 C 526.976562 330.046875 507.191406 336.722656 487.035156 342.289062 C 468.855469 347.234375 450.183594 350.820312 432.625 357.621094 C 419.765625 362.199219 406.160156 365.535156 392.804688 369 C 391.445312 369.492188 389.21875 369.492188 389.46875 371.347656 C 389.46875 371.472656 389.589844 371.59375 389.589844 371.71875 C 389.589844 371.84375 389.589844 371.964844 389.589844 372.214844 C 389.714844 372.707031 389.960938 372.957031 390.210938 373.328125 C 390.332031 373.574219 390.582031 373.699219 390.703125 373.945312 C 391.199219 374.5625 391.695312 375.179688 392.3125 375.800781 C 393.054688 376.417969 393.671875 377.160156 394.414062 377.777344 C 395.03125 378.398438 395.652344 379.136719 396.269531 379.757812 C 396.886719 380.375 397.382812 380.871094 398 381.488281 C 398 381.613281 398.125 381.613281 398.125 381.734375 C 398.988281 382.601562 399.855469 383.589844 400.71875 384.578125 C 401.585938 385.570312 402.453125 386.433594 403.316406 387.421875 C 404.183594 388.535156 405.171875 389.648438 406.039062 390.640625 C 406.902344 391.628906 407.769531 392.617188 408.632812 393.605469 C 409.625 394.71875 410.488281 395.832031 411.480469 396.820312 C 412.46875 397.933594 413.457031 399.046875 414.445312 400.160156 C 415.4375 401.273438 416.425781 402.511719 417.539062 403.746094 C 418.652344 404.984375 419.765625 406.34375 421 407.578125 C 421.371094 407.949219 421.742188 408.320312 422.113281 408.691406 C 422.238281 408.816406 422.238281 408.941406 422.359375 408.941406 L 422.484375 409.0625 C 424.710938 411.414062 426.6875 413.886719 428.789062 416.234375 C 429.902344 417.472656 430.894531 418.832031 432.007812 420.070312 C 432.996094 421.304688 434.109375 422.417969 435.097656 423.65625 C 436.085938 424.890625 437.074219 426.128906 438.066406 427.363281 C 439.054688 428.726562 440.167969 429.960938 441.15625 431.320312 C 443.136719 433.917969 445.359375 436.269531 447.339844 438.742188 C 448.328125 439.976562 449.316406 441.339844 450.308594 442.574219 C 451.296875 443.6875 452.164062 444.925781 453.152344 446.039062 C 454.140625 447.273438 455.128906 448.511719 456.121094 449.746094 C 457.230469 450.984375 458.34375 452.34375 459.335938 453.703125 C 460.324219 455.066406 461.4375 456.300781 462.550781 457.539062 C 463.539062 458.773438 464.527344 460.011719 465.640625 461.125 C 466.753906 462.359375 467.867188 463.472656 468.855469 464.710938 C 469.84375 465.945312 470.957031 467.058594 472.070312 468.296875 C 473.183594 469.53125 474.171875 470.769531 475.164062 472.003906 C 476.152344 473.242188 477.140625 474.355469 478.253906 475.46875 C 479.242188 476.582031 480.355469 477.695312 481.34375 478.929688 C 482.335938 480.167969 483.449219 481.28125 484.4375 482.515625 C 485.550781 483.753906 486.539062 484.988281 487.652344 486.226562 C 488.765625 487.460938 489.878906 488.699219 490.992188 489.8125 C 490.992188 489.9375 491.113281 489.9375 491.238281 490.058594 C 491.363281 490.183594 491.363281 490.183594 491.484375 490.308594 C 495.691406 494.757812 499.523438 499.828125 503.851562 504.402344 C 503.851562 504.402344 503.851562 504.402344 503.976562 504.527344 C 503.976562 504.527344 504.097656 504.652344 504.097656 504.652344 C 504.097656 504.652344 504.097656 504.652344 504.222656 504.773438 C 504.46875 505.023438 504.714844 505.269531 504.964844 505.640625 C 504.964844 505.640625 504.964844 505.640625 505.085938 505.765625 C 505.953125 506.628906 506.695312 507.617188 507.5625 508.609375 C 508.425781 509.597656 509.292969 510.585938 510.15625 511.453125 C 510.15625 511.453125 510.15625 511.453125 510.28125 511.574219 C 510.28125 511.574219 510.40625 511.699219 510.40625 511.699219 C 510.40625 511.699219 510.527344 511.824219 510.652344 511.945312 C 511.269531 512.566406 511.890625 513.308594 512.507812 513.925781 C 512.507812 513.925781 512.632812 514.050781 512.632812 514.050781 C 513.125 514.542969 513.496094 515.039062 513.992188 515.53125 L 514.113281 515.65625 C 514.238281 515.78125 514.363281 516.027344 514.609375 516.152344 C 515.351562 516.894531 516.21875 517.757812 517.082031 518.625 C 517.453125 519.121094 517.949219 519.613281 518.441406 519.984375 C 518.9375 520.480469 519.433594 521.097656 519.925781 521.59375 C 519.925781 521.59375 520.050781 521.714844 520.050781 521.714844 C 520.050781 521.714844 520.175781 521.839844 520.175781 521.839844 C 520.175781 521.964844 520.050781 522.210938 520.050781 522.335938 C 519.804688 522.707031 519.554688 522.953125 519.183594 523.324219 C 513.621094 527.898438 506.820312 531.113281 500.882812 535.320312 C 495.691406 539.152344 490 542.613281 485.550781 547.3125 C 480.726562 552.507812 477.511719 558.8125 473.058594 564.378906 C 466.257812 573.28125 460.695312 582.925781 453.894531 591.828125 C 452.164062 594.425781 450.925781 597.519531 448.578125 599.621094 C 432.625 605.804688 416.300781 611.367188 399.855469 616.5625 C 394.539062 618.539062 388.972656 619.898438 383.53125 621.753906 C 375 624.96875 366.21875 627.445312 357.5625 630.410156 C 354.101562 632.019531 350.144531 632.761719 347.175781 635.359375 C 344.582031 639.191406 343.34375 644.011719 341.242188 648.09375 C 335.675781 659.839844 330.605469 671.960938 325.289062 683.832031 C 323.1875 685.808594 321.085938 687.789062 318.363281 689.023438 C 310.328125 694.21875 302.535156 699.535156 294.621094 704.976562 C 288.070312 709.304688 281.515625 713.507812 275.085938 718.085938 C 270.757812 720.929688 266.429688 725.257812 260.742188 724.265625 C 257.277344 724.019531 253.9375 722.90625 250.601562 722.414062 C 245.652344 721.300781 240.460938 721.050781 235.515625 720.1875 C 225.375 718.332031 215.480469 714.992188 205.339844 712.765625 C 185.679688 708.066406 165.648438 704.851562 145.863281 700.648438 C 138.9375 698.792969 131.890625 697.558594 124.71875 696.691406 C 122.984375 696.445312 121.253906 696.195312 119.523438 695.824219 C 119.648438 695.453125 119.648438 695.085938 119.648438 694.714844 C 120.761719 690.632812 120.636719 686.304688 120.882812 681.976562 C 121.128906 679.625 122.492188 677.773438 122.984375 675.421875 C 123.605469 673.074219 122.738281 670.601562 120.761719 669.363281 C 119.894531 668.746094 120.390625 667.507812 120.636719 666.644531 C 121.996094 661.078125 127.808594 658.359375 129.167969 652.792969 C 129.910156 650.320312 130.28125 647.722656 130.652344 645.25 C 131.765625 639.5625 133.371094 633.996094 133.371094 628.183594 C 133.621094 623.363281 133.496094 618.789062 133.742188 613.839844 C 133.992188 610.132812 135.105469 606.667969 135.597656 602.960938 C 136.21875 598.382812 136.09375 593.683594 137.949219 589.355469 C 140.175781 585.277344 143.265625 581.441406 144.503906 576.867188 C 145.984375 572.042969 145.121094 567.097656 144.875 562.152344 C 145.242188 557.699219 146.726562 553.742188 148.089844 549.414062 C 149.449219 544.839844 148.460938 540.140625 147.46875 535.566406 C 147.347656 532.96875 147.71875 530.371094 148.460938 527.773438 C 149.324219 524.929688 151.054688 522.457031 151.796875 519.613281 C 152.664062 515.65625 153.777344 511.824219 155.507812 508.113281 C 157.238281 504.652344 159.835938 501.3125 161.441406 497.726562 C 163.917969 493.273438 165.523438 488.574219 166.636719 483.628906 C 168.367188 477.324219 170.222656 470.894531 171.707031 464.460938 C 173.3125 457.539062 180.609375 459.515625 182.339844 453.085938 C 183.703125 448.511719 182.960938 443.5625 185.0625 439.238281 C 187.660156 432.433594 188.03125 424.769531 186.050781 417.71875 C 185.0625 414.753906 183.082031 412.277344 181.96875 409.433594 C 179.867188 401.644531 193.71875 405.726562 196.808594 401.398438 C 198.664062 399.296875 199.53125 396.699219 200.394531 394.101562 C 202.992188 387.546875 204.601562 380.5 203.980469 373.328125 C 203.734375 370.730469 203.117188 368.257812 202.746094 365.660156 C 202.496094 362.570312 203.117188 359.230469 203.238281 356.015625 C 203.117188 348.472656 207.9375 340.558594 204.476562 333.136719 C 203.488281 331.285156 201.136719 330.664062 199.53125 329.429688 C 198.664062 328.6875 197.796875 327.945312 197.550781 326.707031 C 197.550781 325.964844 197.675781 325.101562 198.046875 324.480469 C 198.167969 324.359375 198.167969 324.359375 198.292969 324.234375 C 199.40625 323.492188 199.40625 322.503906 198.910156 321.886719 C 199.035156 320.648438 198.910156 319.289062 199.035156 318.421875 C 199.28125 315.453125 199.777344 312.363281 199.28125 309.394531 C 198.167969 304.078125 194.582031 299.132812 194.460938 293.566406 C 194.582031 290.722656 194.707031 287.878906 194.707031 285.160156 C 194.582031 284.664062 194.210938 284.167969 194.089844 283.675781 C 194.089844 283.058594 193.839844 282.4375 193.71875 281.695312 C 193.59375 280.582031 194.210938 279.46875 194.460938 278.480469 C 195.078125 275.390625 197.054688 272.792969 198.167969 269.824219 C 199.777344 265.125 200.394531 260.054688 200.644531 254.988281 C 200.394531 250.164062 200.148438 245.710938 201.136719 240.890625 C 201.632812 238.292969 203.117188 235.570312 203.363281 232.851562 C 203.734375 230.007812 202.867188 227.164062 202.496094 224.320312 C 202.621094 217.394531 204.476562 210.59375 204.351562 203.667969 C 204.476562 200.824219 203.980469 197.980469 203.859375 195.136719 C 204.351562 193.898438 205.21875 193.15625 205.710938 191.796875 C 208.308594 190.191406 211.277344 188.953125 214.246094 187.964844 C 218.945312 184.75 223.148438 180.171875 228.960938 178.9375 C 232.546875 178.195312 235.515625 180.421875 238.605469 181.65625 C 239.964844 182.027344 241.449219 181.90625 242.933594 182.152344 C 245.035156 182.523438 246.890625 183.511719 248.871094 184.378906 C 251.09375 185.613281 253.195312 187.34375 255.050781 189.199219 C 255.917969 190.191406 256.535156 191.550781 257.523438 192.414062 C 259.378906 193.777344 262.101562 193.777344 263.707031 195.628906 C 265.066406 197.484375 264.078125 199.957031 264.328125 202.0625 C 264.449219 207.253906 268.53125 211.089844 272.242188 214.054688 C 278.050781 218.136719 286.214844 214.304688 291.902344 218.753906 C 296.355469 222.960938 299.941406 227.78125 304.390625 231.984375 C 305.628906 233.347656 306.863281 234.832031 308.597656 235.449219 C 311.933594 236.808594 315.644531 236.3125 319.105469 236.933594 C 321.085938 237.179688 322.074219 239.035156 323.558594 240.148438 C 325.535156 241.753906 328.257812 242.125 330.730469 242.746094 C 336.914062 244.722656 343.34375 244.96875 349.898438 245.21875 C 368.816406 245.339844 363.128906 249.917969 380.6875 239.160156 C 396.144531 230.007812 411.109375 220.113281 426.566406 210.964844 C 455.378906 192.785156 482.707031 172.628906 510.898438 153.585938 C 531.054688 139.488281 552.078125 126.382812 573.59375 114.265625 C 581.507812 109.6875 590.039062 106.101562 597.953125 101.652344 C 602.777344 98.683594 607.601562 95.714844 612.300781 92.625 C 616.378906 90.152344 619.59375 86.566406 623.675781 83.96875 C 625.40625 90.644531 627.632812 97.324219 630.105469 103.753906 C 632.085938 109.8125 633.445312 116.117188 635.671875 122.179688 C 640.246094 135.78125 645.933594 149.257812 650.136719 162.984375 C 653.105469 171.515625 656.445312 180.050781 659.042969 188.828125 C 661.636719 196.125 662.75 203.792969 665.347656 211.210938 C 665.71875 212.078125 665.84375 213.066406 665.964844 214.054688 C 663.988281 214.675781 661.761719 215.414062 659.660156 215.785156 C 658.300781 216.15625 655.578125 215.910156 655.578125 218.011719 C 656.074219 220.238281 657.1875 222.339844 657.679688 224.691406 C 658.792969 229.019531 660.15625 233.347656 662.132812 237.425781 C 663 239.160156 664.113281 241.011719 665.964844 241.878906 C 668.070312 242.621094 670.046875 240.765625 672.027344 240.269531 C 676.476562 238.664062 680.558594 236.4375 685.132812 235.078125 C 685.628906 237.675781 687.113281 239.652344 687.855469 242.125 C 688.96875 244.597656 689.585938 247.195312 690.078125 249.792969 C 690.574219 251.152344 691.070312 252.511719 691.191406 253.996094 C 691.316406 256.59375 690.078125 258.203125 688.964844 259.683594 Z M 688.964844 259.683594 "/></g></g></svg>