<svg xmlns="http://www.w3.org/2000/svg" xmlns:xlink="http://www.w3.org/1999/xlink" width="1080" zoomAndPan="magnify" viewBox="0 0 810 809.999993" height="1080" preserveAspectRatio="xMidYMid meet" version="1.2"><defs><linearGradient x1="0" gradientTransform="matrix(0.75,0,0,0.75,0.0000035,0.00002)" y1="0" x2="1079.999955" gradientUnits="userSpaceOnUse" y2="1079.999955" id="876d1ff05a"><stop style="stop-color:#12395c;stop-opacity:1;" offset="0"/><stop style="stop-color:#12395c;stop-opacity:1;" offset="0.0078125"/><stop style="stop-color:#12385b;stop-opacity:1;" offset="0.015625"/><stop style="stop-color:#12385a;stop-opacity:1;" offset="0.0234375"/><stop style="stop-color:#12385a;stop-opacity:1;" offset="0.03125"/><stop style="stop-color:#113759;stop-opacity:1;" offset="0.0390625"/><stop style="stop-color:#113758;stop-opacity:1;" offset="0.046875"/><stop style="stop-color:#113657;stop-opacity:1;" offset="0.0546875"/><stop style="stop-color:#113657;stop-opacity:1;" offset="0.0625"/><stop style="stop-color:#113556;stop-opacity:1;" offset="0.0703125"/><stop style="stop-color:#113555;stop-opacity:1;" offset="0.078125"/><stop style="stop-color:#113455;stop-opacity:1;" offset="0.0859375"/><stop style="stop-color:#103454;stop-opacity:1;" offset="0.09375"/><stop style="stop-color:#103453;stop-opacity:1;" offset="0.101562"/><stop style="stop-color:#103352;stop-opacity:1;" offset="0.109375"/><stop style="stop-color:#103352;stop-opacity:1;" offset="0.117188"/><stop style="stop-color:#103251;stop-opacity:1;" offset="0.125"/><stop style="stop-color:#103250;stop-opacity:1;" offset="0.132812"/><stop style="stop-color:#10314f;stop-opacity:1;" offset="0.140625"/><stop style="stop-color:#0f314f;stop-opacity:1;" offset="0.148437"/><stop style="stop-color:#0f304e;stop-opacity:1;" offset="0.15625"/><stop style="stop-color:#0f304d;stop-opacity:1;" offset="0.164062"/><stop style="stop-color:#0f304d;stop-opacity:1;" offset="0.171875"/><stop style="stop-color:#0f2f4c;stop-opacity:1;" offset="0.179687"/><stop style="stop-color:#0f2f4b;stop-opacity:1;" offset="0.1875"/><stop style="stop-color:#0f2e4a;stop-opacity:1;" offset="0.195312"/><stop style="stop-color:#0e2e4a;stop-opacity:1;" offset="0.203125"/><stop style="stop-color:#0e2d49;stop-opacity:1;" offset="0.210938"/><stop style="stop-color:#0e2d48;stop-opacity:1;" offset="0.21875"/><stop style="stop-color:#0e2c48;stop-opacity:1;" offset="0.226562"/><stop style="stop-color:#0e2c47;stop-opacity:1;" offset="0.234375"/><stop style="stop-color:#0e2c46;stop-opacity:1;" offset="0.242188"/><stop style="stop-color:#0e2b45;stop-opacity:1;" offset="0.25"/><stop style="stop-color:#0e2b45;stop-opacity:1;" offset="0.257812"/><stop style="stop-color:#0d2a44;stop-opacity:1;" offset="0.265625"/><stop style="stop-color:#0d2a43;stop-opacity:1;" offset="0.273437"/><stop style="stop-color:#0d2943;stop-opacity:1;" offset="0.28125"/><stop style="stop-color:#0d2942;stop-opacity:1;" offset="0.289062"/><stop style="stop-color:#0d2841;stop-opacity:1;" offset="0.296875"/><stop style="stop-color:#0d2840;stop-opacity:1;" offset="0.304687"/><stop style="stop-color:#0d2740;stop-opacity:1;" offset="0.3125"/><stop style="stop-color:#0c273f;stop-opacity:1;" offset="0.320312"/><stop style="stop-color:#0c273e;stop-opacity:1;" offset="0.328125"/><stop style="stop-color:#0c263d;stop-opacity:1;" offset="0.335937"/><stop style="stop-color:#0c263d;stop-opacity:1;" offset="0.34375"/><stop style="stop-color:#0c253c;stop-opacity:1;" offset="0.351562"/><stop style="stop-color:#0c253b;stop-opacity:1;" offset="0.359375"/><stop style="stop-color:#0c243b;stop-opacity:1;" offset="0.367187"/><stop style="stop-color:#0b243a;stop-opacity:1;" offset="0.375"/><stop style="stop-color:#0b2339;stop-opacity:1;" offset="0.382812"/><stop style="stop-color:#0b2338;stop-opacity:1;" offset="0.390625"/><stop style="stop-color:#0b2338;stop-opacity:1;" offset="0.398438"/><stop style="stop-color:#0b2237;stop-opacity:1;" offset="0.40625"/><stop style="stop-color:#0b2236;stop-opacity:1;" offset="0.414062"/><stop style="stop-color:#0b2136;stop-opacity:1;" offset="0.421875"/><stop style="stop-color:#0a2135;stop-opacity:1;" offset="0.429688"/><stop style="stop-color:#0a2034;stop-opacity:1;" offset="0.4375"/><stop style="stop-color:#0a2033;stop-opacity:1;" offset="0.445312"/><stop style="stop-color:#0a1f33;stop-opacity:1;" offset="0.453125"/><stop style="stop-color:#0a1f32;stop-opacity:1;" offset="0.460938"/><stop style="stop-color:#0a1f31;stop-opacity:1;" offset="0.46875"/><stop style="stop-color:#0a1e31;stop-opacity:1;" offset="0.476562"/><stop style="stop-color:#091e30;stop-opacity:1;" offset="0.484375"/><stop style="stop-color:#091d2f;stop-opacity:1;" offset="0.492188"/><stop style="stop-color:#091d2e;stop-opacity:1;" offset="0.5"/><stop style="stop-color:#091c2e;stop-opacity:1;" offset="0.507812"/><stop style="stop-color:#091c2d;stop-opacity:1;" offset="0.515625"/><stop style="stop-color:#091b2c;stop-opacity:1;" offset="0.523437"/><stop style="stop-color:#091b2c;stop-opacity:1;" offset="0.53125"/><stop style="stop-color:#081b2b;stop-opacity:1;" offset="0.539062"/><stop style="stop-color:#081a2a;stop-opacity:1;" offset="0.546875"/><stop style="stop-color:#081a29;stop-opacity:1;" offset="0.554687"/><stop style="stop-color:#081929;stop-opacity:1;" offset="0.5625"/><stop style="stop-color:#081928;stop-opacity:1;" offset="0.570312"/><stop style="stop-color:#081827;stop-opacity:1;" offset="0.578125"/><stop style="stop-color:#081826;stop-opacity:1;" offset="0.585937"/><stop style="stop-color:#071726;stop-opacity:1;" offset="0.59375"/><stop style="stop-color:#071725;stop-opacity:1;" offset="0.601562"/><stop style="stop-color:#071724;stop-opacity:1;" offset="0.609375"/><stop style="stop-color:#071624;stop-opacity:1;" offset="0.617187"/><stop style="stop-color:#071623;stop-opacity:1;" offset="0.625"/><stop style="stop-color:#071522;stop-opacity:1;" offset="0.632812"/><stop style="stop-color:#071521;stop-opacity:1;" offset="0.640625"/><stop style="stop-color:#061421;stop-opacity:1;" offset="0.648437"/><stop style="stop-color:#061420;stop-opacity:1;" offset="0.65625"/><stop style="stop-color:#06131f;stop-opacity:1;" offset="0.664062"/><stop style="stop-color:#06131f;stop-opacity:1;" offset="0.671875"/><stop style="stop-color:#06131e;stop-opacity:1;" offset="0.679687"/><stop style="stop-color:#06121d;stop-opacity:1;" offset="0.6875"/><stop style="stop-color:#06121c;stop-opacity:1;" offset="0.695312"/><stop style="stop-color:#05111c;stop-opacity:1;" offset="0.703125"/><stop style="stop-color:#05111b;stop-opacity:1;" offset="0.710937"/><stop style="stop-color:#05101a;stop-opacity:1;" offset="0.71875"/><stop style="stop-color:#05101a;stop-opacity:1;" offset="0.726562"/><stop style="stop-color:#050f19;stop-opacity:1;" offset="0.734375"/><stop style="stop-color:#050f18;stop-opacity:1;" offset="0.742187"/><stop style="stop-color:#050f17;stop-opacity:1;" offset="0.75"/><stop style="stop-color:#040e17;stop-opacity:1;" offset="0.757812"/><stop style="stop-color:#040e16;stop-opacity:1;" offset="0.765625"/><stop style="stop-color:#040d15;stop-opacity:1;" offset="0.773438"/><stop style="stop-color:#040d14;stop-opacity:1;" offset="0.78125"/><stop style="stop-color:#040c14;stop-opacity:1;" offset="0.789062"/><stop style="stop-color:#040c13;stop-opacity:1;" offset="0.796875"/><stop style="stop-color:#040b12;stop-opacity:1;" offset="0.804688"/><stop style="stop-color:#030b12;stop-opacity:1;" offset="0.8125"/><stop style="stop-color:#030a11;stop-opacity:1;" offset="0.820312"/><stop style="stop-color:#030a10;stop-opacity:1;" offset="0.828125"/><stop style="stop-color:#030a0f;stop-opacity:1;" offset="0.835938"/><stop style="stop-color:#03090f;stop-opacity:1;" offset="0.84375"/><stop style="stop-color:#03090e;stop-opacity:1;" offset="0.851562"/><stop style="stop-color:#03080d;stop-opacity:1;" offset="0.859375"/><stop style="stop-color:#02080d;stop-opacity:1;" offset="0.867188"/><stop style="stop-color:#02070c;stop-opacity:1;" offset="0.875"/><stop style="stop-color:#02070b;stop-opacity:1;" offset="0.882812"/><stop style="stop-color:#02060a;stop-opacity:1;" offset="0.890625"/><stop style="stop-color:#02060a;stop-opacity:1;" offset="0.898438"/><stop style="stop-color:#020609;stop-opacity:1;" offset="0.90625"/><stop style="stop-color:#020508;stop-opacity:1;" offset="0.914062"/><stop style="stop-color:#010508;stop-opacity:1;" offset="0.921875"/><stop style="stop-color:#010407;stop-opacity:1;" offset="0.929688"/><stop style="stop-color:#010406;stop-opacity:1;" offset="0.9375"/><stop style="stop-color:#010305;stop-opacity:1;" offset="0.945312"/><stop style="stop-color:#010305;stop-opacity:1;" offset="0.953125"/><stop style="stop-color:#010204;stop-opacity:1;" offset="0.960938"/><stop style="stop-color:#010203;stop-opacity:1;" offset="0.96875"/><stop style="stop-color:#000203;stop-opacity:1;" offset="0.976562"/><stop style="stop-color:#000102;stop-opacity:1;" offset="0.984375"/><stop style="stop-color:#000101;stop-opacity:1;" offset="0.992188"/><stop style="stop-color:#000000;stop-opacity:1;" offset="1"/></linearGradient><clipPath id="2ae2018fed"><path d="M 81 90.316406 L 727 90.316406 L 727 719.566406 L 81 719.566406 Z M 81 90.316406 "/></clipPath></defs><g id="8122505104"><rect x="0" width="810" y="0" height="809.999993" style="fill:#ffffff;fill-opacity:1;stroke:none;"/><rect x="0" width="810" y="0" height="809.999993" style="fill:url(#linear0);stroke:none;"/><g clip-rule="nonzero" clip-path="url(#2ae2018fed)"><path style=" stroke:none;fill-rule:nonzero;fill:#ffffff;fill-opacity:1;" d="M 724.765625 701.160156 C 720.230469 692.089844 720.230469 681.6875 716.496094 672.617188 C 715.429688 670.484375 714.097656 669.148438 712.761719 667.28125 C 711.429688 664.617188 710.09375 661.679688 710.363281 658.746094 C 716.765625 652.078125 715.164062 641.941406 713.296875 633.671875 C 707.960938 623.535156 695.15625 620.335938 687.6875 611.535156 C 678.085938 604.597656 683.953125 592.863281 683.421875 583.257812 C 681.285156 570.988281 666.082031 568.054688 659.148438 558.984375 C 651.410156 549.914062 644.476562 540.046875 638.609375 529.644531 C 634.605469 521.640625 633.539062 513.105469 629.804688 505.101562 C 625.804688 495.5 619.402344 486.695312 617.535156 476.027344 C 616.199219 466.691406 616.46875 456.289062 615.933594 446.6875 C 615.402344 440.816406 613.535156 435.75 613.535156 429.878906 C 613.265625 417.609375 619.136719 405.605469 615.667969 393.335938 C 613.535156 382.667969 609.800781 382.398438 599.929688 384 C 597.796875 384 595.660156 384.535156 593.792969 384.265625 C 591.128906 383.46875 588.992188 381.332031 586.59375 380 C 581.792969 377.332031 576.722656 374.929688 571.121094 376 C 567.386719 376.796875 564.984375 380.265625 562.050781 382.667969 C 558.585938 385.066406 554.050781 382.933594 550.046875 383.46875 C 545.246094 383.46875 539.113281 384.800781 537.511719 390.136719 C 535.910156 393.335938 539.378906 398.136719 535.644531 400.003906 C 532.445312 401.339844 529.242188 402.140625 525.773438 402.40625 C 523.640625 402.40625 520.707031 403.472656 519.371094 401.339844 C 516.4375 397.335938 523.640625 395.203125 526.042969 393.070312 C 532.175781 389.070312 529.507812 379.734375 523.105469 377.597656 C 518.304688 375.730469 514.304688 379.464844 511.105469 382.667969 C 509.238281 383.734375 507.101562 384 504.96875 384.265625 C 498.832031 385.867188 491.898438 381.867188 485.496094 384 C 484.164062 384.265625 483.097656 385.335938 482.027344 386.132812 C 481.226562 386.402344 480.429688 386.402344 479.894531 386.667969 C 479.628906 386.667969 479.09375 386.402344 478.828125 386.667969 C 478.292969 386.667969 478.027344 386.667969 477.492188 386.667969 C 476.425781 384.535156 477.492188 382.667969 479.359375 381.601562 C 484.695312 377.066406 491.097656 373.332031 496.433594 368.796875 C 503.636719 363.195312 507.902344 355.191406 514.039062 348.523438 C 520.972656 342.386719 526.84375 334.652344 534.042969 328.25 C 550.582031 315.980469 571.65625 311.714844 591.925781 309.578125 C 603.664062 308.777344 610.597656 319.714844 618.867188 326.117188 C 620.734375 327.71875 622.871094 329.050781 625.269531 330.386719 C 627.40625 331.453125 629.273438 333.320312 631.9375 333.320312 C 636.742188 333.050781 639.675781 325.851562 640.742188 321.847656 C 641.542969 318.382812 642.074219 314.648438 640.476562 311.179688 C 639.40625 309.3125 638.074219 307.445312 636.742188 305.578125 C 632.738281 298.910156 631.140625 290.90625 626.871094 284.238281 C 620.46875 275.4375 617.269531 265.300781 617.269531 254.363281 C 616.734375 250.09375 615.132812 245.828125 612.734375 242.09375 C 608.730469 236.757812 602.597656 233.824219 598.597656 228.488281 C 590.328125 217.285156 581.792969 204.214844 582.589844 189.542969 C 585.792969 177.808594 585.527344 165.804688 584.191406 153.800781 C 583.660156 146.066406 584.992188 141.53125 576.722656 138.0625 C 558.851562 127.390625 540.980469 117.523438 522.308594 107.921875 C 512.4375 103.917969 503.636719 95.917969 492.699219 94.851562 C 481.226562 92.714844 469.757812 92.714844 458.289062 91.914062 C 434.28125 90.316406 410.273438 90.316406 386.265625 92.714844 C 378.265625 93.78125 369.996094 94.316406 361.992188 95.382812 C 354.523438 96.71875 349.722656 102.851562 344.121094 107.386719 C 338.519531 111.65625 333.453125 115.921875 326.785156 119.125 C 319.582031 122.324219 311.046875 121.523438 303.84375 125.257812 C 279.035156 137.261719 272.632812 166.335938 263.296875 189.8125 C 257.695312 207.414062 246.761719 222.621094 237.957031 238.890625 C 232.089844 249.292969 231.824219 261.296875 227.554688 272.234375 C 223.820312 282.636719 218.21875 291.707031 212.617188 301.308594 C 204.882812 314.914062 197.945312 328.785156 192.878906 343.722656 C 188.078125 355.726562 181.40625 366.929688 173.671875 377.597656 C 164.601562 389.601562 152.332031 399.203125 143.796875 411.742188 C 136.863281 420.277344 131.527344 429.347656 124.589844 438.148438 C 117.65625 451.21875 108.585938 464.023438 96.316406 472.558594 C 90.179688 477.09375 82.980469 481.628906 81.378906 489.632812 C 81.378906 493.632812 84.847656 497.367188 88.847656 497.902344 C 96.316406 498.699219 104.050781 497.902344 111.519531 499.234375 C 129.925781 501.902344 147.796875 509.636719 166.46875 510.972656 C 184.875 513.636719 203.546875 514.171875 222.21875 516.039062 C 234.488281 517.371094 246.761719 518.972656 259.296875 520.308594 C 290.238281 522.972656 320.648438 528.574219 351.324219 532.84375 C 364.128906 534.175781 376.929688 535.511719 389.734375 537.910156 C 390.535156 538.179688 391.601562 538.445312 392.667969 538.445312 C 393.738281 540.046875 393.46875 542.445312 393.738281 544.3125 C 393.738281 549.117188 397.203125 552.316406 400.136719 555.785156 C 402.804688 558.984375 405.207031 562.1875 406.808594 565.921875 C 412.410156 576.054688 415.074219 587.257812 419.878906 597.394531 C 424.144531 604.066406 426.8125 611.535156 428.945312 619.269531 C 430.28125 624.335938 431.613281 629.671875 431.882812 635.007812 C 431.347656 643.277344 429.214844 651.546875 431.082031 659.8125 C 434.015625 668.882812 438.816406 677.152344 442.550781 685.957031 C 446.285156 695.023438 456.6875 697.160156 462.824219 704.359375 C 464.691406 706.226562 466.824219 708.363281 467.089844 711.027344 C 467.359375 712.628906 467.089844 714.496094 467.890625 716.097656 C 468.957031 717.964844 471.09375 718.496094 472.960938 718.496094 C 478.027344 718.496094 483.097656 717.699219 487.898438 717.964844 C 505.769531 718.765625 523.640625 719.566406 541.78125 719.566406 C 548.714844 719.566406 555.382812 719.296875 562.585938 718.765625 C 607.933594 718.230469 653.277344 717.164062 698.890625 716.898438 C 707.160156 716.363281 715.164062 715.832031 723.433594 715.296875 C 728.5 713.964844 726.898438 705.425781 724.765625 701.160156 Z M 650.878906 710.761719 C 613.265625 711.5625 575.921875 712.097656 538.3125 713.164062 C 516.707031 713.695312 494.832031 710.761719 473.226562 712.097656 C 472.160156 700.09375 459.890625 694.492188 451.351562 688.089844 C 447.617188 684.355469 446.285156 679.019531 444.152344 674.484375 C 441.484375 669.417969 439.082031 664.082031 437.214844 658.746094 C 435.617188 651.011719 438.015625 643.277344 438.28125 635.007812 C 437.214844 619.800781 431.878906 605.398438 424.410156 592.328125 C 418.011719 576.589844 413.476562 559.785156 400.9375 547.25 C 399.605469 545.648438 399.871094 543.246094 399.605469 541.378906 C 399.871094 536.3125 396.671875 531.777344 391.601562 531.511719 C 378.265625 528.574219 364.660156 527.507812 351.058594 525.910156 C 334.785156 523.773438 319.046875 520.574219 302.777344 518.707031 C 277.703125 514.707031 252.363281 512.839844 227.289062 509.636719 C 209.683594 507.503906 192.078125 507.238281 174.472656 505.101562 C 165.402344 504.035156 156.332031 502.96875 147.53125 501.101562 C 135.792969 497.367188 124.324219 494.433594 112.054688 492.566406 C 105.386719 491.5 98.71875 491.5 92.046875 491.5 C 90.980469 491.230469 88.847656 491.5 88.046875 489.898438 C 91.78125 482.164062 100.050781 478.960938 106.1875 473.359375 C 116.589844 464.558594 124.058594 453.355469 130.726562 441.351562 C 140.863281 428.28125 150.199219 413.609375 161.402344 401.074219 C 169.9375 393.070312 178.207031 384.265625 184.34375 374.398438 C 195.277344 359.195312 200.613281 341.589844 208.082031 324.515625 C 212.082031 316.78125 216.085938 309.3125 220.351562 301.84375 C 224.621094 295.175781 229.15625 287.707031 231.824219 280.238281 C 237.15625 269.835938 237.691406 257.832031 241.957031 246.894531 C 250.496094 227.15625 264.097656 209.816406 270.234375 189.011719 C 278.769531 167.671875 284.371094 140.996094 307.3125 130.328125 C 313.980469 127.390625 321.714844 127.660156 328.652344 124.726562 C 339.855469 119.65625 348.65625 110.855469 358.257812 103.386719 C 364.394531 99.652344 371.863281 100.984375 378.53125 99.917969 C 394.003906 97.515625 409.472656 97.515625 424.945312 96.984375 C 439.617188 96.71875 454.554688 98.050781 468.957031 98.851562 C 478.828125 99.382812 488.964844 99.652344 498.566406 102.585938 C 502.566406 104.71875 506.300781 106.851562 510.304688 108.988281 C 526.308594 117.257812 542.046875 125.257812 557.515625 134.328125 C 562.320312 137.527344 567.652344 139.929688 572.457031 143.128906 C 573.789062 143.929688 575.121094 144.464844 576.457031 145.265625 C 576.722656 146.332031 576.722656 147.664062 576.722656 148.730469 C 576.988281 157.800781 578.589844 166.871094 577.789062 175.941406 C 577.523438 179.140625 576.722656 182.609375 575.921875 185.542969 C 574.324219 193.546875 576.722656 202.082031 579.65625 209.550781 C 583.660156 218.617188 588.992188 227.15625 595.660156 234.625 C 599.394531 238.089844 603.664062 240.757812 606.863281 244.761719 C 612.199219 251.429688 609.800781 260.230469 611.933594 267.96875 C 613.535156 274.902344 617 281.039062 620.734375 286.90625 C 624.203125 292.242188 626.335938 299.441406 629.003906 305.3125 C 630.339844 308.246094 632.738281 310.914062 634.339844 313.847656 C 634.875 317.847656 633.273438 321.847656 631.140625 325.316406 C 617.269531 318.648438 609 300.777344 591.660156 301.84375 C 570.589844 303.976562 547.914062 308.511719 530.578125 321.316406 C 522.574219 328.25 515.90625 337.054688 507.902344 344.253906 C 502.035156 351.191406 497.5 358.925781 490.03125 364.527344 C 483.894531 369.863281 475.09375 373.332031 470.824219 380.800781 C 468.691406 387.203125 473.226562 395.46875 480.429688 392.269531 C 482.828125 392.804688 485.496094 391.46875 487.363281 389.867188 C 491.632812 388.800781 495.898438 390.667969 499.902344 390.9375 C 503.367188 390.9375 506.835938 390.402344 510.035156 389.601562 C 513.503906 388.800781 516.171875 386.402344 518.839844 384 C 519.640625 382.933594 520.972656 382.933594 521.773438 384 C 522.308594 384.800781 523.109375 386.132812 522.039062 386.933594 C 519.375 388.800781 516.4375 390.402344 514.039062 392.804688 C 510.304688 396.539062 511.105469 402.941406 515.105469 406.40625 C 520.441406 411.207031 528.976562 408.542969 535.378906 406.941406 C 541.511719 405.605469 545.515625 399.472656 543.648438 393.335938 C 543.648438 392.804688 543.648438 392.003906 543.914062 391.46875 C 547.382812 388.535156 552.449219 390.136719 556.71875 390.402344 C 559.117188 390.402344 561.785156 390.136719 563.917969 389.070312 C 567.121094 387.46875 568.988281 384 572.1875 382.398438 C 580.722656 381.066406 586.058594 390.136719 594.0625 390.9375 C 598.597656 390.9375 602.863281 390.402344 607.132812 389.867188 C 613 401.339844 607.398438 413.875 606.597656 425.878906 C 606.066406 432.28125 607.664062 438.683594 608.734375 445.085938 C 609.53125 452.820312 609.265625 460.554688 609.800781 468.558594 C 609.800781 483.230469 617.535156 495.5 623.402344 508.304688 C 627.136719 516.839844 628.472656 526.175781 632.738281 534.445312 C 639.40625 545.648438 646.609375 556.585938 655.679688 565.921875 C 661.015625 572.054688 669.015625 574.988281 674.617188 581.125 C 678.621094 586.726562 674.085938 593.929688 674.886719 600.0625 C 674.351562 607.265625 678.085938 613.402344 683.421875 617.667969 C 688.753906 623.269531 695.425781 627.273438 701.558594 631.539062 C 703.425781 633.140625 705.5625 634.742188 706.359375 636.875 C 707.160156 640.875 707.429688 645.144531 707.160156 649.410156 C 707.160156 652.878906 703.695312 654.480469 702.894531 657.679688 C 701.558594 664.617188 705.828125 670.75 709.5625 676.085938 C 712.230469 681.953125 712.230469 688.890625 714.363281 695.023438 C 715.429688 699.824219 718.632812 704.09375 719.164062 709.160156 C 696.757812 711.027344 673.816406 710.496094 650.878906 710.761719 Z M 650.878906 710.761719 "/></g><path style=" stroke:none;fill-rule:nonzero;fill:#ffffff;fill-opacity:1;" d="M 693.558594 346.390625 C 690.355469 343.988281 686.886719 341.054688 682.621094 340.519531 C 673.285156 339.453125 668.75 349.589844 667.148438 357.328125 C 665.550781 362.394531 667.949219 365.0625 672.21875 367.460938 C 677.820312 371.996094 684.753906 367.730469 691.15625 369.328125 C 694.890625 370.128906 697.558594 373.0625 700.492188 375.199219 C 704.492188 377.867188 709.5625 378.132812 714.097656 378.664062 C 721.296875 377.867188 719.699219 368.53125 715.964844 364.527344 C 711.429688 360.527344 707.960938 355.191406 703.960938 350.925781 C 701.027344 347.988281 697.292969 347.457031 693.558594 346.390625 Z M 709.828125 367.730469 C 710.894531 368.53125 711.960938 370.128906 712.230469 371.730469 C 706.09375 371.730469 702.09375 367.996094 697.292969 364.796875 C 693.824219 362.929688 689.824219 362.128906 685.820312 362.394531 C 681.019531 363.460938 677.019531 363.996094 673.285156 360.261719 C 675.683594 348.789062 679.417969 342.386719 690.089844 352.257812 C 693.558594 354.125 698.625 353.589844 701.027344 357.59375 C 703.691406 361.0625 706.628906 364.527344 709.828125 367.730469 Z M 709.828125 367.730469 "/><path style=" stroke:none;fill-rule:nonzero;fill:#ffffff;fill-opacity:1;" d="M 624.203125 144.730469 C 615.933594 145.53125 609 150.597656 602.597656 155.402344 C 597.527344 157.800781 588.460938 159.402344 591.128906 167.136719 C 595.660156 181.808594 613.265625 184.210938 625.269531 177.007812 C 627.136719 177.007812 628.738281 178.609375 630.871094 178.339844 C 634.605469 177.808594 638.609375 177.007812 641.542969 174.339844 C 641.007812 176.472656 639.941406 178.339844 638.875 180.207031 C 638.074219 182.609375 635.941406 183.675781 633.273438 183.140625 C 626.871094 181.007812 615.933594 182.074219 617.800781 191.144531 C 608.730469 195.144531 602.332031 183.941406 593.792969 185.007812 C 589.261719 185.542969 588.191406 190.34375 588.460938 194.078125 C 588.460938 200.480469 590.59375 206.617188 594.59375 211.683594 C 597.261719 219.953125 603.929688 225.820312 611.132812 230.621094 C 617.800781 234.890625 621.804688 242.625 622.601562 250.363281 C 623.402344 255.429688 623.136719 261.03125 626.070312 265.300781 C 628.203125 268.5 631.140625 270.902344 632.738281 274.367188 C 637.007812 286.371094 634.605469 297.042969 649.8125 301.308594 C 669.015625 303.976562 692.222656 275.96875 701.558594 261.03125 C 709.027344 251.429688 713.03125 239.691406 713.296875 227.421875 C 713.296875 218.085938 709.292969 208.484375 699.691406 206.082031 C 699.425781 206.082031 698.359375 205.546875 698.089844 205.015625 C 693.289062 200.214844 691.691406 193.277344 688.222656 187.410156 C 681.554688 176.742188 675.152344 165.269531 665.546875 156.734375 C 654.613281 147.132812 638.339844 143.398438 624.203125 144.730469 Z M 673.816406 179.675781 C 677.550781 185.277344 681.285156 190.878906 684.222656 197.28125 C 686.621094 202.082031 688.488281 207.148438 692.488281 210.882812 C 695.15625 213.285156 699.425781 213.550781 702.09375 216.21875 C 709.5625 225.554688 704.761719 243.960938 698.625 253.296875 C 693.023438 262.097656 687.421875 270.632812 679.953125 277.835938 C 672.21875 285.570312 663.683594 294.640625 652.210938 295.976562 C 639.40625 294.90625 642.34375 281.039062 638.074219 272.234375 C 636.207031 268.5 633.273438 265.566406 630.871094 262.097656 C 628.472656 257.5625 629.273438 251.695312 627.9375 246.628906 C 626.070312 232.222656 614.066406 226.621094 604.464844 217.820312 C 603.128906 216.484375 602.597656 215.152344 601.796875 213.285156 C 600.730469 209.550781 598.0625 206.882812 596.195312 203.414062 C 594.863281 199.945312 594.328125 195.945312 594.59375 192.210938 C 595.394531 192.210938 596.195312 192.210938 596.730469 192.746094 C 600.996094 195.414062 605.265625 197.8125 610.066406 198.878906 C 616.203125 199.679688 625.539062 197.8125 623.671875 189.8125 C 625.804688 188.742188 628.203125 189.542969 630.339844 190.078125 C 634.074219 190.878906 638.339844 190.609375 641.273438 187.945312 C 644.742188 183.941406 653.546875 168.738281 644.742188 166.335938 C 642.875 165.003906 639.40625 165.269531 638.074219 167.402344 C 637.273438 169.269531 635.671875 170.871094 633.804688 171.136719 C 632.472656 171.40625 631.40625 171.9375 630.070312 171.9375 C 628.472656 171.40625 626.871094 170.339844 625.269531 170.339844 C 623.402344 170.339844 621.535156 171.40625 619.9375 172.207031 C 616.46875 173.804688 613 174.339844 609.265625 174.339844 C 609.265625 174.339844 609.53125 174.339844 609.53125 174.339844 C 603.929688 174.605469 598.328125 170.070312 596.996094 164.738281 C 604.996094 162.601562 610.597656 156.734375 617.800781 153 C 629.539062 148.464844 642.875 151.667969 653.8125 157.535156 C 662.347656 163.136719 668.484375 171.40625 673.816406 179.675781 Z M 673.816406 179.675781 "/><path style=" stroke:none;fill-rule:nonzero;fill:#ffffff;fill-opacity:1;" d="M 588.992188 154.601562 C 591.925781 155.667969 594.328125 153.800781 596.996094 152.464844 C 600.996094 150.066406 605.265625 148.199219 609.265625 145.53125 C 616.734375 142.597656 627.40625 141.53125 631.40625 133.792969 C 634.875 124.457031 622.601562 124.457031 616.734375 122.589844 C 607.933594 119.921875 593.261719 122.058594 589.261719 131.394531 C 587.394531 135.660156 587.925781 140.730469 587.394531 145.265625 C 586.59375 148.464844 585.527344 152.464844 588.992188 154.601562 Z M 594.0625 143.929688 C 594.0625 132.460938 596.195312 129.792969 607.664062 128.191406 C 610.332031 127.660156 613.265625 128.726562 615.933594 129.257812 C 618.867188 130.59375 622.335938 130.328125 625.269531 131.394531 C 624.203125 132.996094 621.804688 133.527344 620.203125 134.59375 C 616.734375 136.730469 612.199219 136.996094 608.464844 138.597656 C 603.398438 140.730469 598.597656 143.929688 593.792969 146.597656 C 593.792969 145.796875 593.792969 144.730469 594.0625 143.929688 Z M 594.0625 143.929688 "/></g></svg>