<svg xmlns="http://www.w3.org/2000/svg" xmlns:xlink="http://www.w3.org/1999/xlink" width="1080" zoomAndPan="magnify" viewBox="0 0 810 809.999993" height="1080" preserveAspectRatio="xMidYMid meet" version="1.2"><defs><linearGradient x1="0" gradientTransform="matrix(0.75,0,0,0.75,0.0000035,0.00002)" y1="0" x2="1079.999955" gradientUnits="userSpaceOnUse" y2="1079.999955" id="cf2d20bb96"><stop style="stop-color:#12395c;stop-opacity:1;" offset="0"/><stop style="stop-color:#12395c;stop-opacity:1;" offset="0.0078125"/><stop style="stop-color:#12385b;stop-opacity:1;" offset="0.015625"/><stop style="stop-color:#12385a;stop-opacity:1;" offset="0.0234375"/><stop style="stop-color:#12385a;stop-opacity:1;" offset="0.03125"/><stop style="stop-color:#113759;stop-opacity:1;" offset="0.0390625"/><stop style="stop-color:#113758;stop-opacity:1;" offset="0.046875"/><stop style="stop-color:#113657;stop-opacity:1;" offset="0.0546875"/><stop style="stop-color:#113657;stop-opacity:1;" offset="0.0625"/><stop style="stop-color:#113556;stop-opacity:1;" offset="0.0703125"/><stop style="stop-color:#113555;stop-opacity:1;" offset="0.078125"/><stop style="stop-color:#113455;stop-opacity:1;" offset="0.0859375"/><stop style="stop-color:#103454;stop-opacity:1;" offset="0.09375"/><stop style="stop-color:#103453;stop-opacity:1;" offset="0.101562"/><stop style="stop-color:#103352;stop-opacity:1;" offset="0.109375"/><stop style="stop-color:#103352;stop-opacity:1;" offset="0.117188"/><stop style="stop-color:#103251;stop-opacity:1;" offset="0.125"/><stop style="stop-color:#103250;stop-opacity:1;" offset="0.132812"/><stop style="stop-color:#10314f;stop-opacity:1;" offset="0.140625"/><stop style="stop-color:#0f314f;stop-opacity:1;" offset="0.148437"/><stop style="stop-color:#0f304e;stop-opacity:1;" offset="0.15625"/><stop style="stop-color:#0f304d;stop-opacity:1;" offset="0.164062"/><stop style="stop-color:#0f304d;stop-opacity:1;" offset="0.171875"/><stop style="stop-color:#0f2f4c;stop-opacity:1;" offset="0.179687"/><stop style="stop-color:#0f2f4b;stop-opacity:1;" offset="0.1875"/><stop style="stop-color:#0f2e4a;stop-opacity:1;" offset="0.195312"/><stop style="stop-color:#0e2e4a;stop-opacity:1;" offset="0.203125"/><stop style="stop-color:#0e2d49;stop-opacity:1;" offset="0.210938"/><stop style="stop-color:#0e2d48;stop-opacity:1;" offset="0.21875"/><stop style="stop-color:#0e2c48;stop-opacity:1;" offset="0.226562"/><stop style="stop-color:#0e2c47;stop-opacity:1;" offset="0.234375"/><stop style="stop-color:#0e2c46;stop-opacity:1;" offset="0.242188"/><stop style="stop-color:#0e2b45;stop-opacity:1;" offset="0.25"/><stop style="stop-color:#0e2b45;stop-opacity:1;" offset="0.257812"/><stop style="stop-color:#0d2a44;stop-opacity:1;" offset="0.265625"/><stop style="stop-color:#0d2a43;stop-opacity:1;" offset="0.273437"/><stop style="stop-color:#0d2943;stop-opacity:1;" offset="0.28125"/><stop style="stop-color:#0d2942;stop-opacity:1;" offset="0.289062"/><stop style="stop-color:#0d2841;stop-opacity:1;" offset="0.296875"/><stop style="stop-color:#0d2840;stop-opacity:1;" offset="0.304687"/><stop style="stop-color:#0d2740;stop-opacity:1;" offset="0.3125"/><stop style="stop-color:#0c273f;stop-opacity:1;" offset="0.320312"/><stop style="stop-color:#0c273e;stop-opacity:1;" offset="0.328125"/><stop style="stop-color:#0c263d;stop-opacity:1;" offset="0.335937"/><stop style="stop-color:#0c263d;stop-opacity:1;" offset="0.34375"/><stop style="stop-color:#0c253c;stop-opacity:1;" offset="0.351562"/><stop style="stop-color:#0c253b;stop-opacity:1;" offset="0.359375"/><stop style="stop-color:#0c243b;stop-opacity:1;" offset="0.367187"/><stop style="stop-color:#0b243a;stop-opacity:1;" offset="0.375"/><stop style="stop-color:#0b2339;stop-opacity:1;" offset="0.382812"/><stop style="stop-color:#0b2338;stop-opacity:1;" offset="0.390625"/><stop style="stop-color:#0b2338;stop-opacity:1;" offset="0.398438"/><stop style="stop-color:#0b2237;stop-opacity:1;" offset="0.40625"/><stop style="stop-color:#0b2236;stop-opacity:1;" offset="0.414062"/><stop style="stop-color:#0b2136;stop-opacity:1;" offset="0.421875"/><stop style="stop-color:#0a2135;stop-opacity:1;" offset="0.429688"/><stop style="stop-color:#0a2034;stop-opacity:1;" offset="0.4375"/><stop style="stop-color:#0a2033;stop-opacity:1;" offset="0.445312"/><stop style="stop-color:#0a1f33;stop-opacity:1;" offset="0.453125"/><stop style="stop-color:#0a1f32;stop-opacity:1;" offset="0.460938"/><stop style="stop-color:#0a1f31;stop-opacity:1;" offset="0.46875"/><stop style="stop-color:#0a1e31;stop-opacity:1;" offset="0.476562"/><stop style="stop-color:#091e30;stop-opacity:1;" offset="0.484375"/><stop style="stop-color:#091d2f;stop-opacity:1;" offset="0.492188"/><stop style="stop-color:#091d2e;stop-opacity:1;" offset="0.5"/><stop style="stop-color:#091c2e;stop-opacity:1;" offset="0.507812"/><stop style="stop-color:#091c2d;stop-opacity:1;" offset="0.515625"/><stop style="stop-color:#091b2c;stop-opacity:1;" offset="0.523437"/><stop style="stop-color:#091b2c;stop-opacity:1;" offset="0.53125"/><stop style="stop-color:#081b2b;stop-opacity:1;" offset="0.539062"/><stop style="stop-color:#081a2a;stop-opacity:1;" offset="0.546875"/><stop style="stop-color:#081a29;stop-opacity:1;" offset="0.554687"/><stop style="stop-color:#081929;stop-opacity:1;" offset="0.5625"/><stop style="stop-color:#081928;stop-opacity:1;" offset="0.570312"/><stop style="stop-color:#081827;stop-opacity:1;" offset="0.578125"/><stop style="stop-color:#081826;stop-opacity:1;" offset="0.585937"/><stop style="stop-color:#071726;stop-opacity:1;" offset="0.59375"/><stop style="stop-color:#071725;stop-opacity:1;" offset="0.601562"/><stop style="stop-color:#071724;stop-opacity:1;" offset="0.609375"/><stop style="stop-color:#071624;stop-opacity:1;" offset="0.617187"/><stop style="stop-color:#071623;stop-opacity:1;" offset="0.625"/><stop style="stop-color:#071522;stop-opacity:1;" offset="0.632812"/><stop style="stop-color:#071521;stop-opacity:1;" offset="0.640625"/><stop style="stop-color:#061421;stop-opacity:1;" offset="0.648437"/><stop style="stop-color:#061420;stop-opacity:1;" offset="0.65625"/><stop style="stop-color:#06131f;stop-opacity:1;" offset="0.664062"/><stop style="stop-color:#06131f;stop-opacity:1;" offset="0.671875"/><stop style="stop-color:#06131e;stop-opacity:1;" offset="0.679687"/><stop style="stop-color:#06121d;stop-opacity:1;" offset="0.6875"/><stop style="stop-color:#06121c;stop-opacity:1;" offset="0.695312"/><stop style="stop-color:#05111c;stop-opacity:1;" offset="0.703125"/><stop style="stop-color:#05111b;stop-opacity:1;" offset="0.710937"/><stop style="stop-color:#05101a;stop-opacity:1;" offset="0.71875"/><stop style="stop-color:#05101a;stop-opacity:1;" offset="0.726562"/><stop style="stop-color:#050f19;stop-opacity:1;" offset="0.734375"/><stop style="stop-color:#050f18;stop-opacity:1;" offset="0.742187"/><stop style="stop-color:#050f17;stop-opacity:1;" offset="0.75"/><stop style="stop-color:#040e17;stop-opacity:1;" offset="0.757812"/><stop style="stop-color:#040e16;stop-opacity:1;" offset="0.765625"/><stop style="stop-color:#040d15;stop-opacity:1;" offset="0.773438"/><stop style="stop-color:#040d14;stop-opacity:1;" offset="0.78125"/><stop style="stop-color:#040c14;stop-opacity:1;" offset="0.789062"/><stop style="stop-color:#040c13;stop-opacity:1;" offset="0.796875"/><stop style="stop-color:#040b12;stop-opacity:1;" offset="0.804688"/><stop style="stop-color:#030b12;stop-opacity:1;" offset="0.8125"/><stop style="stop-color:#030a11;stop-opacity:1;" offset="0.820312"/><stop style="stop-color:#030a10;stop-opacity:1;" offset="0.828125"/><stop style="stop-color:#030a0f;stop-opacity:1;" offset="0.835938"/><stop style="stop-color:#03090f;stop-opacity:1;" offset="0.84375"/><stop style="stop-color:#03090e;stop-opacity:1;" offset="0.851562"/><stop style="stop-color:#03080d;stop-opacity:1;" offset="0.859375"/><stop style="stop-color:#02080d;stop-opacity:1;" offset="0.867188"/><stop style="stop-color:#02070c;stop-opacity:1;" offset="0.875"/><stop style="stop-color:#02070b;stop-opacity:1;" offset="0.882812"/><stop style="stop-color:#02060a;stop-opacity:1;" offset="0.890625"/><stop style="stop-color:#02060a;stop-opacity:1;" offset="0.898438"/><stop style="stop-color:#020609;stop-opacity:1;" offset="0.90625"/><stop style="stop-color:#020508;stop-opacity:1;" offset="0.914062"/><stop style="stop-color:#010508;stop-opacity:1;" offset="0.921875"/><stop style="stop-color:#010407;stop-opacity:1;" offset="0.929688"/><stop style="stop-color:#010406;stop-opacity:1;" offset="0.9375"/><stop style="stop-color:#010305;stop-opacity:1;" offset="0.945312"/><stop style="stop-color:#010305;stop-opacity:1;" offset="0.953125"/><stop style="stop-color:#010204;stop-opacity:1;" offset="0.960938"/><stop style="stop-color:#010203;stop-opacity:1;" offset="0.96875"/><stop style="stop-color:#000203;stop-opacity:1;" offset="0.976562"/><stop style="stop-color:#000102;stop-opacity:1;" offset="0.984375"/><stop style="stop-color:#000101;stop-opacity:1;" offset="0.992188"/><stop style="stop-color:#000000;stop-opacity:1;" offset="1"/></linearGradient></defs><g id="4d62d4c0b3"><rect x="0" width="810" y="0" height="809.999993" style="fill:#ffffff;fill-opacity:1;stroke:none;"/><rect x="0" width="810" y="0" height="809.999993" style="fill:url(#linear0);stroke:none;"/><path style=" stroke:none;fill-rule:nonzero;fill:#ffffff;fill-opacity:1;" d="M 234.691406 728.816406 C 225.417969 728.074219 221.335938 718.609375 216.699219 712.117188 C 213.542969 708.035156 207.980469 707.664062 203.710938 709.519531 C 196.847656 711.746094 190.539062 715.457031 184.046875 718.242188 C 175.886719 721.207031 166.796875 721.949219 158.445312 719.722656 C 153.4375 718.425781 149.171875 715.085938 146.386719 710.632812 C 142.679688 703.027344 150.46875 696.351562 153.625 690.042969 C 156.40625 684.105469 159.375 678.167969 164.011719 673.53125 C 168.464844 669.449219 172.730469 665.554688 174.957031 659.617188 C 178.296875 650.714844 171.988281 642.179688 173.472656 633.273438 C 174.957031 628.265625 180.152344 625.484375 182.5625 621.03125 C 186.089844 612.3125 188.316406 602.480469 192.023438 593.761719 C 194.992188 582.816406 197.035156 570.941406 204.269531 561.851562 C 207.238281 558.699219 211.503906 557.214844 214.65625 554.429688 C 223.375 546.453125 230.054688 536.066406 234.878906 525.304688 C 238.21875 517.699219 241 509.90625 242.671875 501.929688 C 243.414062 498.589844 245.082031 495.4375 246.195312 492.285156 C 247.492188 488.203125 248.605469 483.75 250.089844 479.667969 C 252.503906 472.25 256.953125 465.570312 259.367188 458.148438 C 262.148438 450.730469 266.785156 444.421875 269.011719 436.816406 C 271.609375 428.839844 271.980469 420.675781 270.3125 412.511719 C 269.382812 406.761719 267.714844 400.824219 271.054688 395.445312 C 274.207031 388.765625 279.402344 389.324219 285.710938 390.25 C 303.148438 392.847656 307.414062 379.304688 312.980469 366.136719 C 315.207031 360.941406 321.328125 359.457031 324.296875 355.003906 C 328.191406 346.46875 317.617188 339.792969 319.101562 331.445312 C 320.585938 323.09375 324.667969 315.117188 323.738281 306.398438 C 322.625 299.535156 321.140625 292.671875 321.882812 285.621094 C 321.328125 276.71875 326.152344 269.109375 329.863281 261.320312 C 332.085938 254.457031 331.347656 246.847656 334.128906 239.984375 C 336.167969 235.71875 339.507812 231.824219 343.589844 229.410156 C 345.628906 228.296875 347.855469 228.296875 349.898438 227.554688 C 352.125 226.8125 353.609375 224.957031 355.277344 223.476562 C 360.101562 217.722656 362.328125 210.117188 366.777344 204.179688 C 371.417969 197.6875 378.652344 194.164062 384.402344 188.597656 C 388.296875 183.589844 386.257812 174.5 394.234375 173.199219 C 404.253906 172.828125 414.269531 170.417969 421.691406 163.738281 C 433.191406 154.09375 445.066406 140.734375 443.210938 124.78125 C 442.839844 115.320312 440.613281 96.398438 455.640625 99.738281 C 461.019531 100.851562 465.84375 104.1875 471.039062 105.859375 C 481.054688 109.382812 491.445312 108.828125 501.648438 107.714844 C 513.890625 106.042969 526.691406 106.230469 538.75 103.816406 C 558.230469 102.335938 547.097656 81 570.101562 89.535156 C 576.59375 92.6875 579.933594 99.738281 586.425781 103.261719 C 591.992188 107.15625 599.042969 107.527344 604.609375 111.238281 C 608.316406 113.835938 608.316406 119.402344 605.351562 122.554688 C 600.15625 127.75 591.4375 126.265625 585.871094 131.089844 C 585.5 131.273438 585.5 131.832031 585.5 132.203125 C 586.425781 136.097656 588.652344 140.363281 586.242188 144.261719 C 583.644531 147.597656 578.265625 147.226562 574.554688 148.898438 C 571.957031 150.011719 568.804688 150.9375 567.132812 153.351562 C 566.949219 153.722656 566.949219 154.09375 567.320312 154.277344 C 571.773438 156.132812 576.78125 157.246094 581.605469 156.875 C 591.808594 156.691406 603.496094 149.824219 612.398438 157.804688 C 617.039062 162.441406 620.375 168.191406 624.644531 173.199219 C 630.394531 180.0625 636.332031 186.742188 639.113281 195.277344 C 641.152344 200.101562 638.742188 205.109375 638.371094 210.117188 C 637.257812 222.546875 651.355469 227.554688 656.738281 236.832031 C 660.261719 243.140625 655.625 249.445312 653.398438 255.199219 C 652.097656 261.320312 658.222656 265.214844 661.746094 269.296875 C 664.527344 271.894531 667.3125 275.605469 666.382812 279.871094 C 664.15625 286.550781 659.148438 291.742188 653.582031 295.824219 C 646.164062 301.390625 637.074219 306.769531 634.476562 316.230469 C 632.0625 324.578125 629.09375 334.410156 620.746094 338.492188 C 613.882812 341.277344 606.464844 338.863281 599.597656 338.121094 C 594.960938 337.75 590.507812 339.605469 588.097656 343.6875 C 584.574219 348.882812 581.789062 354.632812 576.964844 358.714844 C 567.132812 367.246094 553.035156 374.855469 549.695312 388.210938 C 549.882812 388.582031 550.066406 388.953125 550.066406 389.324219 C 550.066406 389.878906 549.882812 390.4375 549.511719 390.808594 C 556.375 396.1875 562.683594 391.734375 566.949219 401.9375 C 571.03125 406.761719 578.820312 403.980469 582.71875 409.175781 C 588.097656 414.183594 588.46875 418.449219 582.347656 423.273438 C 579.191406 425.871094 574.738281 425.5 571.03125 425.3125 C 563.980469 424.941406 556.746094 424.199219 550.253906 421.605469 C 535.410156 415.296875 535.039062 420.121094 521.683594 423.828125 C 516.304688 424.941406 511.664062 421.605469 507.769531 418.449219 C 505.542969 416.78125 502.574219 416.410156 500.71875 418.636719 C 497.75 421.234375 495.15625 424.199219 491.445312 425.871094 C 479.757812 429.953125 477.160156 424.941406 468.8125 437.742188 C 466.769531 440.898438 464.542969 443.863281 461.390625 446.089844 C 457.308594 448.503906 453.96875 451.84375 451.929688 456.292969 C 447.105469 462.789062 447.292969 470.949219 444.136719 478 C 441.726562 484.121094 431.894531 488.574219 433.75 495.808594 C 438.015625 496.921875 442.097656 498.40625 445.992188 500.632812 C 451.1875 501.558594 456.382812 502.859375 461.390625 505.085938 C 465.65625 506.941406 470.667969 509.167969 472.707031 513.617188 C 475.488281 518.8125 472.894531 524.378906 468.996094 528.089844 C 465.472656 531.796875 461.578125 535.695312 457.125 538.105469 C 451.558594 540.890625 444.878906 538.476562 439.5 542.003906 C 437.832031 543.113281 435.789062 544.96875 436.53125 547.195312 C 439.5 552.207031 438.945312 558.140625 436.347656 563.335938 C 432.636719 571.128906 424.660156 575.023438 417.609375 578.734375 C 411.300781 582.445312 404.625 585.785156 398.6875 590.421875 C 388.667969 595.429688 391.453125 598.769531 387 607.304688 C 382.546875 613.980469 375.128906 618.621094 367.890625 621.585938 C 364.367188 623.257812 360.65625 622.328125 357.132812 621.585938 C 353.609375 621.957031 351.011719 624.371094 349.527344 627.523438 C 348.042969 631.605469 345.445312 635.5 341.363281 637.542969 C 338.582031 638.839844 335.796875 640.324219 333.015625 641.625 C 330.605469 642.363281 327.449219 643.105469 327.265625 646.261719 C 326.707031 650.714844 326.707031 656.464844 320.402344 654.421875 C 313.722656 651.640625 306.488281 646.816406 305.746094 639.027344 C 297.027344 644.960938 298.324219 656.464844 298.695312 665.738281 C 298.511719 675.570312 298.695312 685.960938 294.429688 695.050781 C 291.273438 703.027344 286.082031 711.375 277.175781 713.789062 C 272.351562 715.457031 267.34375 715.457031 262.890625 717.683594 C 258.253906 720.09375 256.210938 725.660156 250.832031 727.144531 C 247.863281 728.074219 244.710938 727.332031 241.558594 727.886719 C 239.144531 727.886719 237.105469 729 234.691406 728.816406 Z M 235.25 724.175781 C 237.660156 723.992188 239.703125 722.507812 242.300781 722.320312 C 245.824219 721.949219 249.71875 722.878906 252.503906 720.09375 C 255.285156 717.3125 257.511719 713.972656 261.40625 712.488281 C 266.230469 710.449219 272.167969 710.078125 276.992188 708.40625 C 285.152344 705.625 288.492188 696.90625 291.460938 689.484375 C 294.058594 681.507812 294.058594 673.347656 294.058594 665.183594 C 293.6875 656.835938 292.574219 647.558594 297.582031 640.324219 C 299.621094 637.355469 305.1875 630.675781 308.898438 634.015625 C 310.566406 636.242188 310.011719 639.398438 311.496094 641.808594 C 313.722656 645.519531 318.175781 648.117188 322.070312 649.601562 C 322.441406 645.148438 323.183594 639.953125 327.820312 638.097656 C 330.417969 637.171875 333.015625 636.242188 335.425781 634.757812 C 338.765625 633.273438 342.292969 631.605469 343.960938 628.265625 C 346.1875 621.957031 351.753906 615.28125 359.171875 616.765625 C 364.367188 618.804688 369.375 616.023438 373.644531 613.238281 C 378.09375 610.085938 383.289062 606.933594 384.773438 601.367188 C 386.074219 598.027344 386.628906 594.316406 389.039062 591.535156 C 391.265625 589.308594 394.421875 587.824219 396.832031 586.15625 C 400.914062 583.1875 405.179688 580.402344 409.816406 577.992188 C 417.425781 572.984375 427.628906 570.015625 432.449219 561.480469 C 433.5625 558.882812 434.675781 555.914062 434.492188 553.132812 C 433.75 550.164062 431.707031 547.566406 432.449219 544.414062 C 434.121094 538.105469 441.355469 535.507812 447.292969 534.953125 C 449.703125 534.765625 452.117188 534.953125 454.527344 534.210938 C 460.648438 531.058594 465.65625 525.863281 469.554688 520.296875 C 473.265625 509.90625 451.375 506.011719 444.695312 504.15625 C 442.652344 503.414062 440.800781 501.929688 438.757812 501.1875 C 436.53125 500.445312 434.121094 500.261719 432.078125 499.148438 C 429.855469 497.664062 429.484375 494.695312 429.667969 492.46875 C 430.039062 487.460938 434.121094 483.9375 437.273438 480.410156 C 440.984375 476.703125 442.652344 471.691406 443.394531 466.867188 C 445.066406 459.078125 449.148438 451.472656 454.527344 445.71875 C 456.566406 443.863281 459.164062 442.382812 461.390625 440.710938 C 465.65625 436.445312 468.253906 430.507812 473.078125 426.613281 C 477.902344 421.972656 485.136719 423.828125 490.703125 421.234375 C 494.414062 419.378906 496.824219 416.039062 500.164062 413.8125 C 509.4375 407.875 513.890625 420.675781 522.054688 419.191406 C 527.0625 418.265625 531.328125 414.738281 536.523438 414.183594 C 544.5 412.699219 551.921875 417.707031 559.527344 419.378906 C 562.867188 420.121094 566.390625 420.304688 569.730469 420.675781 C 574.738281 421.046875 581.046875 421.789062 583.273438 416.410156 C 581.789062 413.996094 579.75 411.214844 576.78125 410.472656 C 570.289062 409.730469 564.351562 407.691406 561.753906 401.011719 C 559.714844 398.414062 556.003906 398.785156 553.21875 397.859375 C 550.253906 396.746094 546.726562 394.703125 545.242188 391.921875 C 544.128906 390.066406 543.574219 385.429688 546.726562 385.242188 C 548.027344 380.789062 550.253906 376.710938 553.589844 373.554688 C 560.457031 365.578125 569.359375 360.199219 576.78125 353.148438 C 589.210938 336.265625 587.726562 330.703125 611.101562 334.96875 C 617.410156 335.710938 622.046875 334.226562 625.386719 328.660156 C 630.578125 320.871094 630.207031 310.480469 637.257812 303.429688 C 644.863281 295.082031 656.921875 290.816406 661.929688 280.242188 C 662.671875 278.945312 663.042969 277.273438 662.117188 276.160156 C 659.519531 272.078125 655.253906 269.296875 652.46875 265.214844 C 646.535156 258.164062 650.058594 252.042969 653.210938 244.808594 C 655.4375 239.800781 651.355469 235.71875 647.648438 232.75 C 643.195312 228.667969 638.742188 224.585938 635.960938 219.207031 C 635.03125 216.980469 634.476562 214.570312 634.289062 212.34375 C 633.734375 207.335938 636.332031 202.882812 635.773438 198.246094 C 633.917969 191.378906 629.835938 185.628906 625.199219 180.25 C 619.632812 174.128906 615.183594 166.894531 609.617188 160.957031 C 604.050781 156.320312 596.816406 159.472656 590.695312 160.398438 C 584.574219 161.511719 578.078125 162.253906 571.957031 160.398438 C 569.175781 159.472656 565.835938 159.101562 563.980469 156.875 C 561.199219 153.351562 564.351562 149.082031 567.691406 147.226562 C 570.472656 145.746094 573.441406 144.632812 576.410156 143.703125 C 578.636719 143.148438 580.863281 142.589844 582.902344 141.847656 C 583.460938 141.664062 583.460938 140.921875 583.460938 140.363281 C 583.273438 136.097656 579.378906 131.273438 583.460938 127.75 C 586.242188 125.335938 589.765625 124.039062 593.292969 122.925781 C 596.816406 121.628906 604.980469 121.441406 603.308594 115.691406 C 600.898438 112.910156 596.816406 112.539062 593.476562 111.054688 C 589.765625 109.753906 586.242188 108.269531 583.273438 105.859375 C 578.265625 102.707031 575.109375 97.695312 570.472656 94.171875 C 567.503906 92.5 563.980469 91.761719 560.828125 91.761719 C 560.269531 91.945312 560.085938 91.945312 559.714844 92.316406 C 556.929688 94.726562 556.375 98.808594 553.960938 101.59375 C 551.367188 104.929688 547.46875 106.972656 543.386719 107.898438 C 529.84375 111.238281 515.5625 110.683594 501.832031 112.539062 C 491.445312 113.652344 480.683594 114.023438 470.667969 110.683594 C 463.0625 109.011719 448.035156 96.582031 448.21875 111.796875 C 447.476562 122.183594 450.445312 132.945312 445.4375 142.589844 C 438.945312 156.132812 427.8125 167.636719 414.457031 174.3125 C 408.148438 177.652344 400.726562 177.097656 394.050781 178.582031 C 392.75 179.507812 392.195312 181.546875 392.007812 183.03125 C 391.265625 193.050781 381.433594 196.945312 374.757812 203.066406 C 366.964844 209.746094 365.292969 220.878906 358.058594 228.113281 C 355.277344 231.453125 351.011719 232.9375 346.929688 233.679688 C 334.683594 239.800781 338.210938 253.527344 334.3125 264.289062 C 332.085938 269.480469 328.933594 273.5625 327.636719 278.945312 C 325.964844 288.035156 327.078125 297.125 328.75 306.027344 C 329.863281 315.304688 325.78125 323.835938 324.109375 332.742188 C 323.738281 337.195312 327.449219 340.71875 328.933594 344.800781 C 332.828125 354.632812 328.75 360.199219 320.585938 365.207031 C 316.503906 368.917969 315.578125 374.855469 313.164062 379.675781 C 309.824219 386.542969 304.261719 393.035156 296.65625 394.890625 C 290.902344 396.1875 284.78125 394.519531 279.03125 394.703125 C 271.425781 399.34375 275.878906 409.359375 276.621094 416.410156 C 278.101562 428.46875 274.765625 440.527344 269.011719 451.101562 C 266.042969 455.550781 264.5625 460.746094 262.335938 465.570312 C 258.253906 474.289062 254.171875 482.636719 251.945312 492.097656 C 249.90625 497.664062 247.679688 503.042969 246.566406 508.796875 C 243.042969 521.039062 238.03125 533.28125 230.613281 543.671875 C 227.273438 548.867188 223.5625 553.875 218.738281 557.769531 C 215.769531 560.738281 211.6875 562.222656 208.722656 565.003906 C 200 576.320312 199.816406 591.535156 194.066406 604.148438 C 191.28125 611.199219 190.355469 619.175781 186.089844 625.667969 C 175.328125 636.429688 179.039062 635.6875 181.078125 649.601562 C 182.378906 656.648438 179.964844 663.699219 175.699219 669.449219 C 172.917969 672.976562 169.019531 675.570312 166.238281 679.097656 C 161.042969 684.847656 159.558594 692.453125 154.738281 698.390625 C 152.695312 702.101562 148.800781 706.367188 152.695312 710.078125 C 160.859375 718.980469 175.515625 717.128906 185.53125 713.046875 C 197.40625 707.296875 213.914062 696.351562 223.191406 711.746094 C 225.230469 716.941406 228.570312 723.621094 235.25 724.175781 Z M 235.25 724.175781 "/></g></svg>