<svg xmlns="http://www.w3.org/2000/svg" xmlns:xlink="http://www.w3.org/1999/xlink" width="1080" zoomAndPan="magnify" viewBox="0 0 810 809.999993" height="1080" preserveAspectRatio="xMidYMid meet" version="1.2"><defs><linearGradient x1="0" gradientTransform="matrix(0.75,0,0,0.75,0.0000035,0.00002)" y1="0" x2="1079.999955" gradientUnits="userSpaceOnUse" y2="1079.999955" id="f67754e346"><stop style="stop-color:#12395c;stop-opacity:1;" offset="0"/><stop style="stop-color:#12395c;stop-opacity:1;" offset="0.0078125"/><stop style="stop-color:#12385b;stop-opacity:1;" offset="0.015625"/><stop style="stop-color:#12385a;stop-opacity:1;" offset="0.0234375"/><stop style="stop-color:#12385a;stop-opacity:1;" offset="0.03125"/><stop style="stop-color:#113759;stop-opacity:1;" offset="0.0390625"/><stop style="stop-color:#113758;stop-opacity:1;" offset="0.046875"/><stop style="stop-color:#113657;stop-opacity:1;" offset="0.0546875"/><stop style="stop-color:#113657;stop-opacity:1;" offset="0.0625"/><stop style="stop-color:#113556;stop-opacity:1;" offset="0.0703125"/><stop style="stop-color:#113555;stop-opacity:1;" offset="0.078125"/><stop style="stop-color:#113455;stop-opacity:1;" offset="0.0859375"/><stop style="stop-color:#103454;stop-opacity:1;" offset="0.09375"/><stop style="stop-color:#103453;stop-opacity:1;" offset="0.101562"/><stop style="stop-color:#103352;stop-opacity:1;" offset="0.109375"/><stop style="stop-color:#103352;stop-opacity:1;" offset="0.117188"/><stop style="stop-color:#103251;stop-opacity:1;" offset="0.125"/><stop style="stop-color:#103250;stop-opacity:1;" offset="0.132812"/><stop style="stop-color:#10314f;stop-opacity:1;" offset="0.140625"/><stop style="stop-color:#0f314f;stop-opacity:1;" offset="0.148437"/><stop style="stop-color:#0f304e;stop-opacity:1;" offset="0.15625"/><stop style="stop-color:#0f304d;stop-opacity:1;" offset="0.164062"/><stop style="stop-color:#0f304d;stop-opacity:1;" offset="0.171875"/><stop style="stop-color:#0f2f4c;stop-opacity:1;" offset="0.179687"/><stop style="stop-color:#0f2f4b;stop-opacity:1;" offset="0.1875"/><stop style="stop-color:#0f2e4a;stop-opacity:1;" offset="0.195312"/><stop style="stop-color:#0e2e4a;stop-opacity:1;" offset="0.203125"/><stop style="stop-color:#0e2d49;stop-opacity:1;" offset="0.210938"/><stop style="stop-color:#0e2d48;stop-opacity:1;" offset="0.21875"/><stop style="stop-color:#0e2c48;stop-opacity:1;" offset="0.226562"/><stop style="stop-color:#0e2c47;stop-opacity:1;" offset="0.234375"/><stop style="stop-color:#0e2c46;stop-opacity:1;" offset="0.242188"/><stop style="stop-color:#0e2b45;stop-opacity:1;" offset="0.25"/><stop style="stop-color:#0e2b45;stop-opacity:1;" offset="0.257812"/><stop style="stop-color:#0d2a44;stop-opacity:1;" offset="0.265625"/><stop style="stop-color:#0d2a43;stop-opacity:1;" offset="0.273437"/><stop style="stop-color:#0d2943;stop-opacity:1;" offset="0.28125"/><stop style="stop-color:#0d2942;stop-opacity:1;" offset="0.289062"/><stop style="stop-color:#0d2841;stop-opacity:1;" offset="0.296875"/><stop style="stop-color:#0d2840;stop-opacity:1;" offset="0.304687"/><stop style="stop-color:#0d2740;stop-opacity:1;" offset="0.3125"/><stop style="stop-color:#0c273f;stop-opacity:1;" offset="0.320312"/><stop style="stop-color:#0c273e;stop-opacity:1;" offset="0.328125"/><stop style="stop-color:#0c263d;stop-opacity:1;" offset="0.335937"/><stop style="stop-color:#0c263d;stop-opacity:1;" offset="0.34375"/><stop style="stop-color:#0c253c;stop-opacity:1;" offset="0.351562"/><stop style="stop-color:#0c253b;stop-opacity:1;" offset="0.359375"/><stop style="stop-color:#0c243b;stop-opacity:1;" offset="0.367187"/><stop style="stop-color:#0b243a;stop-opacity:1;" offset="0.375"/><stop style="stop-color:#0b2339;stop-opacity:1;" offset="0.382812"/><stop style="stop-color:#0b2338;stop-opacity:1;" offset="0.390625"/><stop style="stop-color:#0b2338;stop-opacity:1;" offset="0.398438"/><stop style="stop-color:#0b2237;stop-opacity:1;" offset="0.40625"/><stop style="stop-color:#0b2236;stop-opacity:1;" offset="0.414062"/><stop style="stop-color:#0b2136;stop-opacity:1;" offset="0.421875"/><stop style="stop-color:#0a2135;stop-opacity:1;" offset="0.429688"/><stop style="stop-color:#0a2034;stop-opacity:1;" offset="0.4375"/><stop style="stop-color:#0a2033;stop-opacity:1;" offset="0.445312"/><stop style="stop-color:#0a1f33;stop-opacity:1;" offset="0.453125"/><stop style="stop-color:#0a1f32;stop-opacity:1;" offset="0.460938"/><stop style="stop-color:#0a1f31;stop-opacity:1;" offset="0.46875"/><stop style="stop-color:#0a1e31;stop-opacity:1;" offset="0.476562"/><stop style="stop-color:#091e30;stop-opacity:1;" offset="0.484375"/><stop style="stop-color:#091d2f;stop-opacity:1;" offset="0.492188"/><stop style="stop-color:#091d2e;stop-opacity:1;" offset="0.5"/><stop style="stop-color:#091c2e;stop-opacity:1;" offset="0.507812"/><stop style="stop-color:#091c2d;stop-opacity:1;" offset="0.515625"/><stop style="stop-color:#091b2c;stop-opacity:1;" offset="0.523437"/><stop style="stop-color:#091b2c;stop-opacity:1;" offset="0.53125"/><stop style="stop-color:#081b2b;stop-opacity:1;" offset="0.539062"/><stop style="stop-color:#081a2a;stop-opacity:1;" offset="0.546875"/><stop style="stop-color:#081a29;stop-opacity:1;" offset="0.554687"/><stop style="stop-color:#081929;stop-opacity:1;" offset="0.5625"/><stop style="stop-color:#081928;stop-opacity:1;" offset="0.570312"/><stop style="stop-color:#081827;stop-opacity:1;" offset="0.578125"/><stop style="stop-color:#081826;stop-opacity:1;" offset="0.585937"/><stop style="stop-color:#071726;stop-opacity:1;" offset="0.59375"/><stop style="stop-color:#071725;stop-opacity:1;" offset="0.601562"/><stop style="stop-color:#071724;stop-opacity:1;" offset="0.609375"/><stop style="stop-color:#071624;stop-opacity:1;" offset="0.617187"/><stop style="stop-color:#071623;stop-opacity:1;" offset="0.625"/><stop style="stop-color:#071522;stop-opacity:1;" offset="0.632812"/><stop style="stop-color:#071521;stop-opacity:1;" offset="0.640625"/><stop style="stop-color:#061421;stop-opacity:1;" offset="0.648437"/><stop style="stop-color:#061420;stop-opacity:1;" offset="0.65625"/><stop style="stop-color:#06131f;stop-opacity:1;" offset="0.664062"/><stop style="stop-color:#06131f;stop-opacity:1;" offset="0.671875"/><stop style="stop-color:#06131e;stop-opacity:1;" offset="0.679687"/><stop style="stop-color:#06121d;stop-opacity:1;" offset="0.6875"/><stop style="stop-color:#06121c;stop-opacity:1;" offset="0.695312"/><stop style="stop-color:#05111c;stop-opacity:1;" offset="0.703125"/><stop style="stop-color:#05111b;stop-opacity:1;" offset="0.710937"/><stop style="stop-color:#05101a;stop-opacity:1;" offset="0.71875"/><stop style="stop-color:#05101a;stop-opacity:1;" offset="0.726562"/><stop style="stop-color:#050f19;stop-opacity:1;" offset="0.734375"/><stop style="stop-color:#050f18;stop-opacity:1;" offset="0.742187"/><stop style="stop-color:#050f17;stop-opacity:1;" offset="0.75"/><stop style="stop-color:#040e17;stop-opacity:1;" offset="0.757812"/><stop style="stop-color:#040e16;stop-opacity:1;" offset="0.765625"/><stop style="stop-color:#040d15;stop-opacity:1;" offset="0.773438"/><stop style="stop-color:#040d14;stop-opacity:1;" offset="0.78125"/><stop style="stop-color:#040c14;stop-opacity:1;" offset="0.789062"/><stop style="stop-color:#040c13;stop-opacity:1;" offset="0.796875"/><stop style="stop-color:#040b12;stop-opacity:1;" offset="0.804688"/><stop style="stop-color:#030b12;stop-opacity:1;" offset="0.8125"/><stop style="stop-color:#030a11;stop-opacity:1;" offset="0.820312"/><stop style="stop-color:#030a10;stop-opacity:1;" offset="0.828125"/><stop style="stop-color:#030a0f;stop-opacity:1;" offset="0.835938"/><stop style="stop-color:#03090f;stop-opacity:1;" offset="0.84375"/><stop style="stop-color:#03090e;stop-opacity:1;" offset="0.851562"/><stop style="stop-color:#03080d;stop-opacity:1;" offset="0.859375"/><stop style="stop-color:#02080d;stop-opacity:1;" offset="0.867188"/><stop style="stop-color:#02070c;stop-opacity:1;" offset="0.875"/><stop style="stop-color:#02070b;stop-opacity:1;" offset="0.882812"/><stop style="stop-color:#02060a;stop-opacity:1;" offset="0.890625"/><stop style="stop-color:#02060a;stop-opacity:1;" offset="0.898438"/><stop style="stop-color:#020609;stop-opacity:1;" offset="0.90625"/><stop style="stop-color:#020508;stop-opacity:1;" offset="0.914062"/><stop style="stop-color:#010508;stop-opacity:1;" offset="0.921875"/><stop style="stop-color:#010407;stop-opacity:1;" offset="0.929688"/><stop style="stop-color:#010406;stop-opacity:1;" offset="0.9375"/><stop style="stop-color:#010305;stop-opacity:1;" offset="0.945312"/><stop style="stop-color:#010305;stop-opacity:1;" offset="0.953125"/><stop style="stop-color:#010204;stop-opacity:1;" offset="0.960938"/><stop style="stop-color:#010203;stop-opacity:1;" offset="0.96875"/><stop style="stop-color:#000203;stop-opacity:1;" offset="0.976562"/><stop style="stop-color:#000102;stop-opacity:1;" offset="0.984375"/><stop style="stop-color:#000101;stop-opacity:1;" offset="0.992188"/><stop style="stop-color:#000000;stop-opacity:1;" offset="1"/></linearGradient></defs><g id="7b1ee3449e"><rect x="0" width="810" y="0" height="809.999993" style="fill:#ffffff;fill-opacity:1;stroke:none;"/><rect x="0" width="810" y="0" height="809.999993" style="fill:url(#linear0);stroke:none;"/><path style=" stroke:none;fill-rule:nonzero;fill:#ffffff;fill-opacity:1;" d="M 228.402344 728.476562 C 223.460938 728.476562 221.070312 725.664062 219.246094 722.597656 L 219.175781 722.480469 C 209.785156 703.132812 198.332031 676.972656 187.230469 651.703125 C 179.664062 634.445312 171.84375 616.597656 164.816406 601.234375 C 163.835938 599.054688 162.875 596.878906 161.9375 594.769531 C 161.375 593.460938 160.789062 592.171875 160.226562 590.859375 L 159.992188 590.296875 C 157.488281 584.558594 155.519531 579.59375 156.644531 576.878906 C 157.792969 573.691406 160.882812 572.382812 163.859375 571.117188 C 164.347656 570.90625 164.839844 570.695312 165.332031 570.484375 L 165.402344 570.460938 C 184.792969 562.964844 220.488281 549.359375 255.007812 536.199219 C 288.476562 523.433594 320.066406 511.394531 338.40625 504.324219 L 338.5 504.277344 C 341.824219 502.917969 344.964844 501.628906 347.117188 499.453125 C 350.328125 495.84375 351.777344 491.113281 353.464844 485.632812 C 354.050781 483.714844 354.660156 481.746094 355.386719 479.707031 C 355.832031 478.328125 356.25 476.921875 356.695312 475.539062 C 357.023438 474.460938 357.375 473.386719 357.726562 472.285156 C 361.355469 460.714844 365.175781 448.511719 369.015625 436.3125 C 372.386719 425.539062 375.785156 414.742188 379.039062 404.390625 C 379.695312 402.257812 380.375 400.152344 381.03125 398.066406 C 382.015625 394.90625 382.972656 391.929688 383.910156 388.839844 C 386.113281 381.8125 388.148438 374.4375 386.488281 368.207031 L 386.488281 368.183594 C 385.269531 363.148438 382.878906 358.675781 379.929688 353.335938 C 378.054688 350.03125 375.949219 346.566406 373.910156 343.195312 C 372.714844 341.226562 371.476562 339.167969 370.328125 337.246094 C 369.882812 336.472656 369.460938 335.746094 369.039062 334.996094 C 364.871094 327.808594 360.539062 320.382812 361.613281 311.765625 C 362.621094 301.835938 367.117188 292.117188 371.453125 282.722656 C 373.582031 278.085938 375.808594 273.285156 377.515625 268.625 C 378.757812 265.183594 379.671875 261.503906 380.5625 257.921875 C 381.476562 254.292969 382.410156 250.523438 383.699219 246.960938 C 386.441406 239.023438 391.429688 234.574219 396.722656 229.867188 C 398.617188 228.179688 400.5625 226.445312 402.414062 224.527344 C 404.496094 222.371094 404.777344 219.257812 403.347656 214.757812 C 402.972656 213.566406 402.601562 212.394531 402.203125 211.152344 C 400.585938 206.140625 398.898438 200.964844 398.664062 195.554688 C 398.171875 187.3125 400.960938 176.84375 405.339844 170.660156 C 408.875 165.53125 412.8125 167.382812 416.300781 168.972656 C 418.640625 170.050781 421.078125 171.175781 423.957031 170.964844 C 424.800781 170.894531 425.691406 170.753906 426.675781 170.589844 C 428.921875 170.214844 431.476562 169.816406 434.03125 170.238281 C 441.289062 171.410156 445.550781 179.464844 449.347656 186.5625 C 450.28125 188.34375 451.195312 190.027344 452.0625 191.480469 L 452.109375 191.574219 C 466.183594 219.046875 490.566406 239.164062 522.671875 249.75 C 532.019531 252.839844 541.832031 254.386719 549.324219 255.371094 C 562.769531 257.101562 576.796875 259.5625 587.289062 268.53125 C 595.296875 275.394531 601.082031 284.480469 606.679688 293.261719 C 612.769531 302.839844 619.070312 312.726562 628.15625 319.445312 L 628.179688 319.46875 C 630.148438 321.015625 632.371094 322.492188 634.527344 323.894531 C 639.023438 326.871094 643.660156 329.9375 646.941406 334.082031 C 654.269531 343.265625 650.6875 356.050781 647.359375 364.859375 C 640.96875 382.117188 633.332031 396.125 624.011719 407.714844 C 620.054688 412.773438 615.628906 417.785156 611.339844 422.632812 C 606.164062 428.488281 600.824219 434.53125 596.304688 440.667969 L 596.28125 440.691406 C 590.167969 448.722656 583.730469 460.199219 580.636719 468.585938 L 580.613281 468.632812 C 580.496094 468.914062 580.378906 469.214844 580.261719 469.496094 C 579.535156 471.324219 578.765625 473.222656 577.757812 475 C 573.542969 482.191406 567.757812 481.722656 561.714844 480.527344 C 553.238281 478.9375 547.335938 480.035156 543.121094 483.996094 C 532.699219 493.855469 525.15625 516.828125 524.148438 532.472656 C 523.867188 537.085938 524.007812 541.398438 524.617188 545.613281 C 525.15625 549.476562 526.023438 552.566406 526.914062 555.847656 C 527.382812 557.507812 527.847656 559.21875 528.269531 561.023438 C 529.535156 565.730469 529.113281 569.476562 526.984375 572.476562 C 525.085938 575.167969 521.808594 577.277344 516.703125 579.101562 C 513 580.4375 509.042969 581.539062 505.203125 582.59375 C 500.261719 583.949219 495.132812 585.355469 490.378906 587.347656 L 490.355469 587.347656 C 478.878906 591.890625 468.855469 600.226562 462.109375 610.859375 L 462.085938 610.90625 C 460.28125 613.554688 458.574219 616.503906 456.933594 619.363281 C 453.515625 625.261719 449.976562 631.375 445.152344 635.824219 C 437.777344 642.429688 427.730469 644.5625 418.011719 646.621094 C 414.378906 647.394531 410.632812 648.191406 407.191406 649.199219 L 407.167969 649.199219 C 398.335938 651.609375 391.757812 654.5625 386.394531 658.472656 L 386.371094 658.496094 C 377.632812 664.515625 373.394531 673.929688 369.296875 683.039062 C 366.089844 690.160156 363.066406 696.882812 358.078125 701.894531 C 352.433594 707.5625 344.941406 710.089844 335.222656 709.621094 C 331.378906 709.433594 327.421875 708.964844 323.582031 708.519531 C 316.25 707.679688 308.664062 706.789062 301.402344 707.679688 C 288.683594 709.105469 276.179688 713.554688 264.117188 717.867188 C 259.878906 719.386719 255.5 720.933594 251.191406 722.339844 L 251.167969 722.339844 C 249.035156 722.996094 246.90625 723.71875 244.84375 724.421875 C 239.363281 726.296875 234.1875 728.078125 229.246094 728.429688 L 229.222656 728.429688 C 228.871094 728.476562 228.636719 728.476562 228.402344 728.476562 Z M 221.890625 721.097656 C 223.929688 724.492188 225.710938 725.59375 228.941406 725.429688 C 233.484375 725.101562 238.472656 723.394531 243.765625 721.566406 C 245.851562 720.863281 248.003906 720.113281 250.160156 719.457031 C 254.421875 718.078125 258.777344 716.53125 262.992188 715.03125 C 275.242188 710.675781 287.890625 706.15625 300.957031 704.679688 C 308.570312 703.742188 316.34375 704.65625 323.839844 705.523438 C 327.796875 705.992188 331.542969 706.414062 335.269531 706.601562 C 354.847656 707.5625 360.210938 695.617188 366.417969 681.800781 C 370.679688 672.3125 375.082031 662.523438 384.519531 656.015625 C 390.164062 651.890625 397.074219 648.800781 406.253906 646.269531 C 409.8125 645.242188 413.605469 644.421875 417.285156 643.648438 C 426.605469 641.65625 436.253906 639.621094 443 633.578125 C 447.472656 629.457031 450.890625 623.554688 454.195312 617.839844 C 455.878906 614.957031 457.589844 611.960938 459.464844 609.222656 C 466.535156 598.074219 477.074219 589.3125 489.136719 584.535156 C 494.054688 582.476562 499.277344 581.046875 504.3125 579.664062 C 508.269531 578.585938 511.992188 577.558594 515.601562 576.246094 C 524.617188 573.015625 527.21875 569.101562 525.25 561.773438 L 525.226562 561.726562 C 524.828125 559.96875 524.359375 558.28125 523.890625 556.644531 C 523 553.410156 522.089844 550.085938 521.503906 546.035156 C 520.871094 541.609375 520.707031 537.085938 521.011719 532.261719 C 522.066406 516.054688 529.980469 492.121094 540.941406 481.769531 C 547.5 475.609375 556.210938 476.382812 562.207031 477.53125 C 568.671875 478.820312 572.066406 478.515625 575.039062 473.457031 C 575.953125 471.886719 576.632812 470.175781 577.359375 468.375 C 577.476562 468.09375 577.59375 467.8125 577.710938 467.507812 C 580.894531 458.886719 587.5 447.109375 593.777344 438.863281 C 598.367188 432.636719 603.753906 426.523438 608.976562 420.621094 C 613.238281 415.796875 617.640625 410.808594 621.550781 405.820312 C 630.6875 394.484375 638.15625 380.761719 644.433594 363.804688 C 647.757812 354.976562 650.757812 343.851562 644.480469 335.980469 C 641.507812 332.210938 637.054688 329.28125 632.769531 326.425781 C 630.570312 324.972656 628.320312 323.476562 626.257812 321.859375 C 616.726562 314.785156 610.289062 304.667969 604.035156 294.855469 C 598.554688 286.261719 592.910156 277.359375 585.25 270.804688 C 575.390625 262.347656 562.417969 260.101562 548.878906 258.34375 C 541.246094 257.335938 531.269531 255.746094 521.691406 252.582031 C 488.855469 241.761719 463.84375 221.152344 449.394531 192.957031 C 448.480469 191.433594 447.566406 189.746094 446.605469 187.945312 C 443.164062 181.457031 439.273438 174.125 433.492188 173.1875 C 431.429688 172.839844 429.226562 173.210938 427.097656 173.539062 C 426.066406 173.703125 425.105469 173.867188 424.144531 173.9375 C 420.445312 174.21875 417.402344 172.816406 414.964844 171.667969 C 411.171875 169.910156 409.765625 169.441406 407.777344 172.324219 C 403.746094 178.015625 401.171875 187.664062 401.640625 195.296875 L 401.640625 195.320312 C 401.875 200.332031 403.464844 205.320312 405.035156 210.144531 C 405.433594 211.339844 405.832031 212.582031 406.183594 213.777344 C 407.964844 219.351562 407.425781 223.542969 404.519531 226.5625 C 402.578125 228.578125 400.585938 230.355469 398.640625 232.066406 C 393.652344 236.492188 388.945312 240.683594 386.464844 247.898438 L 386.464844 247.921875 C 385.222656 251.339844 384.308594 255.019531 383.417969 258.601562 C 382.503906 262.230469 381.570312 266.003906 380.28125 269.609375 C 378.523438 274.386719 376.300781 279.257812 374.121094 283.941406 C 369.882812 293.121094 365.503906 302.609375 364.542969 312.046875 L 364.542969 312.070312 C 363.582031 319.679688 367.46875 326.355469 371.570312 333.40625 C 372.011719 334.152344 372.433594 334.902344 372.855469 335.652344 C 373.980469 337.550781 375.152344 339.492188 376.417969 341.554688 C 378.453125 344.925781 380.585938 348.441406 382.480469 351.765625 C 385.574219 357.292969 388.03125 361.953125 389.34375 367.363281 C 391.21875 374.367188 389.085938 382.210938 386.746094 389.660156 C 385.808594 392.726562 384.824219 395.867188 383.863281 398.886719 C 383.207031 400.972656 382.550781 403.078125 381.875 405.210938 C 378.617188 415.5625 375.246094 426.359375 371.847656 437.132812 C 368.007812 449.332031 364.191406 461.535156 360.5625 473.105469 C 360.210938 474.207031 359.882812 475.28125 359.554688 476.335938 C 359.109375 477.742188 358.664062 479.148438 358.21875 480.550781 L 358.195312 480.597656 C 357.492188 482.589844 356.882812 484.558594 356.296875 486.429688 C 354.589844 492.003906 352.949219 497.296875 349.273438 501.394531 L 349.226562 501.441406 C 346.601562 504.089844 343.019531 505.5625 339.554688 506.96875 L 339.414062 507.015625 C 321.074219 514.089844 289.457031 526.152344 255.992188 538.890625 C 221.492188 552.03125 185.824219 565.636719 166.433594 573.128906 C 165.941406 573.363281 165.425781 573.574219 164.933594 573.785156 C 162.359375 574.886719 160.109375 575.847656 159.40625 577.769531 L 159.359375 577.910156 C 158.613281 579.617188 161.5625 586.410156 162.6875 588.984375 L 162.921875 589.523438 C 163.484375 590.8125 164.066406 592.125 164.628906 593.4375 C 165.542969 595.519531 166.503906 597.699219 167.488281 599.851562 C 174.511719 615.238281 182.359375 633.085938 189.925781 650.347656 C 201.09375 675.710938 212.523438 701.800781 221.890625 721.097656 Z M 584.828125 491.136719 C 584.292969 491.136719 583.777344 491.066406 583.285156 490.949219 C 581.996094 490.597656 580.941406 489.804688 580.285156 488.632812 L 580.214844 488.492188 C 579.070312 485.84375 580.097656 483.316406 581.152344 481.136719 L 581.175781 481.113281 C 582.746094 478.046875 585.039062 475.492188 587.242188 473.011719 C 588.132812 472.003906 589.070312 470.972656 589.910156 469.917969 C 591.621094 467.835938 593.097656 465.492188 594.246094 463.128906 L 594.292969 463.035156 C 594.667969 462.355469 595.0625 461.394531 595.460938 460.386719 C 596.679688 457.367188 597.945312 454.226562 600.519531 454.367188 L 600.730469 454.390625 C 604.527344 455.046875 605.953125 460.878906 606.164062 462.917969 C 606.960938 468.773438 603.425781 473.246094 600.308594 477.203125 L 599.84375 477.789062 C 598.882812 479.054688 597.875 480.457031 596.609375 482.332031 L 596.515625 482.496094 C 594.714844 485.140625 592.863281 487.882812 589.910156 489.640625 C 588.15625 490.621094 586.398438 491.136719 584.828125 491.136719 Z M 582.957031 487.179688 C 583.214844 487.601562 583.566406 487.882812 584.058594 488 C 585.132812 488.28125 586.75 487.90625 588.296875 486.992188 C 590.636719 485.585938 592.300781 483.128906 593.917969 480.738281 L 594.011719 480.597656 C 595.296875 478.679688 596.351562 477.226562 597.359375 475.890625 L 597.828125 475.28125 C 600.847656 471.464844 603.707031 467.835938 603.050781 463.269531 L 603.050781 463.199219 C 602.816406 460.878906 601.550781 457.882812 600.308594 457.390625 C 599.679688 457.859375 598.695312 460.292969 598.203125 461.488281 C 597.757812 462.589844 597.335938 463.621094 596.890625 464.4375 C 595.648438 467.015625 594.035156 469.566406 592.207031 471.816406 C 591.316406 472.917969 590.355469 473.972656 589.445312 475 C 587.265625 477.4375 585.226562 479.730469 583.824219 482.449219 C 582.722656 484.8125 582.488281 486.03125 582.957031 487.179688 Z M 600.402344 455.84375 L 600.402344 456.007812 Z M 425.082031 138.621094 C 424.917969 138.621094 424.753906 138.621094 424.566406 138.597656 C 422.203125 138.363281 420.234375 136.492188 419.929688 134.148438 C 419.71875 132.953125 420.046875 131.6875 420.796875 130.707031 C 421.523438 129.746094 422.578125 129.136719 423.769531 129.019531 L 423.792969 129.019531 C 425.433594 128.808594 427.097656 129.511719 428.222656 130.894531 C 429.34375 132.25 429.71875 133.984375 429.226562 135.554688 L 429.226562 135.578125 C 428.527344 137.496094 426.980469 138.621094 425.082031 138.621094 Z M 424.332031 132.039062 C 424.261719 132.039062 424.214844 132.039062 424.144531 132.0625 L 424.050781 132.0625 C 423.609375 132.109375 423.328125 132.390625 423.210938 132.554688 C 422.976562 132.882812 422.859375 133.28125 422.929688 133.65625 L 422.929688 133.726562 C 423.070312 134.804688 424.027344 135.484375 424.871094 135.578125 C 425.574219 135.648438 426.042969 135.320312 426.300781 134.59375 C 426.464844 134.054688 426.300781 133.398438 425.855469 132.835938 C 425.433594 132.34375 424.871094 132.039062 424.332031 132.039062 Z M 424.589844 115.859375 C 424.542969 115.859375 424.472656 115.859375 424.425781 115.859375 C 423.675781 115.835938 423.070312 115.414062 422.695312 114.734375 L 422.648438 114.617188 C 422.390625 113.984375 422.34375 113.398438 422.296875 112.8125 L 422.273438 112.601562 L 422.226562 111.992188 C 422.15625 110.960938 422.109375 109.910156 421.945312 108.878906 C 421.710938 107.144531 421.171875 105.296875 420.421875 103.632812 C 420.09375 102.859375 419.71875 102.15625 419.390625 101.476562 C 418.664062 100.074219 417.988281 98.714844 417.660156 97.144531 L 417.636719 97.074219 C 416.605469 91.359375 422.039062 86.746094 425.363281 84.476562 L 425.410156 84.453125 C 430 81.59375 433.492188 81.265625 435.738281 83.492188 L 435.832031 83.609375 C 440.46875 89.113281 433.84375 104.828125 430.539062 109.863281 C 426.957031 115.507812 425.339844 115.859375 424.589844 115.859375 Z M 420.632812 96.488281 C 420.890625 97.660156 421.453125 98.785156 422.085938 100.074219 C 422.460938 100.796875 422.835938 101.523438 423.1875 102.367188 C 424.074219 104.3125 424.683594 106.417969 424.941406 108.433594 C 425.105469 109.582031 425.175781 110.707031 425.246094 111.78125 L 425.246094 111.921875 C 425.925781 111.171875 426.863281 109.933594 427.988281 108.175781 C 429.507812 105.855469 431.78125 101.101562 433.210938 96.089844 C 434.636719 91.054688 434.777344 87.144531 433.5625 85.597656 C 432.414062 84.570312 430.210938 85.035156 427.027344 87.003906 C 424.847656 88.503906 419.882812 92.367188 420.632812 96.488281 Z M 420.632812 96.488281 "/></g></svg>