<svg xmlns="http://www.w3.org/2000/svg" xmlns:xlink="http://www.w3.org/1999/xlink" width="1080" zoomAndPan="magnify" viewBox="0 0 810 809.999993" height="1080" preserveAspectRatio="xMidYMid meet" version="1.2"><defs><linearGradient x1="0" gradientTransform="matrix(0.75,0,0,0.75,0.0000035,0.00002)" y1="0" x2="1079.999955" gradientUnits="userSpaceOnUse" y2="1079.999955" id="6b7c80d52b"><stop style="stop-color:#12395c;stop-opacity:1;" offset="0"/><stop style="stop-color:#12395c;stop-opacity:1;" offset="0.0078125"/><stop style="stop-color:#12385b;stop-opacity:1;" offset="0.015625"/><stop style="stop-color:#12385a;stop-opacity:1;" offset="0.0234375"/><stop style="stop-color:#12385a;stop-opacity:1;" offset="0.03125"/><stop style="stop-color:#113759;stop-opacity:1;" offset="0.0390625"/><stop style="stop-color:#113758;stop-opacity:1;" offset="0.046875"/><stop style="stop-color:#113657;stop-opacity:1;" offset="0.0546875"/><stop style="stop-color:#113657;stop-opacity:1;" offset="0.0625"/><stop style="stop-color:#113556;stop-opacity:1;" offset="0.0703125"/><stop style="stop-color:#113555;stop-opacity:1;" offset="0.078125"/><stop style="stop-color:#113455;stop-opacity:1;" offset="0.0859375"/><stop style="stop-color:#103454;stop-opacity:1;" offset="0.09375"/><stop style="stop-color:#103453;stop-opacity:1;" offset="0.101562"/><stop style="stop-color:#103352;stop-opacity:1;" offset="0.109375"/><stop style="stop-color:#103352;stop-opacity:1;" offset="0.117188"/><stop style="stop-color:#103251;stop-opacity:1;" offset="0.125"/><stop style="stop-color:#103250;stop-opacity:1;" offset="0.132812"/><stop style="stop-color:#10314f;stop-opacity:1;" offset="0.140625"/><stop style="stop-color:#0f314f;stop-opacity:1;" offset="0.148437"/><stop style="stop-color:#0f304e;stop-opacity:1;" offset="0.15625"/><stop style="stop-color:#0f304d;stop-opacity:1;" offset="0.164062"/><stop style="stop-color:#0f304d;stop-opacity:1;" offset="0.171875"/><stop style="stop-color:#0f2f4c;stop-opacity:1;" offset="0.179687"/><stop style="stop-color:#0f2f4b;stop-opacity:1;" offset="0.1875"/><stop style="stop-color:#0f2e4a;stop-opacity:1;" offset="0.195312"/><stop style="stop-color:#0e2e4a;stop-opacity:1;" offset="0.203125"/><stop style="stop-color:#0e2d49;stop-opacity:1;" offset="0.210938"/><stop style="stop-color:#0e2d48;stop-opacity:1;" offset="0.21875"/><stop style="stop-color:#0e2c48;stop-opacity:1;" offset="0.226562"/><stop style="stop-color:#0e2c47;stop-opacity:1;" offset="0.234375"/><stop style="stop-color:#0e2c46;stop-opacity:1;" offset="0.242188"/><stop style="stop-color:#0e2b45;stop-opacity:1;" offset="0.25"/><stop style="stop-color:#0e2b45;stop-opacity:1;" offset="0.257812"/><stop style="stop-color:#0d2a44;stop-opacity:1;" offset="0.265625"/><stop style="stop-color:#0d2a43;stop-opacity:1;" offset="0.273437"/><stop style="stop-color:#0d2943;stop-opacity:1;" offset="0.28125"/><stop style="stop-color:#0d2942;stop-opacity:1;" offset="0.289062"/><stop style="stop-color:#0d2841;stop-opacity:1;" offset="0.296875"/><stop style="stop-color:#0d2840;stop-opacity:1;" offset="0.304687"/><stop style="stop-color:#0d2740;stop-opacity:1;" offset="0.3125"/><stop style="stop-color:#0c273f;stop-opacity:1;" offset="0.320312"/><stop style="stop-color:#0c273e;stop-opacity:1;" offset="0.328125"/><stop style="stop-color:#0c263d;stop-opacity:1;" offset="0.335937"/><stop style="stop-color:#0c263d;stop-opacity:1;" offset="0.34375"/><stop style="stop-color:#0c253c;stop-opacity:1;" offset="0.351562"/><stop style="stop-color:#0c253b;stop-opacity:1;" offset="0.359375"/><stop style="stop-color:#0c243b;stop-opacity:1;" offset="0.367187"/><stop style="stop-color:#0b243a;stop-opacity:1;" offset="0.375"/><stop style="stop-color:#0b2339;stop-opacity:1;" offset="0.382812"/><stop style="stop-color:#0b2338;stop-opacity:1;" offset="0.390625"/><stop style="stop-color:#0b2338;stop-opacity:1;" offset="0.398438"/><stop style="stop-color:#0b2237;stop-opacity:1;" offset="0.40625"/><stop style="stop-color:#0b2236;stop-opacity:1;" offset="0.414062"/><stop style="stop-color:#0b2136;stop-opacity:1;" offset="0.421875"/><stop style="stop-color:#0a2135;stop-opacity:1;" offset="0.429688"/><stop style="stop-color:#0a2034;stop-opacity:1;" offset="0.4375"/><stop style="stop-color:#0a2033;stop-opacity:1;" offset="0.445312"/><stop style="stop-color:#0a1f33;stop-opacity:1;" offset="0.453125"/><stop style="stop-color:#0a1f32;stop-opacity:1;" offset="0.460938"/><stop style="stop-color:#0a1f31;stop-opacity:1;" offset="0.46875"/><stop style="stop-color:#0a1e31;stop-opacity:1;" offset="0.476562"/><stop style="stop-color:#091e30;stop-opacity:1;" offset="0.484375"/><stop style="stop-color:#091d2f;stop-opacity:1;" offset="0.492188"/><stop style="stop-color:#091d2e;stop-opacity:1;" offset="0.5"/><stop style="stop-color:#091c2e;stop-opacity:1;" offset="0.507812"/><stop style="stop-color:#091c2d;stop-opacity:1;" offset="0.515625"/><stop style="stop-color:#091b2c;stop-opacity:1;" offset="0.523437"/><stop style="stop-color:#091b2c;stop-opacity:1;" offset="0.53125"/><stop style="stop-color:#081b2b;stop-opacity:1;" offset="0.539062"/><stop style="stop-color:#081a2a;stop-opacity:1;" offset="0.546875"/><stop style="stop-color:#081a29;stop-opacity:1;" offset="0.554687"/><stop style="stop-color:#081929;stop-opacity:1;" offset="0.5625"/><stop style="stop-color:#081928;stop-opacity:1;" offset="0.570312"/><stop style="stop-color:#081827;stop-opacity:1;" offset="0.578125"/><stop style="stop-color:#081826;stop-opacity:1;" offset="0.585937"/><stop style="stop-color:#071726;stop-opacity:1;" offset="0.59375"/><stop style="stop-color:#071725;stop-opacity:1;" offset="0.601562"/><stop style="stop-color:#071724;stop-opacity:1;" offset="0.609375"/><stop style="stop-color:#071624;stop-opacity:1;" offset="0.617187"/><stop style="stop-color:#071623;stop-opacity:1;" offset="0.625"/><stop style="stop-color:#071522;stop-opacity:1;" offset="0.632812"/><stop style="stop-color:#071521;stop-opacity:1;" offset="0.640625"/><stop style="stop-color:#061421;stop-opacity:1;" offset="0.648437"/><stop style="stop-color:#061420;stop-opacity:1;" offset="0.65625"/><stop style="stop-color:#06131f;stop-opacity:1;" offset="0.664062"/><stop style="stop-color:#06131f;stop-opacity:1;" offset="0.671875"/><stop style="stop-color:#06131e;stop-opacity:1;" offset="0.679687"/><stop style="stop-color:#06121d;stop-opacity:1;" offset="0.6875"/><stop style="stop-color:#06121c;stop-opacity:1;" offset="0.695312"/><stop style="stop-color:#05111c;stop-opacity:1;" offset="0.703125"/><stop style="stop-color:#05111b;stop-opacity:1;" offset="0.710937"/><stop style="stop-color:#05101a;stop-opacity:1;" offset="0.71875"/><stop style="stop-color:#05101a;stop-opacity:1;" offset="0.726562"/><stop style="stop-color:#050f19;stop-opacity:1;" offset="0.734375"/><stop style="stop-color:#050f18;stop-opacity:1;" offset="0.742187"/><stop style="stop-color:#050f17;stop-opacity:1;" offset="0.75"/><stop style="stop-color:#040e17;stop-opacity:1;" offset="0.757812"/><stop style="stop-color:#040e16;stop-opacity:1;" offset="0.765625"/><stop style="stop-color:#040d15;stop-opacity:1;" offset="0.773438"/><stop style="stop-color:#040d14;stop-opacity:1;" offset="0.78125"/><stop style="stop-color:#040c14;stop-opacity:1;" offset="0.789062"/><stop style="stop-color:#040c13;stop-opacity:1;" offset="0.796875"/><stop style="stop-color:#040b12;stop-opacity:1;" offset="0.804688"/><stop style="stop-color:#030b12;stop-opacity:1;" offset="0.8125"/><stop style="stop-color:#030a11;stop-opacity:1;" offset="0.820312"/><stop style="stop-color:#030a10;stop-opacity:1;" offset="0.828125"/><stop style="stop-color:#030a0f;stop-opacity:1;" offset="0.835938"/><stop style="stop-color:#03090f;stop-opacity:1;" offset="0.84375"/><stop style="stop-color:#03090e;stop-opacity:1;" offset="0.851562"/><stop style="stop-color:#03080d;stop-opacity:1;" offset="0.859375"/><stop style="stop-color:#02080d;stop-opacity:1;" offset="0.867188"/><stop style="stop-color:#02070c;stop-opacity:1;" offset="0.875"/><stop style="stop-color:#02070b;stop-opacity:1;" offset="0.882812"/><stop style="stop-color:#02060a;stop-opacity:1;" offset="0.890625"/><stop style="stop-color:#02060a;stop-opacity:1;" offset="0.898438"/><stop style="stop-color:#020609;stop-opacity:1;" offset="0.90625"/><stop style="stop-color:#020508;stop-opacity:1;" offset="0.914062"/><stop style="stop-color:#010508;stop-opacity:1;" offset="0.921875"/><stop style="stop-color:#010407;stop-opacity:1;" offset="0.929688"/><stop style="stop-color:#010406;stop-opacity:1;" offset="0.9375"/><stop style="stop-color:#010305;stop-opacity:1;" offset="0.945312"/><stop style="stop-color:#010305;stop-opacity:1;" offset="0.953125"/><stop style="stop-color:#010204;stop-opacity:1;" offset="0.960938"/><stop style="stop-color:#010203;stop-opacity:1;" offset="0.96875"/><stop style="stop-color:#000203;stop-opacity:1;" offset="0.976562"/><stop style="stop-color:#000102;stop-opacity:1;" offset="0.984375"/><stop style="stop-color:#000101;stop-opacity:1;" offset="0.992188"/><stop style="stop-color:#000000;stop-opacity:1;" offset="1"/></linearGradient><clipPath id="6e6eb33b6e"><path d="M 81 137.296875 L 729 137.296875 L 729 672.796875 L 81 672.796875 Z M 81 137.296875 "/></clipPath></defs><g id="809fa59083"><rect x="0" width="810" y="0" height="809.999993" style="fill:#ffffff;fill-opacity:1;stroke:none;"/><rect x="0" width="810" y="0" height="809.999993" style="fill:url(#linear0);stroke:none;"/><g clip-rule="nonzero" clip-path="url(#6e6eb33b6e)"><path style=" stroke:none;fill-rule:nonzero;fill:#ffffff;fill-opacity:1;" d="M 702.625 542.933594 C 687.050781 549.855469 622.804688 577.167969 568.378906 582.609375 C 505.863281 588.867188 485.855469 607.839844 468.964844 642.960938 L 468.652344 643.621094 L 468.5625 643.972656 C 468.433594 644.308594 467.878906 645.585938 466.761719 646.304688 C 465.515625 644.898438 463.730469 641.714844 462.789062 639.074219 L 461.078125 634.273438 L 432.792969 634.074219 L 431.359375 631.195312 L 416.496094 631.75 L 415.417969 629.074219 L 367.140625 629.074219 L 367.109375 628.925781 L 363.601562 628.839844 L 363.261719 626.539062 L 360.617188 626.347656 L 360.171875 623.234375 L 337.085938 623.234375 L 337.085938 638.683594 C 336.882812 638.855469 336.6875 639.046875 336.5 639.234375 C 335.035156 640.78125 334.238281 642.878906 334.316406 645.007812 L 334.765625 657.050781 C 334.765625 657.121094 334.773438 657.195312 334.773438 657.269531 C 332.269531 651.804688 329.039062 645.898438 325.246094 641.421875 L 325.328125 638.558594 C 325.398438 635.910156 324.375 633.324219 322.515625 631.449219 L 302.222656 611.015625 L 301.726562 610.734375 C 301.175781 610.320312 298.714844 608.226562 299.015625 604.34375 C 299.242188 601.441406 298.09375 598.566406 295.9375 596.65625 L 289.914062 591.328125 C 288.03125 580.59375 279.351562 546.019531 244.308594 531.878906 C 241.578125 529.425781 232.25 520.441406 228.441406 508.683594 L 228.796875 508.585938 L 228.414062 489.535156 L 225.1875 489.066406 L 224.90625 484.085938 L 224.652344 484.042969 L 224.761719 483.066406 C 225.121094 479.941406 227.8125 452.429688 213.457031 441.570312 C 212.472656 432.136719 206.59375 410.472656 174.445312 397.773438 C 173.792969 397.519531 173.253906 397.058594 172.925781 396.492188 L 166.316406 385.027344 C 166.066406 384.597656 165.933594 384.105469 165.921875 383.609375 L 165.757812 374.761719 C 165.679688 370.644531 164.144531 366.664062 161.4375 363.566406 L 151.339844 352.019531 L 156.136719 350.027344 L 122.871094 305.148438 L 104.890625 274.582031 C 103.179688 271.675781 100.289062 269.691406 96.953125 269.144531 L 90.632812 268.121094 L 93.355469 262.148438 C 94.566406 259.484375 95.179688 256.660156 95.179688 253.738281 L 95.179688 245.71875 L 98.816406 245.71875 L 98.816406 243.652344 C 99.332031 243.75 99.855469 243.800781 100.390625 243.800781 L 100.5625 243.800781 L 106.515625 243.53125 C 108.132812 245.566406 110.621094 246.867188 113.40625 246.867188 L 124.3125 246.867188 C 127.125 246.867188 129.808594 245.8125 131.878906 243.910156 L 149.515625 227.59375 C 150.519531 226.664062 151.269531 225.503906 151.71875 224.242188 L 155.257812 224.242188 L 155.257812 222.296875 L 156.71875 222.5 C 157.136719 222.566406 157.554688 222.59375 157.96875 222.59375 C 160.855469 222.59375 163.5625 221.171875 165.210938 218.804688 L 165.554688 218.308594 L 168.21875 218.308594 C 171.101562 218.308594 173.804688 216.902344 175.453125 214.535156 L 182.871094 203.898438 C 183.300781 203.875 183.75 203.855469 184.21875 203.820312 C 188.363281 203.511719 191.640625 200.152344 191.84375 195.996094 C 191.921875 194.328125 191.933594 192.992188 191.871094 192.015625 C 191.726562 189.617188 190.746094 187.320312 189.117188 185.542969 L 168.023438 162.574219 L 216.273438 150.402344 C 218.605469 149.8125 220.660156 148.535156 222.21875 146.707031 L 223.597656 145.09375 L 260.339844 152.304688 L 306.976562 179.699219 L 382.5625 242.53125 C 385.941406 245.339844 390.21875 247 394.605469 247.203125 L 472.363281 250.839844 L 473.265625 252.265625 L 475.179688 261.410156 C 476.105469 265.851562 480.074219 269.074219 484.605469 269.074219 L 536.464844 268.015625 C 538.898438 268.015625 541.238281 269.175781 542.710938 271.113281 L 563.449219 298.296875 C 564.03125 299.054688 564.25 300.03125 564.070312 300.964844 L 555.722656 342.382812 C 555 345.949219 555.375 349.597656 556.785156 352.953125 L 575.171875 396.34375 C 576.917969 400.46875 580.941406 403.136719 585.429688 403.136719 L 593.957031 403.136719 L 593.957031 408.636719 C 593.957031 412.046875 595.136719 415.394531 597.289062 418.046875 L 624.9375 452.175781 C 627.058594 454.800781 630.050781 456.617188 633.363281 457.277344 L 703.007812 471.355469 C 703.691406 471.492188 704.390625 471.566406 705.089844 471.566406 C 707.660156 471.566406 710.105469 470.640625 712.03125 468.949219 L 721.140625 484.890625 Z M 728.1875 482.542969 L 714.40625 458.414062 C 714.070312 457.832031 713.28125 457.714844 712.796875 458.179688 L 707.3125 463.386719 C 706.554688 464.105469 705.484375 464.414062 704.445312 464.210938 L 634.800781 450.136719 C 633.140625 449.796875 631.65625 448.902344 630.597656 447.589844 L 602.960938 413.460938 C 601.847656 412.089844 601.246094 410.394531 601.246094 408.636719 L 601.246094 399.296875 C 601.246094 397.394531 599.707031 395.847656 597.796875 395.847656 L 585.429688 395.847656 C 583.882812 395.847656 582.480469 394.921875 581.886719 393.503906 L 563.5 350.101562 C 562.664062 348.121094 562.433594 345.933594 562.867188 343.816406 L 571.214844 302.40625 C 571.816406 299.414062 571.101562 296.304688 569.246094 293.878906 L 548.503906 266.691406 C 545.574219 262.847656 540.992188 260.628906 536.152344 260.734375 L 484.65625 261.785156 C 483.527344 261.804688 482.542969 261.019531 482.3125 259.917969 L 480.246094 250.0625 C 480.167969 249.675781 480.023438 249.304688 479.8125 248.976562 L 477.414062 245.191406 C 476.835938 244.28125 475.851562 243.707031 474.773438 243.652344 L 394.945312 239.921875 C 392.117188 239.789062 389.402344 238.742188 387.226562 236.925781 L 311.179688 173.714844 L 262.964844 145.390625 L 223.246094 137.59375 C 221.746094 137.304688 220.207031 137.835938 219.214844 139 L 216.671875 141.976562 C 216.105469 142.640625 215.339844 143.113281 214.492188 143.332031 L 159.390625 157.230469 C 157.128906 157.808594 156.296875 160.582031 157.875 162.304688 L 183.746094 190.480469 C 184.25 191.023438 184.550781 191.726562 184.597656 192.46875 C 184.652344 193.367188 184.601562 194.757812 184.558594 195.648438 C 184.535156 196.128906 184.164062 196.515625 183.683594 196.550781 C 182.800781 196.613281 181.40625 196.6875 180.449219 196.601562 C 179.636719 196.535156 178.851562 196.914062 178.390625 197.578125 L 169.472656 210.363281 C 169.1875 210.78125 168.71875 211.019531 168.21875 211.019531 L 162.546875 211.019531 C 162.042969 211.019531 161.574219 211.265625 161.289062 211.675781 L 159.222656 214.640625 C 158.894531 215.121094 158.324219 215.371094 157.75 215.285156 L 149.050781 214.042969 C 148.480469 213.964844 147.96875 214.410156 147.96875 214.984375 L 147.96875 216.953125 L 145.96875 216.953125 C 145.382812 216.953125 144.910156 217.425781 144.910156 218.011719 L 144.910156 221.457031 C 144.910156 221.757812 144.785156 222.042969 144.566406 222.238281 L 126.933594 238.550781 C 126.21875 239.210938 125.28125 239.578125 124.3125 239.578125 L 113.40625 239.578125 C 112.578125 239.578125 111.902344 238.902344 111.902344 238.070312 L 111.902344 237.351562 C 111.902344 236.605469 111.285156 236.015625 110.542969 236.050781 L 100.445312 236.511719 C 99.808594 236.542969 99.273438 236.027344 99.273438 235.386719 L 99.273438 234.460938 C 99.273438 233.878906 98.800781 233.40625 98.214844 233.40625 L 92.585938 233.40625 C 92 233.40625 91.527344 233.878906 91.527344 234.460938 L 91.527344 238.429688 L 88.828125 238.429688 C 88.3125 238.429688 87.890625 238.851562 87.890625 239.367188 L 87.890625 253.738281 C 87.890625 255.59375 87.492188 257.433594 86.722656 259.121094 L 82.230469 268.980469 C 81.132812 271.398438 82.628906 274.199219 85.253906 274.628906 L 95.78125 276.347656 C 96.964844 276.535156 98 277.246094 98.605469 278.277344 L 116.78125 309.179688 L 144.714844 346.875 L 139.167969 349.164062 L 155.941406 368.363281 C 157.527344 370.175781 158.421875 372.488281 158.46875 374.898438 L 158.632812 383.742188 C 158.667969 385.46875 159.136719 387.160156 160 388.660156 L 166.609375 400.128906 C 167.773438 402.148438 169.597656 403.703125 171.769531 404.554688 C 201.105469 416.140625 205.625 435.535156 206.257812 442.859375 C 206.40625 444.621094 207.386719 446.167969 208.824219 447.210938 C 220.554688 455.6875 217.519531 482.238281 217.519531 482.238281 L 214.792969 482.238281 L 214.652344 489.699219 L 217.953125 490.277344 L 218.238281 495.445312 L 221.25 495.875 L 221.398438 503.046875 L 219.816406 503.476562 C 222.398438 523.566406 240.480469 538.207031 240.480469 538.207031 C 275.621094 551.683594 282.179688 588.503906 283 594.269531 C 283.074219 594.769531 283.320312 595.230469 283.703125 595.5625 L 291.105469 602.117188 C 291.574219 602.535156 291.796875 603.152344 291.746094 603.777344 C 291.066406 612.578125 297.738281 616.84375 297.738281 616.84375 L 317.335938 636.582031 C 317.804688 637.046875 318.058594 637.691406 318.039062 638.351562 L 317.902344 643.324219 C 317.882812 643.886719 318.105469 644.417969 318.5 644.828125 C 325.816406 652.382812 331.4375 668.015625 332.839844 672.164062 C 332.992188 672.605469 333.566406 672.695312 333.863281 672.332031 C 339.046875 665.921875 344.199219 663.488281 345.953125 662.792969 C 346.332031 662.648438 346.578125 662.277344 346.578125 661.867188 L 346.578125 658.601562 C 346.578125 658.050781 346.128906 657.597656 345.574219 657.597656 L 342.898438 657.597656 C 342.441406 657.597656 342.066406 657.238281 342.050781 656.78125 L 341.601562 644.730469 C 341.589844 644.375 341.875 644.070312 342.238281 644.070312 L 343.949219 644.046875 C 344.1875 644.039062 344.378906 643.851562 344.378906 643.609375 L 344.386719 642.707031 C 344.390625 642.277344 344.6875 641.902344 345.105469 641.800781 L 349.429688 640.808594 L 344.957031 639.949219 C 344.609375 639.847656 344.375 639.570312 344.375 639.242188 L 344.375 630.523438 L 353.847656 630.523438 L 354.230469 633.207031 L 356.90625 633.398438 L 357.289062 635.976562 L 361.214844 636.070312 L 361.882812 639.132812 L 369.921875 639.230469 L 369.921875 636.363281 L 410.480469 636.363281 L 411.632812 639.230469 L 426.941406 638.660156 L 428.277344 641.335938 L 455.925781 641.523438 C 455.925781 641.523438 460.808594 655.207031 467.214844 653.863281 C 473.621094 652.53125 475.539062 646.117188 475.539062 646.117188 C 489.886719 616.273438 505.960938 596.175781 569.097656 589.863281 C 626.839844 584.089844 695.621094 554.074219 706.964844 548.984375 C 707.996094 548.519531 708.777344 547.644531 709.121094 546.566406 L 728.523438 485.722656 C 728.867188 484.65625 728.746094 483.503906 728.1875 482.542969 "/></g></g></svg>