<svg xmlns="http://www.w3.org/2000/svg" xmlns:xlink="http://www.w3.org/1999/xlink" width="1080" zoomAndPan="magnify" viewBox="0 0 810 809.999993" height="1080" preserveAspectRatio="xMidYMid meet" version="1.2"><defs><linearGradient x1="0" gradientTransform="matrix(0.75,0,0,0.75,0.0000035,0.00002)" y1="0" x2="1079.999955" gradientUnits="userSpaceOnUse" y2="1079.999955" id="34b3fd1b16"><stop style="stop-color:#12395c;stop-opacity:1;" offset="0"/><stop style="stop-color:#12395c;stop-opacity:1;" offset="0.0078125"/><stop style="stop-color:#12385b;stop-opacity:1;" offset="0.015625"/><stop style="stop-color:#12385a;stop-opacity:1;" offset="0.0234375"/><stop style="stop-color:#12385a;stop-opacity:1;" offset="0.03125"/><stop style="stop-color:#113759;stop-opacity:1;" offset="0.0390625"/><stop style="stop-color:#113758;stop-opacity:1;" offset="0.046875"/><stop style="stop-color:#113657;stop-opacity:1;" offset="0.0546875"/><stop style="stop-color:#113657;stop-opacity:1;" offset="0.0625"/><stop style="stop-color:#113556;stop-opacity:1;" offset="0.0703125"/><stop style="stop-color:#113555;stop-opacity:1;" offset="0.078125"/><stop style="stop-color:#113455;stop-opacity:1;" offset="0.0859375"/><stop style="stop-color:#103454;stop-opacity:1;" offset="0.09375"/><stop style="stop-color:#103453;stop-opacity:1;" offset="0.101562"/><stop style="stop-color:#103352;stop-opacity:1;" offset="0.109375"/><stop style="stop-color:#103352;stop-opacity:1;" offset="0.117188"/><stop style="stop-color:#103251;stop-opacity:1;" offset="0.125"/><stop style="stop-color:#103250;stop-opacity:1;" offset="0.132812"/><stop style="stop-color:#10314f;stop-opacity:1;" offset="0.140625"/><stop style="stop-color:#0f314f;stop-opacity:1;" offset="0.148437"/><stop style="stop-color:#0f304e;stop-opacity:1;" offset="0.15625"/><stop style="stop-color:#0f304d;stop-opacity:1;" offset="0.164062"/><stop style="stop-color:#0f304d;stop-opacity:1;" offset="0.171875"/><stop style="stop-color:#0f2f4c;stop-opacity:1;" offset="0.179687"/><stop style="stop-color:#0f2f4b;stop-opacity:1;" offset="0.1875"/><stop style="stop-color:#0f2e4a;stop-opacity:1;" offset="0.195312"/><stop style="stop-color:#0e2e4a;stop-opacity:1;" offset="0.203125"/><stop style="stop-color:#0e2d49;stop-opacity:1;" offset="0.210938"/><stop style="stop-color:#0e2d48;stop-opacity:1;" offset="0.21875"/><stop style="stop-color:#0e2c48;stop-opacity:1;" offset="0.226562"/><stop style="stop-color:#0e2c47;stop-opacity:1;" offset="0.234375"/><stop style="stop-color:#0e2c46;stop-opacity:1;" offset="0.242188"/><stop style="stop-color:#0e2b45;stop-opacity:1;" offset="0.25"/><stop style="stop-color:#0e2b45;stop-opacity:1;" offset="0.257812"/><stop style="stop-color:#0d2a44;stop-opacity:1;" offset="0.265625"/><stop style="stop-color:#0d2a43;stop-opacity:1;" offset="0.273437"/><stop style="stop-color:#0d2943;stop-opacity:1;" offset="0.28125"/><stop style="stop-color:#0d2942;stop-opacity:1;" offset="0.289062"/><stop style="stop-color:#0d2841;stop-opacity:1;" offset="0.296875"/><stop style="stop-color:#0d2840;stop-opacity:1;" offset="0.304687"/><stop style="stop-color:#0d2740;stop-opacity:1;" offset="0.3125"/><stop style="stop-color:#0c273f;stop-opacity:1;" offset="0.320312"/><stop style="stop-color:#0c273e;stop-opacity:1;" offset="0.328125"/><stop style="stop-color:#0c263d;stop-opacity:1;" offset="0.335937"/><stop style="stop-color:#0c263d;stop-opacity:1;" offset="0.34375"/><stop style="stop-color:#0c253c;stop-opacity:1;" offset="0.351562"/><stop style="stop-color:#0c253b;stop-opacity:1;" offset="0.359375"/><stop style="stop-color:#0c243b;stop-opacity:1;" offset="0.367187"/><stop style="stop-color:#0b243a;stop-opacity:1;" offset="0.375"/><stop style="stop-color:#0b2339;stop-opacity:1;" offset="0.382812"/><stop style="stop-color:#0b2338;stop-opacity:1;" offset="0.390625"/><stop style="stop-color:#0b2338;stop-opacity:1;" offset="0.398438"/><stop style="stop-color:#0b2237;stop-opacity:1;" offset="0.40625"/><stop style="stop-color:#0b2236;stop-opacity:1;" offset="0.414062"/><stop style="stop-color:#0b2136;stop-opacity:1;" offset="0.421875"/><stop style="stop-color:#0a2135;stop-opacity:1;" offset="0.429688"/><stop style="stop-color:#0a2034;stop-opacity:1;" offset="0.4375"/><stop style="stop-color:#0a2033;stop-opacity:1;" offset="0.445312"/><stop style="stop-color:#0a1f33;stop-opacity:1;" offset="0.453125"/><stop style="stop-color:#0a1f32;stop-opacity:1;" offset="0.460938"/><stop style="stop-color:#0a1f31;stop-opacity:1;" offset="0.46875"/><stop style="stop-color:#0a1e31;stop-opacity:1;" offset="0.476562"/><stop style="stop-color:#091e30;stop-opacity:1;" offset="0.484375"/><stop style="stop-color:#091d2f;stop-opacity:1;" offset="0.492188"/><stop style="stop-color:#091d2e;stop-opacity:1;" offset="0.5"/><stop style="stop-color:#091c2e;stop-opacity:1;" offset="0.507812"/><stop style="stop-color:#091c2d;stop-opacity:1;" offset="0.515625"/><stop style="stop-color:#091b2c;stop-opacity:1;" offset="0.523437"/><stop style="stop-color:#091b2c;stop-opacity:1;" offset="0.53125"/><stop style="stop-color:#081b2b;stop-opacity:1;" offset="0.539062"/><stop style="stop-color:#081a2a;stop-opacity:1;" offset="0.546875"/><stop style="stop-color:#081a29;stop-opacity:1;" offset="0.554687"/><stop style="stop-color:#081929;stop-opacity:1;" offset="0.5625"/><stop style="stop-color:#081928;stop-opacity:1;" offset="0.570312"/><stop style="stop-color:#081827;stop-opacity:1;" offset="0.578125"/><stop style="stop-color:#081826;stop-opacity:1;" offset="0.585937"/><stop style="stop-color:#071726;stop-opacity:1;" offset="0.59375"/><stop style="stop-color:#071725;stop-opacity:1;" offset="0.601562"/><stop style="stop-color:#071724;stop-opacity:1;" offset="0.609375"/><stop style="stop-color:#071624;stop-opacity:1;" offset="0.617187"/><stop style="stop-color:#071623;stop-opacity:1;" offset="0.625"/><stop style="stop-color:#071522;stop-opacity:1;" offset="0.632812"/><stop style="stop-color:#071521;stop-opacity:1;" offset="0.640625"/><stop style="stop-color:#061421;stop-opacity:1;" offset="0.648437"/><stop style="stop-color:#061420;stop-opacity:1;" offset="0.65625"/><stop style="stop-color:#06131f;stop-opacity:1;" offset="0.664062"/><stop style="stop-color:#06131f;stop-opacity:1;" offset="0.671875"/><stop style="stop-color:#06131e;stop-opacity:1;" offset="0.679687"/><stop style="stop-color:#06121d;stop-opacity:1;" offset="0.6875"/><stop style="stop-color:#06121c;stop-opacity:1;" offset="0.695312"/><stop style="stop-color:#05111c;stop-opacity:1;" offset="0.703125"/><stop style="stop-color:#05111b;stop-opacity:1;" offset="0.710937"/><stop style="stop-color:#05101a;stop-opacity:1;" offset="0.71875"/><stop style="stop-color:#05101a;stop-opacity:1;" offset="0.726562"/><stop style="stop-color:#050f19;stop-opacity:1;" offset="0.734375"/><stop style="stop-color:#050f18;stop-opacity:1;" offset="0.742187"/><stop style="stop-color:#050f17;stop-opacity:1;" offset="0.75"/><stop style="stop-color:#040e17;stop-opacity:1;" offset="0.757812"/><stop style="stop-color:#040e16;stop-opacity:1;" offset="0.765625"/><stop style="stop-color:#040d15;stop-opacity:1;" offset="0.773438"/><stop style="stop-color:#040d14;stop-opacity:1;" offset="0.78125"/><stop style="stop-color:#040c14;stop-opacity:1;" offset="0.789062"/><stop style="stop-color:#040c13;stop-opacity:1;" offset="0.796875"/><stop style="stop-color:#040b12;stop-opacity:1;" offset="0.804688"/><stop style="stop-color:#030b12;stop-opacity:1;" offset="0.8125"/><stop style="stop-color:#030a11;stop-opacity:1;" offset="0.820312"/><stop style="stop-color:#030a10;stop-opacity:1;" offset="0.828125"/><stop style="stop-color:#030a0f;stop-opacity:1;" offset="0.835938"/><stop style="stop-color:#03090f;stop-opacity:1;" offset="0.84375"/><stop style="stop-color:#03090e;stop-opacity:1;" offset="0.851562"/><stop style="stop-color:#03080d;stop-opacity:1;" offset="0.859375"/><stop style="stop-color:#02080d;stop-opacity:1;" offset="0.867188"/><stop style="stop-color:#02070c;stop-opacity:1;" offset="0.875"/><stop style="stop-color:#02070b;stop-opacity:1;" offset="0.882812"/><stop style="stop-color:#02060a;stop-opacity:1;" offset="0.890625"/><stop style="stop-color:#02060a;stop-opacity:1;" offset="0.898438"/><stop style="stop-color:#020609;stop-opacity:1;" offset="0.90625"/><stop style="stop-color:#020508;stop-opacity:1;" offset="0.914062"/><stop style="stop-color:#010508;stop-opacity:1;" offset="0.921875"/><stop style="stop-color:#010407;stop-opacity:1;" offset="0.929688"/><stop style="stop-color:#010406;stop-opacity:1;" offset="0.9375"/><stop style="stop-color:#010305;stop-opacity:1;" offset="0.945312"/><stop style="stop-color:#010305;stop-opacity:1;" offset="0.953125"/><stop style="stop-color:#010204;stop-opacity:1;" offset="0.960938"/><stop style="stop-color:#010203;stop-opacity:1;" offset="0.96875"/><stop style="stop-color:#000203;stop-opacity:1;" offset="0.976562"/><stop style="stop-color:#000102;stop-opacity:1;" offset="0.984375"/><stop style="stop-color:#000101;stop-opacity:1;" offset="0.992188"/><stop style="stop-color:#000000;stop-opacity:1;" offset="1"/></linearGradient></defs><g id="54e3d6f981"><rect x="0" width="810" y="0" height="809.999993" style="fill:#ffffff;fill-opacity:1;stroke:none;"/><rect x="0" width="810" y="0" height="809.999993" style="fill:url(#linear0);stroke:none;"/><path style=" stroke:none;fill-rule:nonzero;fill:#ffffff;fill-opacity:1;" d="M 727.371094 260.777344 C 726.824219 255.972656 728.46875 250.621094 726.410156 245.953125 C 725.039062 244.03125 723.804688 241.835938 721.605469 240.738281 C 719.960938 240.1875 718.3125 239.777344 716.800781 239.363281 C 714.605469 238.539062 712.960938 236.480469 710.625 235.796875 C 707.46875 234.699219 704.859375 235.519531 703.625 238.679688 C 702.9375 239.914062 703.625 241.699219 702.664062 242.660156 C 699.917969 245.402344 698.546875 241.835938 697.035156 239.914062 C 694.976562 237.304688 695.390625 234.148438 695.390625 230.71875 C 697.996094 227.695312 700.605469 224.675781 702.664062 221.382812 C 705.546875 214.246094 703.488281 206.007812 704.035156 198.597656 C 704.449219 195.164062 705.957031 191.183594 704.175781 187.753906 C 702.664062 183.773438 699.917969 180.203125 696.351562 177.734375 C 694.015625 174.988281 691.546875 177.871094 690.449219 180.203125 C 688.664062 183.359375 687.015625 186.519531 685.09375 189.539062 C 681.9375 194.480469 679.054688 199.695312 675.210938 204.226562 C 672.464844 207.382812 668.761719 209.988281 665.601562 212.734375 C 660.9375 217.265625 655.035156 219.597656 649.132812 222.34375 C 642.953125 225.226562 637.738281 229.617188 633.484375 234.972656 C 631.835938 236.480469 631.972656 238.816406 631.011719 240.738281 C 629.640625 242.796875 627.992188 245.402344 625.523438 246.089844 C 622.226562 242.246094 619.070312 246.640625 616.738281 248.972656 C 614.402344 250.484375 612.070312 252.679688 610.285156 255.011719 C 608.640625 257.070312 607.816406 259.679688 606.167969 261.875 C 605.34375 262.972656 603.835938 262.425781 602.738281 262.835938 C 597.933594 265.308594 597.796875 272.171875 592.714844 274.640625 C 590.792969 275.464844 588.597656 275.738281 587.226562 277.386719 C 585.578125 278.894531 584.617188 280.957031 582.695312 282.191406 C 581.597656 283.015625 580.226562 283.015625 578.992188 283.5625 C 575.421875 285.484375 572.675781 288.640625 569.65625 291.25 C 564.441406 295.917969 559.5 300.859375 554.832031 306.210938 C 551.261719 310.191406 548.242188 314.859375 543.4375 317.46875 C 536.164062 320.210938 529.988281 324.878906 523.8125 329.410156 C 520.242188 331.332031 515.988281 332.429688 513.378906 335.722656 C 512.28125 337.09375 511.046875 338.605469 510.769531 340.253906 C 510.632812 341.488281 510.90625 342.585938 511.046875 343.820312 C 510.632812 345.46875 509.261719 346.839844 508.164062 348.214844 C 506.789062 342.585938 499.652344 344.917969 495.808594 346.566406 C 493.75 347.800781 492.789062 350.273438 492.238281 352.46875 C 491.828125 354.117188 492.515625 355.902344 491.964844 357.546875 C 490.867188 360.15625 488.671875 361.941406 487.4375 364.410156 C 486.75 365.921875 485.925781 367.84375 484.828125 369.351562 C 482.769531 372.507812 480.296875 375.390625 479.613281 379.097656 C 477.554688 381.019531 474.808594 382.667969 474.671875 385.824219 C 475.21875 391.175781 468.355469 392.960938 467.945312 398.039062 C 467.671875 399.6875 469.042969 401.058594 468.632812 402.570312 C 467.53125 404.492188 466.296875 406.414062 464.925781 408.335938 C 462.730469 410.257812 460.257812 411.902344 457.648438 413.414062 C 452.433594 416.160156 446.667969 417.257812 440.765625 417.667969 C 437.335938 417.945312 434.039062 418.21875 431.15625 415.882812 C 429.921875 414.511719 428.550781 413.140625 427.726562 411.628906 C 427.175781 409.296875 425.253906 407.648438 422.921875 407.101562 C 421.273438 406.6875 419.765625 407.785156 418.667969 408.746094 C 416.746094 411.082031 418.253906 414.648438 419.492188 416.984375 C 420.039062 417.804688 420.589844 418.628906 421 419.589844 C 420.726562 420.003906 420.453125 420.550781 420.589844 421.238281 C 417.15625 423.433594 412.902344 423.847656 409.195312 425.355469 C 406.726562 426.453125 404.390625 427.964844 401.648438 428.925781 C 399.863281 429.609375 397.527344 429.609375 395.746094 430.023438 C 393.136719 430.570312 390.800781 431.394531 388.195312 431.945312 C 381.742188 432.90625 375.015625 434.691406 368.429688 433.453125 C 365.546875 432.21875 362.800781 430.160156 359.507812 430.296875 C 355.113281 430.023438 350.722656 431.121094 346.191406 430.984375 C 334.523438 432.492188 340.839844 423.707031 323.679688 423.847656 C 320.796875 423.984375 318.191406 425.21875 315.445312 426.179688 C 306.796875 429.0625 301.582031 427.414062 297.464844 418.90625 C 295.679688 416.160156 293.621094 412.042969 289.777344 412.042969 C 287.167969 412.179688 285.523438 414.375 284.011719 416.160156 C 282.503906 417.804688 280.582031 419.042969 278.382812 419.726562 C 277.972656 419.867188 277.5625 419.726562 277.148438 419.316406 C 276.050781 418.21875 274.816406 417.257812 273.441406 416.570312 C 268.914062 414.238281 263.835938 416.984375 259.167969 415.199219 C 257.109375 414.511719 255.734375 412.589844 253.675781 411.765625 C 251.480469 410.667969 248.871094 410.257812 246.539062 410.941406 C 245.714844 411.21875 244.34375 411.355469 243.382812 410.804688 C 241.460938 410.257812 239.949219 408.746094 238.167969 408.199219 C 235.144531 407.238281 232.125 409.707031 229.105469 408.746094 C 227.597656 408.199219 226.773438 406.550781 225.539062 405.589844 C 223.203125 403.667969 220.320312 401.472656 217.164062 402.160156 C 214.007812 403.257812 213.183594 406.824219 210.988281 409.023438 C 209.617188 410.394531 208.242188 411.765625 206.597656 412.726562 C 204.261719 413.550781 201.929688 414.648438 200.007812 416.296875 C 198.085938 417.667969 195.613281 418.21875 193.96875 419.726562 C 192.320312 421.101562 191.085938 423.023438 189.710938 424.667969 C 187.652344 427.003906 185.046875 428.789062 182.300781 430.160156 C 177.222656 432.628906 171.042969 433.730469 165.554688 433.042969 C 163.496094 432.628906 161.710938 431.121094 159.515625 430.984375 C 157.457031 431.257812 155.671875 432.21875 153.476562 432.21875 C 152.238281 432.355469 150.867188 432.628906 149.769531 431.808594 C 141.121094 423.847656 126.847656 427.828125 118.335938 419.453125 C 116.964844 417.804688 117.101562 415.609375 117.101562 413.550781 C 116.964844 411.492188 116.824219 409.433594 117.511719 407.511719 C 118.335938 404.492188 119.570312 401.609375 120.257812 398.453125 C 120.667969 395.980469 120.394531 393.511719 120.257812 391.039062 C 120.257812 386.648438 118.335938 380.472656 113.804688 378.960938 C 111.335938 378.410156 109.140625 380.882812 109.140625 383.214844 C 108.589844 380.609375 104.609375 377.175781 102.277344 379.785156 C 100.628906 381.84375 101.863281 385 100.21875 386.921875 C 100.21875 386.921875 100.078125 386.921875 100.078125 386.921875 C 99.941406 386.785156 99.804688 386.648438 99.667969 386.648438 C 99.941406 383.351562 100.355469 380.058594 100.492188 376.765625 C 100.765625 372.648438 101.039062 367.980469 98.019531 364.683594 C 95.824219 362.488281 92.804688 363.039062 91.570312 365.785156 C 89.785156 370.726562 90.332031 375.53125 88.414062 379.785156 C 85.804688 383.765625 82.921875 387.882812 82.648438 392.824219 C 82.511719 396.117188 81 399.277344 81.6875 402.570312 C 83.472656 407.375 86.351562 411.21875 89.097656 415.609375 C 92.117188 420.550781 95.136719 425.628906 98.019531 430.710938 C 112.019531 455.828125 126.847656 480.398438 140.160156 505.929688 C 148.121094 519.382812 155.121094 533.382812 163.359375 546.695312 C 167.476562 554.246094 172.003906 561.519531 176.808594 568.796875 C 180.515625 574.835938 183.808594 581.148438 187.652344 587.1875 C 189.164062 589.386719 190.535156 591.71875 192.183594 593.777344 C 195.613281 597.621094 200.96875 598.71875 205.773438 599.953125 C 212.636719 601.738281 219.222656 604.210938 225.949219 606.132812 C 245.851562 612.582031 266.03125 616.289062 286.34375 620.820312 C 295.542969 623.015625 304.738281 625.210938 313.933594 627.957031 C 321.621094 629.464844 329.308594 631.25 336.996094 633.035156 C 347.015625 635.78125 357.308594 637.425781 367.332031 640.171875 C 375.976562 642.507812 384.761719 643.742188 393.546875 646.074219 C 414.824219 650.878906 435.824219 657.054688 456.828125 662.957031 C 468.492188 666.527344 480.023438 671.742188 492.101562 673.9375 C 501.300781 675.039062 509.261719 669.136719 516.398438 664.195312 C 522.4375 659.664062 530.125 657.191406 534.929688 651.152344 C 536.4375 649.644531 536.4375 647.308594 536.574219 645.25 C 536.714844 640.859375 536.300781 636.464844 536.574219 632.074219 C 536.988281 624.660156 538.636719 617.523438 540.28125 610.25 C 541.378906 604.894531 541.378906 599.40625 542.617188 594.050781 C 543.988281 587.050781 547.695312 581.011719 552.222656 575.660156 C 556.753906 571.128906 561.695312 565.914062 565.125 560.558594 C 567.1875 557.675781 569.246094 554.933594 570.617188 551.5 C 571.714844 548.070312 573.773438 545.324219 576.519531 543.128906 C 577.480469 543.128906 578.441406 542.992188 579.265625 542.578125 C 581.871094 541.480469 584.207031 540.109375 586.539062 538.324219 C 589.148438 536.128906 589.148438 532.285156 588.734375 529.125 C 588.460938 526.792969 586.953125 524.046875 588.1875 521.851562 C 593.402344 516.636719 590.933594 509.222656 592.304688 502.773438 C 593.539062 499.613281 597.109375 497.832031 596.835938 493.988281 C 597.109375 490.691406 594.363281 488.359375 591.894531 486.710938 C 589.558594 485.203125 586.402344 483.96875 586.539062 480.671875 C 586.402344 479.574219 586.675781 478.066406 586.402344 476.96875 C 586.402344 476.828125 586.539062 476.691406 586.539062 476.554688 C 587.773438 475.320312 589.421875 475.046875 591.207031 474.496094 C 596.285156 472.710938 601.226562 470.242188 606.441406 469.003906 C 610.421875 467.496094 614.542969 465.710938 618.933594 466.261719 C 620.71875 466.261719 622.640625 466.261719 624.289062 467.082031 C 625.796875 467.90625 627.03125 469.144531 628.679688 469.554688 C 631.835938 470.378906 635.269531 469.964844 638.5625 470.105469 C 641.855469 469.964844 644.738281 471.613281 648.035156 471.886719 C 651.601562 471.613281 656.40625 466.671875 657.230469 463.378906 C 658.054688 459.945312 657.09375 456.101562 654.074219 454.042969 C 653.113281 453.21875 651.601562 452.945312 651.328125 451.574219 C 650.917969 448.691406 652.152344 444.433594 648.71875 443.0625 C 644.601562 441.277344 640.347656 444.574219 636.230469 443.886719 C 631.425781 443.199219 627.855469 437.847656 632.386719 434.140625 C 634.308594 432.082031 636.230469 430.160156 637.328125 427.550781 C 638.699219 423.847656 638.835938 419.589844 638.699219 415.609375 C 638.152344 412.179688 635.953125 409.433594 634.855469 406.277344 C 634.03125 402.980469 634.03125 399.550781 634.03125 396.117188 C 633.894531 392 636.367188 388.84375 637.875 385.273438 C 640.074219 379.371094 639.933594 373.058594 639.660156 366.746094 C 639.523438 360.429688 637.738281 354.527344 637.050781 348.351562 C 636.230469 342.175781 641.171875 339.703125 646.25 337.78125 C 651.878906 335.3125 657.78125 333.664062 663.40625 331.195312 C 666.425781 334.214844 666.5625 339.015625 667.113281 343.136719 C 660.660156 340.9375 659.5625 345.332031 660.800781 350.683594 C 661.074219 355.078125 662.859375 359.058594 664.644531 363.039062 C 666.839844 367.429688 662.859375 371.136719 662.722656 375.390625 C 662.859375 380.882812 670.40625 383.214844 674.800781 381.292969 C 676.445312 380.332031 677.957031 379.234375 679.742188 378.550781 C 682.347656 378 684.957031 377.3125 687.152344 375.804688 C 690.996094 373.746094 690.585938 369.214844 692.78125 365.921875 C 694.839844 362.902344 698.132812 360.980469 700.605469 358.234375 C 703.078125 355.902344 704.585938 352.742188 706.097656 349.859375 C 707.605469 346.839844 707.332031 343.273438 709.117188 340.117188 C 710.761719 337.644531 713.507812 335.996094 715.019531 333.390625 C 716.664062 329.546875 717.902344 325.429688 718.585938 321.171875 C 719.136719 316.367188 721.46875 312.113281 721.882812 307.308594 C 722.566406 302.78125 720.921875 298.25 721.742188 293.71875 C 722.566406 290.425781 725.3125 287.820312 726 284.523438 C 726.960938 280.957031 724.902344 277.660156 724.765625 274.09375 C 728.605469 268.875 728.46875 266.679688 727.371094 260.777344 Z M 697.449219 246.226562 C 700.46875 248.835938 705.546875 246.503906 706.507812 242.933594 C 706.644531 241.5625 706.371094 240.050781 707.605469 238.953125 C 710.761719 238.679688 712.820312 241.835938 715.703125 242.660156 C 717.625 243.480469 719.960938 243.34375 721.46875 244.855469 C 722.292969 245.953125 723.253906 247.050781 723.804688 248.421875 C 724.488281 251.03125 723.941406 253.640625 723.941406 256.246094 C 723.941406 257.070312 723.941406 257.894531 723.941406 258.71875 C 723.664062 258.855469 723.527344 258.855469 723.253906 259.128906 C 720.371094 261.050781 717.625 263.109375 714.742188 265.167969 C 711.722656 267.777344 708.15625 269.011719 705.273438 271.757812 C 702.390625 273.40625 699.234375 274.367188 696.214844 275.601562 C 692.09375 276.699219 687.703125 280.269531 688.527344 284.9375 C 689.488281 289.328125 687.839844 291.113281 684.410156 293.582031 C 681.527344 295.503906 677.820312 294.820312 674.523438 294.820312 C 674.523438 293.996094 674.386719 293.171875 674.25 292.347656 C 673.289062 289.328125 672.878906 286.308594 673.289062 283.152344 C 673.425781 280.542969 674.800781 277.386719 674.113281 274.777344 C 677.269531 273.132812 680.152344 273.542969 683.035156 275.464844 C 690.035156 278.484375 692.371094 269.5625 689.761719 264.484375 C 688.390625 260.777344 683.449219 260.367188 681.800781 256.660156 C 680.152344 250.757812 681.113281 246.640625 673.566406 245.128906 C 672.878906 244.855469 672.191406 244.441406 671.644531 243.894531 C 670.40625 242.382812 670.820312 240.1875 671.644531 238.539062 C 672.328125 236.757812 673.566406 235.382812 675.347656 234.421875 C 676.445312 233.738281 677.40625 232.914062 678.644531 232.363281 C 680.015625 232.226562 681.25 232.226562 682.625 232.363281 C 685.644531 232.636719 688.9375 232.914062 691.683594 234.421875 C 691.683594 234.421875 691.820312 234.421875 691.820312 234.558594 C 691.820312 235.933594 691.957031 237.167969 692.230469 238.539062 C 693.332031 241.285156 695.253906 244.03125 697.449219 246.226562 Z M 661.621094 220.148438 C 667.386719 215.890625 673.289062 211.5 678.09375 206.148438 C 684.410156 198.324219 689.074219 189.402344 694.152344 180.753906 C 698.546875 183.636719 702.390625 189.125 701.15625 194.617188 C 699.09375 202.578125 701.839844 211.226562 699.78125 219.1875 C 697.859375 222.894531 694.703125 225.914062 692.09375 229.207031 C 691.683594 229.757812 691.683594 230.578125 691.683594 231.265625 C 690.035156 230.441406 688.25 230.03125 686.46875 229.894531 C 683.449219 229.480469 680.289062 228.933594 677.40625 229.757812 C 674.9375 231.402344 671.78125 232.636719 670.269531 235.246094 C 668.074219 238.539062 666.839844 243.480469 670.269531 246.363281 C 672.054688 248.148438 675.074219 247.738281 676.722656 249.523438 C 677.957031 251.03125 678.09375 253.089844 678.230469 254.875 C 678.644531 258.992188 681.9375 261.875 685.507812 263.660156 C 686.191406 264.210938 686.878906 265.03125 687.289062 265.992188 C 688.25 268.328125 688.664062 272.992188 685.371094 273.269531 C 683.585938 273.132812 682.210938 271.484375 680.289062 271.070312 C 679.054688 270.523438 674.523438 270.933594 672.605469 272.308594 C 670.683594 270.796875 668.761719 269.289062 666.5625 268.050781 C 664.78125 267.640625 663.542969 266.40625 662.171875 265.167969 C 660.386719 262.5625 659.699219 259.40625 657.503906 256.933594 C 655.582031 254.601562 653.796875 252.542969 652.5625 249.796875 C 650.777344 246.503906 650.09375 242.519531 647.757812 239.5 C 645.835938 237.71875 643.640625 235.796875 641.171875 234.558594 C 640.621094 234.285156 640.074219 233.875 639.523438 233.597656 C 640.484375 232.636719 641.445312 231.816406 642.40625 230.855469 C 648.035156 225.773438 655.308594 223.992188 661.621094 220.148438 Z M 619.207031 251.582031 C 620.445312 250.484375 621.265625 249.109375 622.640625 248.148438 C 627.445312 253.503906 634.992188 242.933594 635.40625 238.265625 C 636.089844 237.304688 636.914062 236.34375 637.601562 235.519531 C 638.425781 236.070312 639.523438 236.480469 640.210938 237.03125 C 642.132812 237.992188 643.640625 239.363281 645.289062 240.738281 C 645.835938 241.148438 646.25 241.699219 646.523438 242.382812 C 648.171875 245.816406 649.269531 249.523438 651.054688 252.816406 C 652.152344 255.285156 654.484375 257.347656 655.996094 259.542969 C 657.230469 261.328125 658.054688 263.386719 659.015625 265.445312 C 659.839844 266.953125 661.074219 268.191406 662.582031 269.152344 C 662.171875 269.5625 661.898438 270.25 661.621094 270.660156 C 660.113281 274.367188 657.640625 278.484375 652.835938 276.835938 C 650.640625 276.011719 649.542969 273.816406 647.757812 272.171875 C 645.152344 270.109375 643.230469 267.640625 640.484375 265.71875 C 638.5625 264.484375 636.503906 263.523438 634.445312 262.5625 C 628.679688 259.816406 622.777344 257.621094 616.324219 256.933594 C 615.363281 256.796875 614.542969 256.660156 613.582031 256.523438 C 615.089844 254.464844 617.148438 253.089844 619.207031 251.582031 Z M 604.109375 266.269531 C 605.207031 266.128906 606.441406 266.128906 607.402344 265.445312 C 607.679688 265.308594 607.953125 265.03125 608.226562 264.757812 C 609.875 265.71875 611.523438 266.953125 613.304688 267.503906 C 616.1875 269.011719 620.855469 268.328125 622.367188 271.621094 C 624.148438 277.660156 617.972656 279.171875 613.304688 278.347656 C 608.5 276.972656 604.660156 273.953125 600.679688 271.210938 C 601.5 269.425781 602.324219 267.503906 604.109375 266.269531 Z M 547.28125 319.390625 C 551.8125 316.09375 554.96875 311.425781 558.8125 307.308594 C 564.164062 301.269531 570.207031 295.78125 576.109375 290.289062 C 577.34375 289.191406 578.851562 287.816406 580.363281 286.996094 C 581.050781 286.855469 581.597656 286.582031 582.285156 286.445312 C 583.65625 288.640625 588.050781 291.25 589.421875 291.800781 C 596.285156 294.957031 604.246094 297.152344 610.285156 301.40625 C 618.933594 308.683594 620.167969 319.527344 619.484375 330.09375 C 619.621094 338.878906 620.167969 347.527344 621.40625 356.3125 C 622.503906 363.863281 623.050781 371.6875 624.699219 379.097656 C 621.679688 380.195312 619.070312 382.390625 616.1875 386.234375 C 613.582031 388.84375 611.382812 392.136719 607.816406 393.511719 C 600.679688 396.53125 592.855469 394.882812 585.304688 395.433594 C 578.851562 395.433594 572.265625 395.15625 566.085938 392.824219 C 559.085938 389.804688 552.636719 384.453125 549.753906 377.3125 C 549.480469 376.628906 549.339844 375.941406 549.203125 375.117188 C 547.96875 369.214844 548.378906 362.902344 548.105469 356.722656 C 547.28125 343.683594 541.515625 334.625 529.988281 329.410156 C 533.28125 327.074219 536.574219 324.878906 540.144531 322.957031 C 542.339844 321.859375 544.949219 320.898438 547.28125 319.390625 Z M 549.617188 377.3125 Z M 632.386719 388.84375 C 629.914062 394.195312 630.464844 400.511719 631.425781 406.140625 C 632.660156 410.804688 636.503906 414.785156 635.542969 419.867188 C 635.679688 427.964844 631.425781 429.199219 627.71875 434.964844 C 625.386719 440.730469 630.464844 446.496094 636.089844 447.179688 C 640.074219 448.414062 644.328125 444.433594 648.035156 446.355469 C 648.445312 448.277344 647.894531 450.199219 648.308594 452.121094 C 648.71875 455.417969 652.699219 455.828125 654.074219 458.574219 C 655.308594 461.457031 653.796875 464.476562 651.464844 466.261719 C 650.230469 467.082031 649.132812 468.730469 647.484375 468.320312 C 641.855469 465.710938 635.542969 467.222656 629.640625 465.984375 C 627.167969 464.476562 624.699219 462.691406 621.679688 462.691406 C 618.796875 462.691406 615.777344 462.417969 612.894531 463.101562 C 610.421875 463.789062 608.089844 464.886719 605.757812 465.574219 C 600.953125 466.671875 596.421875 468.730469 591.894531 470.515625 C 589.421875 471.339844 583.109375 472.847656 583.519531 476.144531 C 583.246094 476.554688 583.246094 477.105469 583.519531 477.515625 C 583.65625 479.988281 583.382812 482.59375 584.753906 484.789062 C 588.597656 490.554688 599.03125 490.554688 590.796875 499.066406 C 587.5 503.734375 589.421875 509.910156 588.597656 515.261719 C 588.1875 517.320312 586.539062 518.695312 585.578125 520.34375 C 582.832031 525.144531 589.011719 532.148438 584.207031 535.988281 C 581.871094 537.5 579.402344 539.421875 576.519531 539.558594 C 574.734375 539.96875 573.5 541.617188 572.128906 542.851562 C 569.246094 545.324219 568.421875 549.304688 566.773438 552.460938 C 565.675781 554.519531 564.027344 556.441406 562.65625 558.5 C 560.871094 561.519531 558.539062 563.992188 556.203125 566.597656 C 554.421875 569.070312 552.359375 570.855469 550.164062 573.1875 C 546.871094 576.894531 544.398438 581.148438 542.066406 585.542969 C 539.183594 593.089844 538.773438 601.191406 537.535156 609.015625 C 535.203125 618.757812 533.007812 628.78125 533.554688 638.800781 C 533.554688 641.820312 533.832031 644.703125 533.28125 647.722656 C 530.949219 652.113281 525.871094 654.035156 521.890625 656.507812 C 513.652344 661.035156 506.515625 668.449219 497.042969 670.097656 C 493.0625 670.644531 488.808594 669.273438 484.828125 668.3125 C 478.101562 666.113281 471.789062 664.195312 465.0625 661.722656 C 453.394531 657.605469 441.179688 654.859375 429.375 651.289062 C 419.902344 648.269531 409.882812 646.488281 400.273438 643.742188 C 375.566406 638.25 350.859375 632.484375 326.152344 626.722656 C 312.835938 624.113281 299.796875 619.996094 286.484375 617.113281 C 271.796875 613.679688 256.695312 610.933594 242.148438 606.953125 C 228.144531 602.972656 214.417969 598.445312 200.554688 594.464844 C 198.773438 593.777344 196.988281 593.089844 195.613281 591.71875 C 190.398438 584.71875 186.28125 577.167969 181.886719 569.621094 C 173.652344 556.714844 166.101562 543.539062 158.277344 530.363281 C 151.964844 518.144531 144.828125 506.476562 138.511719 494.261719 C 130.828125 480.125 122.863281 466.261719 114.765625 452.257812 C 106.53125 437.574219 98.570312 422.609375 89.234375 408.609375 C 87.589844 405.316406 84.429688 402.160156 85.667969 398.316406 C 86.492188 395.707031 86.214844 392.277344 87.175781 389.53125 C 88.136719 386.511719 90.058594 384.175781 91.707031 381.433594 C 94.175781 377.039062 93.214844 371.6875 95.414062 367.15625 C 99.667969 369.902344 96.785156 380.058594 96.785156 384.726562 C 96.785156 386.375 96.097656 388.15625 96.921875 389.53125 C 97.335938 390.078125 97.882812 390.214844 98.433594 390.214844 C 99.667969 391.175781 101.726562 390.902344 102.824219 389.941406 C 104.882812 388.292969 104.882812 385.273438 105.160156 382.941406 C 106.941406 384.453125 105.84375 386.785156 106.257812 388.980469 C 106.257812 391.453125 108.589844 393.234375 110.648438 391.316406 C 111.746094 390.355469 112.296875 388.980469 112.570312 387.472656 C 113.121094 385.960938 112.433594 383.765625 113.53125 382.667969 C 118.0625 385.960938 117.511719 393.375 117.238281 398.453125 C 116.277344 401.746094 115.042969 404.902344 114.21875 408.199219 C 113.53125 411.082031 113.941406 414.238281 114.082031 417.257812 C 114.21875 420.828125 117.101562 423.296875 119.984375 425.082031 C 127.121094 429.886719 136.453125 428.648438 144.140625 432.21875 C 146.613281 433.179688 148.257812 435.789062 151.140625 436.0625 C 154.023438 436.0625 156.496094 435.652344 159.238281 434.691406 C 161.300781 434.414062 163.082031 436.335938 165.140625 436.472656 C 169.808594 437.160156 174.613281 436.472656 179.28125 435.238281 C 184.085938 434.003906 188.339844 431.257812 191.910156 427.828125 C 193.96875 425.90625 195.203125 423.160156 197.671875 421.511719 C 200.417969 420.277344 202.890625 418.628906 205.359375 416.984375 C 209.339844 415.746094 212.773438 413.140625 215.105469 409.84375 C 216.617188 407.921875 217.714844 403.804688 220.734375 406 C 223.753906 407.238281 225.125 410.804688 228.285156 411.902344 C 231.441406 413.140625 234.597656 411.21875 237.753906 411.355469 C 240.910156 413.140625 244.070312 415.335938 247.910156 414.101562 C 251.207031 413.277344 253.953125 415.609375 256.421875 417.394531 C 258.34375 418.628906 260.675781 419.042969 262.875 419.316406 C 265.894531 419.589844 269.1875 418.355469 272.207031 419.589844 C 273.992188 420.277344 275.089844 421.925781 276.738281 422.886719 C 279.621094 424.121094 282.640625 422.0625 284.972656 420.414062 C 286.621094 419.316406 287.71875 417.53125 289.089844 416.160156 C 289.640625 415.746094 290.1875 415.199219 290.875 415.609375 C 293.757812 417.804688 294.992188 421.511719 297.050781 424.394531 C 299.523438 427.6875 302.953125 430.847656 307.347656 430.847656 C 311.054688 430.984375 314.757812 430.296875 318.328125 428.925781 C 320.25 428.238281 321.757812 427.414062 323.957031 427.277344 C 327.25 427.277344 330.957031 427.414062 333.839844 429.199219 C 335.484375 430.160156 336.445312 432.082031 338.09375 433.042969 C 340.425781 434.691406 343.445312 434.414062 346.191406 434.277344 C 350.722656 434.277344 355.390625 433.316406 359.917969 433.589844 C 363.488281 433.589844 366.09375 436.613281 369.527344 437.023438 C 378.859375 437.710938 388.058594 435.511719 396.980469 433.179688 C 399.3125 432.628906 401.785156 432.769531 404.117188 431.671875 C 406.726562 430.570312 409.058594 429.0625 411.804688 427.964844 C 415.785156 426.453125 420.589844 426.042969 423.882812 423.023438 C 424.15625 422.609375 424.433594 421.925781 424.433594 421.238281 C 424.707031 420.964844 424.980469 420.6875 425.117188 420.277344 C 425.53125 419.453125 425.117188 418.765625 424.707031 418.082031 C 423.472656 415.746094 421.414062 413.550781 421.550781 410.804688 C 421.824219 410.53125 422.234375 410.257812 422.511719 410.121094 C 423.195312 410.394531 423.882812 410.667969 424.292969 411.21875 C 424.707031 411.902344 424.707031 412.589844 425.253906 413.277344 C 427.316406 416.160156 429.648438 419.042969 433.078125 420.277344 C 439.394531 421.785156 446.394531 420.277344 452.707031 418.90625 C 456.550781 417.667969 460.394531 415.882812 463.6875 413.550781 C 466.160156 412.042969 468.355469 410.257812 469.589844 407.648438 C 471.789062 404.078125 473.433594 402.707031 471.652344 398.316406 C 471.652344 396.257812 473.710938 395.019531 474.945312 393.648438 C 476.453125 392.277344 477.691406 390.355469 478.101562 388.292969 C 478.375 387.058594 478.238281 385.6875 478.789062 384.453125 C 479.613281 383.078125 481.257812 382.53125 482.21875 381.292969 C 483.457031 380.195312 483.457031 378.410156 484.140625 376.902344 C 485.652344 374.292969 487.574219 371.824219 489.082031 369.214844 C 490.042969 367.566406 490.59375 365.785156 491.691406 364.273438 C 492.652344 362.902344 493.886719 361.664062 494.710938 360.15625 C 496.496094 357.824219 495.808594 355.214844 496.082031 352.605469 C 496.359375 351.507812 496.90625 350.136719 497.730469 349.3125 C 499.925781 348.214844 502.398438 347.390625 504.867188 347.800781 C 507.339844 356.175781 512.964844 349.039062 514.75 344.507812 C 515.164062 343.136719 514.476562 341.625 514.613281 340.253906 C 515.988281 337.507812 518.183594 335.449219 521.066406 334.074219 C 523.261719 333.113281 525.457031 332.429688 527.378906 330.917969 C 527.515625 330.78125 527.792969 330.644531 527.929688 330.507812 C 530.261719 331.46875 532.457031 332.839844 534.515625 334.214844 C 553.734375 347.253906 539.597656 369.078125 550.988281 383.628906 C 559.5 394.882812 571.304688 397.492188 584.753906 397.492188 C 598.617188 396.941406 608.914062 400.238281 618.660156 387.609375 C 620.855469 385 623.1875 381.84375 626.757812 380.746094 C 629.777344 379.921875 633.070312 380.058594 636.089844 380.195312 C 634.855469 383.628906 633.757812 386.375 632.386719 388.84375 Z M 634.582031 354.527344 C 635.953125 362.078125 637.191406 370.3125 635.953125 378.136719 C 632.523438 378 629.777344 378 627.308594 378.410156 C 627.308594 378.136719 627.308594 378 627.167969 377.726562 C 626.347656 374.429688 626.070312 371.136719 625.523438 367.84375 C 624.5625 359.332031 623.1875 350.820312 622.640625 342.3125 C 621.40625 326.664062 625.523438 310.878906 611.933594 299.347656 C 604.660156 293.859375 594.914062 292.210938 587.226562 287.40625 C 586.402344 286.855469 585.441406 285.898438 584.753906 285.074219 C 587.089844 283.5625 588.1875 280.957031 590.382812 279.308594 C 592.855469 278.210938 595.597656 277.523438 597.382812 275.328125 C 598.070312 274.777344 598.480469 274.230469 599.03125 273.679688 C 599.992188 274.09375 600.679688 274.777344 601.5 275.464844 C 605.621094 278.210938 610.285156 281.367188 615.503906 281.367188 C 618.109375 281.367188 621.128906 280.816406 623.1875 279.035156 C 625.796875 276.289062 626.207031 270.933594 623.050781 268.328125 C 620.03125 265.992188 615.914062 266.128906 612.621094 264.484375 C 611.660156 263.933594 610.699219 263.386719 609.738281 262.699219 C 610.421875 261.601562 610.972656 260.367188 611.660156 259.128906 C 611.796875 259.128906 611.796875 259.128906 611.933594 259.128906 C 614.953125 259.40625 617.972656 259.953125 620.992188 260.503906 C 627.308594 262.148438 633.347656 264.894531 638.972656 268.191406 C 641.445312 270.109375 643.640625 272.582031 646.113281 274.640625 C 648.171875 277.25 650.640625 279.996094 654.210938 279.996094 C 659.289062 280.679688 662.308594 275.875 664.09375 271.757812 C 664.367188 271.347656 664.78125 270.933594 664.917969 270.523438 C 665.054688 270.523438 665.191406 270.660156 665.328125 270.660156 C 666.425781 271.210938 667.386719 272.03125 668.347656 272.71875 C 669.308594 273.542969 671.09375 274.367188 671.367188 275.738281 C 671.644531 277.386719 671.09375 278.757812 670.820312 280.40625 C 670.40625 282.738281 670.269531 285.347656 670.40625 287.816406 C 670.40625 289.601562 671.09375 291.113281 671.503906 292.898438 C 671.917969 295.230469 671.644531 297.425781 671.230469 299.898438 C 669.996094 308.820312 666.425781 317.328125 663.542969 325.839844 C 663.542969 325.839844 663.542969 325.703125 663.542969 325.703125 C 663.40625 326.527344 662.996094 327.210938 662.722656 328.035156 C 660.25 328.3125 657.367188 330.371094 653.523438 331.46875 C 640.757812 335.996094 630.050781 337.78125 634.582031 354.527344 Z M 670.132812 378.273438 C 667.800781 377.863281 665.054688 376.351562 666.289062 373.746094 C 667.523438 370.863281 669.035156 367.980469 668.625 364.683594 C 668.210938 361.804688 666.703125 359.332031 665.601562 356.585938 C 664.503906 353.15625 663.679688 349.449219 663.820312 345.742188 C 665.191406 345.605469 667.113281 346.566406 668.625 346.429688 C 669.035156 346.839844 669.445312 347.253906 669.859375 347.800781 C 671.367188 349.449219 672.054688 351.78125 672.878906 353.839844 C 675.074219 358.234375 675.625 362.765625 676.445312 367.707031 C 677.132812 370.175781 677.269531 372.921875 677.40625 375.53125 C 677.40625 375.53125 677.269531 375.53125 677.269531 375.667969 C 674.800781 376.765625 672.878906 378.960938 670.132812 378.273438 Z M 683.996094 373.46875 C 682.761719 374.15625 681.527344 374.429688 680.152344 374.707031 C 680.015625 371.273438 679.328125 367.84375 678.644531 364.410156 C 678.917969 364.410156 679.054688 364.410156 679.191406 364.410156 C 682.347656 364 685.507812 363.726562 688.664062 363.726562 C 689.074219 363.726562 689.488281 363.863281 689.898438 363.863281 C 687.566406 367.019531 688.113281 371.960938 683.996094 373.46875 Z M 699.09375 354.800781 C 696.898438 357.273438 694.152344 359.195312 691.820312 361.527344 C 691.546875 361.390625 691.273438 361.253906 690.996094 361.253906 C 690.996094 361.253906 690.722656 361.117188 690.449219 361.117188 C 686.46875 360.566406 682.210938 361.253906 678.230469 361.664062 C 678.230469 361.390625 678.09375 361.253906 678.09375 360.980469 C 677.683594 358.097656 676.585938 355.488281 675.484375 352.882812 C 674.386719 349.722656 672.878906 346.980469 670.542969 344.507812 C 670.683594 341.078125 669.859375 337.234375 668.898438 333.800781 C 667.800781 330.78125 666.703125 329.132812 665.601562 328.3125 C 665.878906 327.761719 666.015625 327.074219 666.152344 326.390625 C 668.761719 318.976562 671.644531 311.566406 673.289062 303.878906 C 673.703125 301.683594 674.113281 299.484375 674.386719 297.289062 C 674.9375 297.425781 675.625 297.425781 676.171875 297.425781 C 678.507812 297.425781 680.839844 297.5625 683.035156 297.015625 C 686.054688 296.054688 688.664062 293.859375 690.585938 291.25 C 692.230469 288.777344 691.269531 285.757812 691.269531 282.875 C 691.683594 280.40625 694.292969 278.757812 696.625 278.074219 C 698.546875 277.25 700.46875 276.699219 702.390625 275.875 C 703.625 279.308594 704.722656 282.601562 704.996094 286.171875 C 703.761719 286.71875 702.527344 287.40625 701.429688 288.367188 C 697.3125 290.425781 693.332031 293.171875 690.996094 297.289062 C 689.488281 300.722656 688.25 304.425781 688.25 308.269531 C 688.527344 311.839844 687.976562 315.40625 686.742188 318.703125 C 684.820312 323.644531 681.527344 328.585938 684.683594 333.800781 C 686.605469 336.820312 689.761719 338.605469 692.917969 340.253906 C 695.800781 341.898438 699.09375 342.585938 702.390625 343.136719 C 702.9375 343.273438 703.625 343.410156 704.175781 343.273438 C 703.214844 347.664062 701.839844 351.507812 699.09375 354.800781 Z M 718.449219 306.074219 C 718.175781 308.957031 717.351562 311.566406 716.527344 314.308594 C 715.839844 314.171875 715.15625 314.171875 714.742188 314.035156 C 708.976562 313.347656 702.9375 316.507812 703.351562 322.957031 C 703.214844 324.742188 703.625 326.527344 704.175781 328.3125 C 701.15625 328.035156 698.132812 328.171875 695.253906 327.761719 C 694.703125 327.761719 694.292969 327.761719 693.742188 327.625 C 693.605469 324.878906 694.015625 321.996094 692.507812 319.664062 C 692.09375 318.976562 690.996094 318.289062 690.035156 318.015625 C 690.171875 317.328125 690.3125 316.644531 690.449219 315.957031 C 691.546875 312.386719 690.585938 308.683594 691.273438 304.839844 C 691.820312 302.78125 692.507812 300.582031 693.46875 298.523438 C 695.113281 296.054688 697.3125 293.859375 699.917969 292.484375 C 703.625 290.5625 706.917969 286.996094 711.449219 288.367188 C 714.058594 288.777344 715.980469 290.839844 718.449219 291.660156 C 717.214844 296.464844 718.863281 301.40625 718.449219 306.074219 Z M 688.9375 320.898438 C 689.074219 320.898438 689.210938 320.898438 689.351562 320.761719 C 690.585938 321.035156 690.722656 322.410156 690.722656 323.371094 C 690.996094 325.292969 690.722656 327.351562 691.132812 329.273438 C 691.132812 329.273438 691.132812 329.410156 691.132812 329.410156 C 691.269531 330.234375 691.546875 331.054688 692.09375 331.742188 C 693.191406 333.9375 695.390625 335.175781 696.625 337.371094 C 696.898438 337.917969 696.761719 338.742188 696.761719 339.429688 C 695.9375 339.15625 695.113281 338.742188 694.292969 338.332031 C 691.410156 336.820312 688.113281 335.3125 686.742188 332.015625 C 685.230469 328.035156 687.289062 324.46875 688.9375 320.898438 Z M 705.136719 340.253906 C 704.996094 340.664062 704.996094 340.9375 704.859375 341.351562 C 704.3125 340.9375 703.625 341.078125 703.074219 340.9375 C 703.074219 340.9375 703.214844 340.9375 703.214844 340.9375 C 701.976562 340.664062 700.605469 340.527344 699.371094 340.253906 C 699.507812 339.703125 699.507812 338.878906 699.507812 338.195312 C 699.371094 334.898438 696.214844 333.253906 694.566406 330.644531 C 698.273438 330.78125 701.839844 330.917969 705.546875 331.332031 C 706.507812 332.703125 707.742188 333.9375 709.253906 334.761719 C 707.605469 336.273438 705.820312 337.917969 705.136719 340.253906 Z M 712.546875 330.09375 C 712.273438 331.054688 711.859375 331.742188 711.3125 332.566406 C 710.351562 332.292969 709.527344 331.742188 708.839844 331.054688 C 706.234375 327.898438 704.996094 323.09375 706.917969 319.390625 C 709.117188 316.917969 712.546875 316.644531 715.703125 317.191406 C 714.878906 321.449219 714.332031 325.839844 712.546875 330.09375 Z M 724.351562 267.777344 C 723.664062 269.425781 722.703125 270.660156 721.605469 272.171875 C 720.097656 275.738281 723.117188 279.582031 722.566406 283.289062 C 722.019531 285.484375 720.644531 287.40625 719.546875 289.328125 C 718.722656 288.917969 717.902344 288.640625 717.078125 287.957031 C 714.332031 285.898438 710.898438 285.074219 707.605469 285.621094 C 707.46875 284.660156 707.195312 283.5625 707.195312 282.875 C 706.78125 280.132812 705.683594 277.523438 704.722656 274.914062 C 706.234375 274.230469 707.605469 273.269531 708.839844 272.03125 C 714.195312 269.011719 718.863281 265.167969 723.941406 261.601562 C 723.941406 262.148438 724.078125 262.699219 724.214844 263.109375 C 724.488281 264.621094 724.902344 266.40625 724.351562 267.777344 Z M 724.351562 267.777344 "/><path style=" stroke:none;fill-rule:nonzero;fill:#ffffff;fill-opacity:1;" d="M 224.851562 398.726562 C 226.5 398.726562 227.871094 397.492188 229.105469 396.667969 C 230.480469 395.707031 231.714844 394.609375 232.125 392.960938 C 232.949219 389.941406 233.5 386.097656 230.753906 383.902344 C 228.285156 381.980469 223.339844 380.609375 221.695312 384.175781 C 220.320312 387.195312 220.320312 391.175781 221.28125 394.472656 C 221.558594 396.394531 222.519531 399 224.851562 398.726562 Z M 225.125 385.414062 C 229.242188 385.6875 230.066406 387.472656 229.105469 391.316406 C 228.832031 393.375 226.5 394.195312 224.988281 395.296875 C 224.851562 394.195312 224.578125 393.375 224.300781 392.277344 C 224.300781 389.941406 223.890625 387.472656 225.125 385.414062 Z M 225.125 385.414062 "/><path style=" stroke:none;fill-rule:nonzero;fill:#ffffff;fill-opacity:1;" d="M 190.535156 362.214844 C 191.632812 363.3125 193.28125 363.039062 193.96875 361.804688 C 195.476562 359.882812 197.125 357.824219 198.085938 355.625 C 200.96875 349.3125 190.125 344.234375 187.789062 351.097656 C 186.828125 353.980469 188.066406 356.863281 189.027344 359.46875 C 189.4375 360.429688 189.710938 361.527344 190.535156 362.214844 Z M 194.515625 352.195312 C 196.164062 354.253906 193.417969 356.722656 192.320312 358.371094 C 192.183594 358.097656 192.183594 357.824219 192.046875 357.546875 C 190.671875 354.941406 189.710938 348.761719 194.515625 352.195312 Z M 194.515625 352.195312 "/><path style=" stroke:none;fill-rule:nonzero;fill:#ffffff;fill-opacity:1;" d="M 141.53125 397.902344 C 142.21875 399.550781 144.414062 400.785156 145.789062 399.277344 C 147.984375 398.453125 151.691406 390.492188 150.59375 388.292969 C 149.632812 385.550781 146.335938 384.863281 143.867188 385.824219 C 141.808594 386.785156 141.121094 389.253906 141.121094 391.316406 C 141.121094 393.511719 140.847656 395.84375 141.53125 397.902344 Z M 144.554688 391.453125 C 144.691406 390.628906 144.554688 389.667969 145.101562 388.980469 C 145.789062 388.707031 147.023438 388.570312 147.296875 389.394531 C 146.886719 391.589844 145.789062 393.785156 144.554688 395.707031 C 144.554688 394.335938 144.554688 392.824219 144.554688 391.453125 Z M 144.554688 391.453125 "/><path style=" stroke:none;fill-rule:nonzero;fill:#ffffff;fill-opacity:1;" d="M 306.933594 403.121094 C 308.71875 403.667969 310.09375 404.902344 311.601562 405.863281 C 314.894531 407.101562 317.640625 404.078125 319.015625 401.335938 C 319.425781 400.511719 319.835938 399.414062 319.289062 398.453125 C 319.289062 397.628906 318.738281 397.078125 318.054688 396.804688 C 316.679688 395.84375 315.035156 395.84375 313.523438 395.84375 C 311.328125 395.570312 309.269531 394.472656 307.070312 394.195312 C 303.640625 393.375 298.011719 394.746094 300.210938 399.277344 C 301.582031 401.609375 304.601562 402.160156 306.933594 403.121094 Z M 311.875 399.277344 C 313.113281 399.6875 314.757812 399.136719 315.855469 399.824219 C 315.171875 400.921875 314.484375 402.433594 313.113281 402.84375 C 310.230469 400.511719 306.386719 399.550781 303.089844 397.902344 C 306.25 397.078125 308.855469 398.453125 311.875 399.277344 Z M 311.875 399.277344 "/><path style=" stroke:none;fill-rule:nonzero;fill:#ffffff;fill-opacity:1;" d="M 321.757812 418.21875 C 324.777344 418.765625 328.761719 418.765625 330.957031 416.296875 C 331.917969 414.511719 330.820312 411.628906 328.621094 411.628906 C 325.738281 409.433594 320.113281 409.570312 319.5625 413.824219 C 319.152344 415.609375 319.835938 417.804688 321.757812 418.21875 Z M 322.859375 414.921875 C 322.859375 414.648438 322.859375 414.375 322.996094 414.101562 C 324.367188 413.003906 325.878906 414.238281 327.113281 414.785156 C 326.699219 414.921875 326.152344 415.0625 325.738281 415.0625 C 324.917969 415.0625 323.816406 415.0625 322.859375 414.921875 Z M 322.859375 414.921875 "/><path style=" stroke:none;fill-rule:nonzero;fill:#ffffff;fill-opacity:1;" d="M 314.484375 419.316406 C 312.5625 417.945312 309.269531 416.296875 307.070312 418.21875 C 305.289062 420.550781 306.796875 424.53125 309.816406 425.082031 C 312.5625 425.90625 318.601562 424.808594 316.957031 420.824219 C 316.269531 420.003906 315.582031 419.042969 314.484375 419.316406 Z M 309.679688 420.824219 C 310.640625 420.964844 311.328125 421.648438 312.152344 421.925781 C 311.328125 421.785156 309.816406 421.925781 309.679688 420.824219 Z M 309.679688 420.824219 "/><path style=" stroke:none;fill-rule:nonzero;fill:#ffffff;fill-opacity:1;" d="M 363.210938 423.160156 C 364.449219 423.433594 364.996094 424.667969 366.09375 425.082031 C 368.703125 425.90625 371.722656 426.589844 374.332031 425.90625 C 376.117188 425.492188 377.351562 423.707031 378.039062 422.0625 C 378.3125 421.238281 379.136719 420.550781 378.859375 419.589844 C 378.859375 419.589844 379 419.589844 379 419.589844 C 379 419.589844 379 419.589844 379.136719 419.589844 C 379.136719 423.847656 381.332031 425.492188 385.3125 426.179688 C 387.921875 426.453125 390.664062 426.726562 393.136719 425.769531 C 395.746094 424.394531 398.765625 421.648438 397.664062 418.355469 C 396.15625 415.199219 392.3125 414.238281 389.292969 413.003906 C 388.46875 412.726562 387.371094 412.316406 386.683594 411.765625 C 386.546875 411.21875 386.546875 410.667969 386.410156 410.121094 C 385.039062 406.6875 380.917969 404.628906 377.351562 405.726562 C 374.46875 406.414062 372.820312 409.023438 370.074219 410.121094 C 369.664062 410.394531 369.113281 410.667969 368.566406 410.804688 C 364.722656 411.628906 360.332031 410.804688 356.898438 413.550781 C 354.566406 415.199219 350.449219 417.257812 351.546875 420.6875 C 353.878906 424.945312 359.507812 422.746094 363.210938 423.160156 Z M 361.152344 415.335938 C 363.210938 414.648438 365.546875 414.921875 367.742188 414.511719 C 371.175781 414.101562 374.195312 411.902344 376.800781 409.707031 C 378.859375 408.199219 381.605469 408.746094 383.117188 410.804688 C 383.800781 414.785156 385.585938 415.335938 389.15625 416.433594 C 390.941406 417.257812 393.410156 417.804688 394.644531 419.453125 C 394.097656 421.511719 391.761719 422.886719 389.703125 422.886719 C 387.507812 422.886719 384.761719 423.023438 382.980469 421.511719 C 382.703125 420.414062 382.839844 419.179688 382.429688 418.082031 C 381.195312 414.511719 374.332031 416.433594 375.292969 420.140625 C 374.332031 423.847656 371.175781 422.886719 368.292969 422.335938 C 367.195312 422.199219 366.644531 420.964844 365.683594 420.550781 C 362.390625 418.628906 358.410156 420.824219 355.113281 419.589844 C 356.761719 417.804688 358.957031 416.296875 361.152344 415.335938 Z M 361.152344 415.335938 "/><path style=" stroke:none;fill-rule:nonzero;fill:#ffffff;fill-opacity:1;" d="M 406.863281 423.433594 C 408.371094 423.707031 409.46875 423.433594 410.980469 423.433594 C 414 423.160156 415.648438 419.453125 413.3125 417.257812 C 411.941406 414.648438 407.960938 414.238281 405.765625 416.160156 C 402.882812 418.21875 403.15625 422.609375 406.863281 423.433594 Z M 410.570312 419.179688 C 410.570312 419.316406 410.707031 419.453125 410.707031 419.589844 C 410.84375 419.726562 410.84375 419.867188 410.980469 420.003906 C 410.429688 420.414062 409.609375 420.140625 408.921875 420.277344 C 408.785156 420.277344 408.921875 420.277344 408.921875 420.277344 C 408.371094 420.277344 407.6875 420.414062 407.136719 420.003906 C 407.546875 418.355469 409.609375 417.945312 410.570312 419.179688 Z M 410.570312 419.179688 "/><path style=" stroke:none;fill-rule:nonzero;fill:#ffffff;fill-opacity:1;" d="M 367.605469 406.414062 C 369.113281 406.6875 370.898438 406.6875 372.273438 405.863281 C 374.332031 404.902344 376.253906 401.746094 374.054688 399.960938 C 373.507812 398.175781 370.625 397.902344 369.113281 397.765625 C 363.625 398.453125 360.605469 405.039062 367.605469 406.414062 Z M 371.449219 401.882812 C 371.449219 402.019531 371.449219 402.019531 371.585938 402.160156 C 371.175781 402.84375 370.488281 403.121094 369.664062 403.121094 C 368.839844 403.121094 367.878906 403.121094 367.054688 402.707031 C 368.015625 401.058594 369.9375 401.058594 371.449219 401.882812 Z M 371.449219 401.882812 "/><path style=" stroke:none;fill-rule:nonzero;fill:#ffffff;fill-opacity:1;" d="M 379.546875 397.765625 C 381.878906 398.863281 384.898438 395.570312 385.859375 393.785156 C 387.78125 390.628906 385.3125 389.253906 382.429688 388.84375 C 379 388.019531 375.839844 392.550781 376.800781 395.707031 C 377.078125 396.941406 378.175781 398.175781 379.546875 397.765625 Z M 381.46875 392.136719 C 381.878906 392.136719 382.019531 392.277344 382.566406 392.414062 C 382.019531 393.234375 381.332031 394.058594 380.371094 394.472656 C 380.234375 394.335938 380.097656 394.335938 379.957031 394.335938 C 380.234375 393.511719 380.78125 392.6875 381.46875 392.136719 Z M 381.46875 392.136719 "/><path style=" stroke:none;fill-rule:nonzero;fill:#ffffff;fill-opacity:1;" d="M 445.433594 278.484375 C 446.394531 278.894531 447.492188 278.347656 447.765625 277.386719 C 449.003906 275.464844 450.648438 273.40625 450.648438 270.933594 C 450.238281 265.71875 441.179688 263.523438 441.726562 270.25 C 442.277344 272.03125 442.277344 273.953125 442.824219 275.738281 C 443.238281 276.972656 444.335938 277.796875 445.433594 278.484375 Z M 445.84375 273.953125 C 445.84375 272.445312 445.160156 270.933594 445.160156 269.425781 C 448.179688 270.109375 447.21875 272.03125 445.84375 273.953125 Z M 445.84375 273.953125 "/><path style=" stroke:none;fill-rule:nonzero;fill:#ffffff;fill-opacity:1;" d="M 435.136719 415.882812 C 436.785156 416.023438 438.433594 416.296875 439.941406 415.335938 C 441.726562 414.238281 442.550781 411.765625 441.453125 409.980469 C 440.765625 408.609375 439.394531 407.511719 437.746094 407.785156 C 436.375 406.824219 434.726562 406.140625 433.078125 406 C 428.414062 405.179688 426.492188 409.433594 429.375 413.003906 C 430.882812 414.238281 432.941406 415.472656 435.136719 415.882812 Z M 436.785156 411.082031 C 437.199219 411.082031 437.472656 411.082031 437.882812 411.21875 C 438.570312 411.628906 438.433594 412.453125 437.746094 412.726562 C 435.960938 412.863281 434.316406 412.316406 432.804688 411.355469 C 431.980469 411.082031 431.296875 410.394531 431.296875 409.433594 C 433.628906 409.023438 435 410.394531 436.785156 411.082031 Z M 436.785156 411.082031 "/><path style=" stroke:none;fill-rule:nonzero;fill:#ffffff;fill-opacity:1;" d="M 432.394531 404.355469 C 435.136719 405.316406 438.707031 406 441.179688 404.355469 C 442.414062 404.078125 442.824219 402.707031 442.277344 401.609375 C 442 400.511719 442 399.277344 441.316406 398.175781 C 439.394531 394.882812 436.097656 395.707031 433.765625 398.039062 C 432.53125 398.863281 431.15625 399.136719 430.335938 400.785156 C 429.511719 402.433594 430.746094 403.941406 432.394531 404.355469 Z M 437.882812 399.414062 C 438.707031 399.960938 438.707031 400.921875 438.84375 401.746094 C 438.570312 401.882812 438.160156 401.882812 437.746094 401.882812 C 436.648438 401.882812 435.6875 401.746094 434.726562 401.609375 C 435.824219 401.058594 436.785156 399.960938 437.882812 399.414062 Z M 437.882812 399.414062 "/><path style=" stroke:none;fill-rule:nonzero;fill:#ffffff;fill-opacity:1;" d="M 442.550781 408.882812 C 442.960938 411.355469 445.296875 413.140625 447.765625 413.6875 C 453.394531 414.101562 454.628906 406.824219 452.160156 402.84375 C 449.414062 399.136719 444.746094 399.277344 445.84375 404.902344 C 443.921875 405.179688 442.414062 407.101562 442.550781 408.882812 Z M 447.355469 408.199219 C 448.863281 407.785156 449.277344 406.140625 449.277344 404.765625 C 450.101562 406.414062 450.648438 409.980469 448.179688 410.394531 C 447.355469 410.121094 446.53125 409.433594 445.984375 408.746094 C 446.121094 408.0625 446.941406 408.472656 447.355469 408.199219 Z M 447.355469 408.199219 "/><path style=" stroke:none;fill-rule:nonzero;fill:#ffffff;fill-opacity:1;" d="M 457.925781 400.785156 C 457.785156 400.785156 457.785156 400.785156 457.648438 400.648438 C 457.785156 400.785156 457.925781 400.785156 457.925781 400.785156 Z M 457.925781 400.785156 "/><path style=" stroke:none;fill-rule:nonzero;fill:#ffffff;fill-opacity:1;" d="M 447.492188 387.195312 C 443.238281 390.628906 442.414062 394.058594 447.492188 397.21875 C 450.648438 399 454.492188 399.414062 457.785156 400.921875 C 460.394531 401.746094 465.199219 402.84375 466.023438 399.277344 C 466.433594 399 466.570312 398.453125 466.570312 398.039062 C 466.570312 397.21875 466.023438 396.667969 465.335938 396.394531 C 463.6875 393.921875 460.945312 392.550781 459.296875 390.078125 C 457.785156 387.058594 460.121094 382.253906 456.277344 380.472656 C 451.882812 378.550781 450.101562 384.726562 447.492188 387.195312 Z M 450.648438 388.84375 C 452.296875 387.195312 453.121094 384.726562 455.042969 383.351562 C 455.867188 384.3125 455.316406 385.960938 455.453125 387.195312 C 455.042969 392.277344 459.847656 394.746094 462.589844 398.039062 C 461.355469 398.039062 460.121094 397.765625 458.886719 397.492188 C 456.6875 396.667969 454.492188 395.84375 452.296875 395.296875 C 450.375 395.019531 448.589844 394.058594 447.355469 392.550781 C 447.902344 390.902344 449.550781 390.078125 450.648438 388.84375 Z M 450.648438 388.84375 "/><path style=" stroke:none;fill-rule:nonzero;fill:#ffffff;fill-opacity:1;" d="M 461.769531 382.941406 C 461.90625 383.351562 462.179688 383.765625 462.453125 384.039062 C 463.828125 385.414062 466.433594 384.3125 467.257812 382.804688 C 468.082031 381.433594 467.945312 379.921875 468.082031 378.410156 C 468.355469 377.175781 469.042969 375.941406 469.316406 374.707031 C 469.453125 373.195312 468.492188 371.824219 467.121094 371.273438 C 464.925781 370.449219 462.867188 371.824219 461.628906 373.609375 C 460.394531 375.53125 460.53125 378.136719 460.667969 380.332031 C 460.945312 381.292969 461.355469 382.117188 461.769531 382.941406 Z M 466.023438 374.429688 C 465.0625 376.488281 464.789062 378.6875 464.648438 380.882812 C 463.6875 379.234375 463.6875 374.570312 466.023438 374.429688 Z M 466.023438 374.429688 "/><path style=" stroke:none;fill-rule:nonzero;fill:#ffffff;fill-opacity:1;" d="M 476.730469 370.3125 C 479.0625 369.351562 481.535156 368.253906 483.179688 366.195312 C 484.964844 364.136719 484.691406 360.84375 481.671875 360.292969 C 477.554688 359.605469 470.414062 366.605469 473.710938 370.3125 C 474.394531 371.136719 475.90625 371.136719 476.730469 370.3125 Z M 480.574219 363.726562 C 479.75 365.097656 478.375 365.921875 476.867188 366.46875 C 477.964844 365.371094 479.0625 364.136719 480.574219 363.726562 Z M 480.574219 363.726562 "/><path style=" stroke:none;fill-rule:nonzero;fill:#ffffff;fill-opacity:1;" d="M 474.671875 381.707031 C 479.335938 382.941406 481.257812 374.707031 476.867188 373.332031 C 476.042969 372.785156 474.945312 372.921875 474.121094 373.058594 C 471.789062 373.609375 470.691406 377.039062 471.789062 379.097656 C 472.613281 380.058594 473.296875 381.433594 474.671875 381.707031 Z M 475.082031 376.351562 C 475.21875 376.351562 475.492188 376.351562 475.632812 376.351562 C 476.316406 376.765625 476.042969 377.726562 475.632812 378.273438 C 475.492188 378.136719 475.492188 378 475.355469 377.863281 C 475.21875 377.726562 475.082031 377.449219 474.945312 377.3125 C 474.808594 376.902344 474.945312 376.628906 475.082031 376.351562 Z M 475.082031 376.351562 "/><path style=" stroke:none;fill-rule:nonzero;fill:#ffffff;fill-opacity:1;" d="M 631.289062 233.324219 C 631.5625 232.226562 630.601562 230.992188 629.367188 231.128906 C 625.386719 230.855469 619.484375 237.167969 621.128906 241.148438 C 623.875 245.402344 634.71875 236.894531 631.289062 233.324219 Z M 627.992188 234.972656 C 627.992188 235.109375 628.128906 235.382812 628.269531 235.519531 C 627.03125 236.617188 626.207031 238.128906 624.5625 238.679688 C 625.246094 237.167969 626.621094 235.933594 627.992188 234.972656 Z M 627.992188 234.972656 "/><path style=" stroke:none;fill-rule:nonzero;fill:#ffffff;fill-opacity:1;" d="M 553.460938 194.617188 C 556.203125 196.675781 560.597656 196.402344 561.144531 192.421875 C 561.421875 190.910156 561.421875 188.578125 559.636719 188.164062 C 555.519531 182.949219 546.597656 191.046875 553.460938 194.617188 Z M 556.617188 189.949219 C 557.027344 190.222656 557.304688 190.773438 557.714844 191.046875 C 557.714844 191.597656 557.714844 192.007812 557.441406 192.421875 C 557.441406 192.421875 557.441406 192.421875 557.300781 192.421875 C 556.203125 192.28125 555.242188 191.597656 554.421875 190.910156 C 554.832031 190.363281 555.792969 189.675781 556.617188 189.949219 Z M 556.617188 189.949219 "/><path style=" stroke:none;fill-rule:nonzero;fill:#ffffff;fill-opacity:1;" d="M 598.34375 137.925781 C 598.480469 136.691406 597.246094 136.003906 596.285156 135.457031 C 594.089844 134.632812 592.441406 136.691406 591.894531 138.613281 C 590.796875 141.632812 591.070312 145.203125 593.265625 147.671875 C 597.382812 151.929688 602.324219 140.535156 598.34375 137.925781 Z M 595.050781 139.847656 C 595.324219 140.261719 595.738281 140.671875 596.285156 140.671875 C 596.835938 141.90625 596.011719 143.554688 595.324219 144.652344 C 594.363281 143.28125 594.5 141.496094 595.050781 139.847656 Z M 595.050781 139.847656 "/><path style=" stroke:none;fill-rule:nonzero;fill:#ffffff;fill-opacity:1;" d="M 230.753906 327.898438 C 234.460938 329.132812 237.066406 325.152344 237.207031 321.996094 C 237.480469 320.210938 237.34375 317.328125 234.734375 318.152344 C 233.5 317.46875 232.265625 318.289062 231.441406 319.113281 C 228.96875 321.035156 226.636719 326.527344 230.753906 327.898438 Z M 233.773438 321.585938 C 233.636719 322.683594 233.226562 324.191406 232.125 324.742188 C 232.125 324.742188 231.988281 324.742188 231.988281 324.742188 C 232.125 323.371094 232.8125 322.410156 233.773438 321.585938 Z M 233.773438 321.585938 "/><path style=" stroke:none;fill-rule:nonzero;fill:#ffffff;fill-opacity:1;" d="M 265.757812 303.878906 C 269.460938 305.25 275.777344 297.152344 271.933594 294.542969 C 271.933594 294.40625 271.796875 294.269531 271.660156 294.132812 C 269.460938 290.839844 266.304688 294.269531 264.796875 296.328125 C 262.324219 298.800781 261.777344 302.644531 265.757812 303.878906 Z M 269.1875 296.464844 C 269.1875 296.464844 269.324219 296.601562 269.324219 296.601562 C 269.324219 296.742188 269.460938 297.015625 269.597656 297.152344 C 268.777344 298.386719 268.226562 300.171875 266.578125 300.582031 C 266.441406 300.582031 266.167969 300.445312 266.03125 300.308594 C 266.992188 298.9375 268.089844 297.5625 269.1875 296.464844 Z M 269.1875 296.464844 "/><path style=" stroke:none;fill-rule:nonzero;fill:#ffffff;fill-opacity:1;" d="M 271.660156 293.996094 C 271.660156 294.132812 271.660156 294.132812 271.660156 293.996094 C 271.660156 294.132812 271.796875 294.132812 271.796875 294.132812 C 271.660156 294.132812 271.660156 294.132812 271.660156 293.996094 Z M 271.660156 293.996094 "/><path style=" stroke:none;fill-rule:nonzero;fill:#ffffff;fill-opacity:1;" d="M 292.523438 315.40625 C 297.738281 318.703125 300.210938 308.683594 296.367188 306.074219 C 295.816406 305.113281 294.582031 305.113281 293.621094 305.523438 C 291.011719 307.035156 289.503906 313.625 292.523438 315.40625 Z M 294.71875 309.503906 C 294.71875 310.464844 294.71875 311.566406 294.308594 312.527344 C 294.03125 311.566406 294.445312 310.464844 294.71875 309.503906 Z M 294.71875 309.503906 "/></g></svg>